<?xml version="1.0" standalone="no"?>
<!DOCTYPE svg PUBLIC "-//W3C//DTD SVG 1.1//EN" "http://www.w3.org/Graphics/SVG/1.1/DTD/svg11.dtd" >
<svg xmlns="http://www.w3.org/2000/svg">
<metadata>
This is a custom SVG webfont generated by Font Squirrel.
Copyright   : Appetite designed by Denis Serebryakov  wwwdsgnby
Designer    : Denis Serebryakov
Foundry     : Denis Serebryakov
</metadata>
<defs>
<font id="AppetiteItalic" horiz-adv-x="1259" >
<font-face units-per-em="2048" ascent="1536" descent="-512" />
<missing-glyph horiz-adv-x="509" />
<glyph unicode=" "  horiz-adv-x="509" />
<glyph unicode="&#x09;" horiz-adv-x="509" />
<glyph unicode="&#xa0;" horiz-adv-x="509" />
<glyph unicode="!" horiz-adv-x="544" d="M-4 164q6 41 28.5 78t54.5 64.5t70.5 43t79.5 15.5t75 -15.5t57.5 -43t32.5 -64.5t1 -78q-8 -43 -29.5 -80t-54 -64.5t-71.5 -43t-80 -15.5t-75 15.5t-56.5 43t-31.5 64.5t-1 80zM104 1393q12 25 40 50t66 46.5t81 35t86 13.5q125 0 190.5 -83t38.5 -230 q-10 -66 -30.5 -149t-48 -169t-60.5 -168t-70 -146.5t-77.5 -104t-81.5 -39.5q-37 0 -57.5 34.5t-31 91t-10.5 126t4 140t12.5 134t14.5 106.5q18 121 6 177.5t-31.5 79t-35 29t-5.5 26.5z" />
<glyph unicode="&#x22;" horiz-adv-x="714" d="M11 1154q-5 77 9 151q12 78 48 130t81.5 77.5t91.5 25.5t81.5 -25.5t53 -78t5.5 -129.5q-14 -76 -46 -152t-70 -137.5t-75.5 -100t-64.5 -38.5t-51.5 38.5t-41 100t-21.5 138.5zM398 1154q-5 77 10 151q12 78 48 130t81 77.5t91 25.5t81.5 -25.5t53 -78t5.5 -129.5 q-14 -76 -46 -152t-70 -137.5t-75.5 -100t-64.5 -38.5t-51.5 38.5t-41 100t-21.5 138.5z" />
<glyph unicode="#" horiz-adv-x="1208" d="M-31 274q0 2 2 5l68 135l2 2q4 4 8 4h250q27 49 53.5 100t50.5 101h-258q-6 0 -6 4v4l70 135q0 2 2 4q4 4 10 4h87q71 0 171 -2q29 53 52.5 99t39.5 81q20 39 37 72q2 6 8 8q2 2 7 2h133q2 0 4 -2t-2 -8q-16 -33 -37 -72q-16 -35 -40 -81t-52 -99h190q29 53 53.5 99 t40.5 81q20 39 37 72q2 4 4 5t4 3t5 2h133q2 0 4 -2t0 -8q-16 -33 -37 -72q-16 -35 -40 -82t-52 -100h262q6 0 6 -4v-4l-68 -133l-4 -4q-4 -4 -12 -5h-262q-25 -49 -50.5 -99t-51.5 -101h272q4 0 4 -4v-4l-66 -134l-4 -4q-4 -4 -12 -4h-270q-49 -98 -85 -167.5t-48 -92.5 q-2 -8 -9 -8h-4h-135h-4q-4 0 2 6l44 88l87 174h-95q-48 0 -95 2q-49 -98 -85 -168.5t-46 -93.5q-6 -8 -9 -8h-4h-137h-2q-4 0 0 6q10 16 46 89t87 175h-248q-6 0 -6 4zM451 420h95q48 0 95 -2q27 51 52.5 101t49.5 99q-47 2 -95 3h-95l-50 -101q-25 -51 -52 -100z" />
<glyph unicode="$" horiz-adv-x="1024" d="M-31 221q14 76 75.5 131.5t148.5 55.5q51 0 95 -11.5t48 -23.5q6 -14 0 -35t-10 -49q-10 -61 17.5 -93t78.5 -32q55 0 84 25.5t39 66.5q4 37 -15.5 61.5t-55.5 42t-83 33t-98 33.5q-49 18 -93 46t-75 65.5t-46.5 86t-4.5 109.5q0 4 2 6q10 61 44 112.5t83 91.5 t109.5 67.5t123.5 44.5q2 35 3 61.5t1 42.5v31q0 6 4 10q2 2 7 2l122 6q2 0 5 -2q2 -2 2 -8q-4 -12 -9 -31q-4 -16 -8 -38.5t-10 -55.5h29h32q16 0 33 -2q4 35 8 57.5t7 38.5q2 18 2 31q0 2 6 8q2 2 4 2l119 -6q2 0 4 -2q4 -4 4 -8q-4 -16 -13 -39q-14 -41 -28 -98 q57 -12 106 -34t83 -52.5t48.5 -71.5t6.5 -90q-10 -74 -70 -126t-154 -52q-51 0 -92 13t-45 24q-4 12 2 32.5t10 51.5q20 119 -82 116q-47 -2 -74.5 -34.5t-33.5 -61.5q-6 -37 10.5 -62.5t48 -44t75.5 -33t93 -28.5q55 -18 109.5 -42.5t94.5 -61.5t59.5 -88.5t7.5 -120.5 q-12 -70 -50.5 -123t-92.5 -92t-120.5 -64.5t-134.5 -38.5q-2 -35 -3 -58.5t-1 -39.5v-29q0 -6 -2 -8t-4 -2l-123 -6q-2 0 -4 2q-6 4 -4 8q2 10 6 29q4 14 8 36.5t11 53.5q-16 -2 -31 -2h-29h-33q-6 -33 -9 -54l-5 -36q-2 -16 -2 -27q-2 -4 -6 -8q-2 -2 -4 -2l-119 6 q-2 0 -4 2q-6 4 -4 8l10 35q4 16 11 39t16 49q-55 10 -108.5 29.5t-92.5 50.5t-59.5 74t-10.5 100z" />
<glyph unicode="%" horiz-adv-x="1515" d="M63 782q10 57 41 108.5t77 90.5t106.5 60.5t132.5 21.5l899 -4q0 -2 2 -2q0 -2 1 -2t-3 -4q-117 -168 -200 -288t-139 -203t-90 -137t-53.5 -89t-26.5 -57.5t-11 -45.5q-6 -37 -4 -65.5t6 -51t5 -39t-7 -26.5q-94 -74 -186.5 -83t-152 34t-68.5 130t63 208l381 567h-164 q16 -57 4 -123q-10 -59 -39 -109t-75 -88t-107.5 -59.5t-135.5 -21.5q-72 0 -124 21.5t-84.5 59.5t-45 88t-2.5 109zM313 782q-23 -125 35 -125q33 0 51.5 33t28.5 92q10 53 3 89t-40 36q-31 0 -48.5 -31t-29.5 -94zM856 242q10 57 40 108t76 90t106.5 60.5t131.5 21.5 q74 0 127.5 -21.5t86 -60.5t44 -90t0.5 -108q-10 -59 -39.5 -109.5t-75.5 -88.5t-106.5 -59.5t-134.5 -21.5q-72 0 -125 21.5t-86 59.5t-44 88.5t-1 109.5zM1102 149.5q6 -32.5 37 -32.5q33 0 52 32.5t30 92.5q10 53 3 89t-40 36q-57 0 -78 -125q-10 -60 -4 -92.5z" />
<glyph unicode="&#x26;" d="M-25 258q10 61 37 108.5t67 81t89 55t104 36.5q-37 10 -68.5 27.5t-52 44t-29.5 62.5t-1 83q16 92 76.5 153.5t143.5 98t175 51t174 14.5q63 0 140 -11t141.5 -41t103.5 -79t27 -125q-6 -37 -28.5 -65.5t-55.5 -47t-73 -27.5t-81 -9q-49 0 -91 12t-48 22q-6 14 -2 18.5 t8 35.5q12 61 -14.5 84.5t-79.5 23.5q-55 0 -89 -35.5t-42 -80.5q-4 -18 -1 -40t12 -39.5t28.5 -29.5t50.5 -12h6h2h678l2 -2q2 -2 2 -9l-33 -186q0 -4 -4 -8q-2 -2 -4 -2h-215q-2 -4 -2 -8q-4 -29 -8 -52.5t-6 -46.5q-2 -47 14 -72.5t41 -38t56.5 -15.5t60.5 -3 q25 0 26.5 -16t-10.5 -37q-55 -84 -138 -135t-192 -51q-55 0 -94 14t-65.5 37.5t-42 54.5t-23.5 64q-57 -63 -134 -103.5t-157 -54.5t-155.5 -4t-131 48t-83 101.5t-11.5 155.5zM406 279q-8 -43 8 -75t71 -28q59 4 110.5 66.5t63.5 175.5h-77q-43 0 -75 -14.5t-53.5 -36 t-32.5 -46t-15 -42.5z" />
<glyph unicode="'" horiz-adv-x="421" d="M33 1022q2 12 13 23.5t28 23.5q66 53 77 80t-16 37q-49 23 -73.5 67.5t-14.5 104.5q6 37 25.5 69.5t48.5 57t64.5 39t72.5 14.5t66.5 -14.5t50 -40t29 -61.5t2.5 -76q-14 -76 -50.5 -133.5t-79.5 -97.5t-84.5 -64.5t-66.5 -32.5q-31 -10 -50.5 -13.5t-28.5 -1t-12 7.5 t-1 11z" />
<glyph unicode="(" horiz-adv-x="442" d="M-4 358.5q2 96.5 20 206.5q20 113 53 214.5t73 187.5t85 158.5t88 131.5q100 137 217 236q31 29 45.5 27t-2.5 -39q-49 -96 -98 -232q-41 -117 -89 -289t-89 -401q-39 -213 -49 -377t-8 -276q2 -131 16 -230q2 -35 -12.5 -39t-34.5 27q-82 98 -135 232 q-23 57 -42.5 127.5t-29.5 154.5t-8 180.5z" />
<glyph unicode=")" horiz-adv-x="483" d="M-112.5 -342q-12.5 4 1.5 39q47 92 95 219q41 111 86 270.5t84 372.5q41 229 53 401.5t10 288.5q-2 135 -16 232q-2 37 13 39t34 -27q82 -98 135 -236q23 -59 42 -131.5t28.5 -158.5t7.5 -187.5t-23 -214.5q-41 -221 -124 -385t-169 -274q-98 -129 -213 -221 q-32 -31 -44.5 -27z" />
<glyph unicode="*" horiz-adv-x="733" d="M39 1214.5q-14 38.5 3 73.5t60 54.5t101 -1.5q29 -10 56.5 -27.5t49.5 -37.5q-4 31 -6 65.5t4 69.5q10 63 46 95t73 32t62.5 -31.5t15.5 -95.5q-6 -35 -19.5 -68.5t-29.5 -64.5q57 41 129 63q63 20 99 1t41 -54t-21.5 -73.5t-90.5 -59.5q-70 -20 -133 -16 q23 -18 42.5 -41t35.5 -49q29 -51 15.5 -95.5t-47 -66t-75.5 -13t-71 59.5q-31 55 -37 123q-33 -70 -78 -123q-47 -51 -92 -59.5t-70.5 13t-24.5 65.5t46 96q25 27 53.5 49t56.5 41q-63 -4 -124 16q-56 21 -70 59.5z" />
<glyph unicode="+" horiz-adv-x="956" d="M31 430v4l30 172q0 2 2 4q6 6 11 6h321q12 66 22.5 124.5t18.5 103.5q8 51 17 94q0 2 6 8q2 2 4 2h178q2 0 4 -2t2 -8q-8 -39 -16 -90q-8 -43 -17.5 -102.5t-21.5 -129.5h323q8 0 9 -4v-4l-31 -176q0 -2 -2 -4t-8 -2q-55 0 -141.5 -1t-184.5 1q-14 -82 -27.5 -164 t-27.5 -160q-2 -6 -4 -8t-4 -2h-183q-2 -2 -4 0q-4 0 -4 8q10 55 25.5 141.5t31.5 184.5h-321q-8 0 -8 4z" />
<glyph unicode="," horiz-adv-x="462" d="M33 -209q6 20 45 51q72 59 85 90t-16 41q-53 23 -81.5 74t-18.5 117q8 41 30.5 78t54.5 64.5t72 43t81 15.5q82 0 130 -60.5t31 -152.5q-14 -84 -54 -148.5t-87 -110t-94 -73t-74 -35.5q-72 -23 -89 -16.5t-15 22.5z" />
<glyph unicode="-" horiz-adv-x="753" d="M45 426q-2 2 0 4l31 176l4 4q6 6 10 6h608q6 0 7 -4v-4l-31 -180q0 -2 -2 -4t-8 -2q-84 -2 -189.5 -1t-200.5 1h-221q-8 0 -8 4z" />
<glyph unicode="." horiz-adv-x="462" d="M31 164q6 41 28.5 78t54 64.5t71.5 43t81 15.5q84 0 132 -58.5t34 -142.5q-8 -41 -30.5 -78t-54.5 -64.5t-71.5 -43t-80.5 -15.5t-75 15.5t-56.5 43t-31.5 64.5t-1 78z" />
<glyph unicode="/" horiz-adv-x="833" d="M-158 -350q6 12 50.5 98t112 216t151.5 293t170 331q203 393 456 885q2 6 9 8q2 2 6 2h172q2 0 4 -2t-2 -8q-250 -483 -451 -873q-86 -166 -169 -327.5t-150.5 -294t-113.5 -221.5t-54 -107q-6 -8 -10 -8h-5h-172h-4q-2 0 0 8z" />
<glyph unicode="0" horiz-adv-x="1124" d="M18.5 344q-14.5 111 6.5 225q20 115 72.5 225.5t134 196.5t190 139.5t242.5 53.5q131 0 223 -53.5t144 -139.5t67.5 -196.5t-4.5 -225.5t-72.5 -225.5t-134.5 -197.5t-191.5 -140t-246.5 -53q-133 0 -223.5 53t-141.5 140t-65.5 198zM400 305.5q3 -59.5 22.5 -98.5 t62.5 -39q47 0 81 38t57.5 96t40 129t28.5 138q12 66 20.5 137.5t4.5 130t-24.5 96.5t-65.5 38q-43 0 -76 -38t-56.5 -96.5t-40 -129t-28.5 -138.5q-12 -63 -20.5 -133.5t-5.5 -130z" />
<glyph unicode="1" horiz-adv-x="561" d="M-14 10q39 229 71 410q12 76 25.5 149.5t24 131t16.5 93.5l6 35q12 70 9 110t-12 61.5t-19.5 31.5t-12.5 19q-8 29 53 41q4 0 26 5t53.5 11t72.5 14t82 19q98 20 217 47l2 -2q2 -2 2 -8q-6 -31 -17.5 -97.5t-27.5 -153.5t-33.5 -189.5t-36.5 -205.5q-43 -240 -92 -522 q-2 -4 -6 -8q-2 -2 -4 -2h-393q-2 0 -4 2q-4 4 -2 8z" />
<glyph unicode="2" horiz-adv-x="1013" d="M-51 8l51 299q0 2 2 4t6 4q47 18 110.5 54.5t130 83.5t133.5 101t120 108.5t89 104.5t42 89q8 45 -7.5 82t-72.5 37q-51 0 -91 -33t-50 -94q-6 -31 -7.5 -51.5t-11.5 -32.5t-57 -24.5t-98 -12.5q-88 0 -131.5 56.5t-28.5 129.5q14 78 71.5 130.5t133 83t159.5 44 t150 13.5q86 0 173 -18.5t154.5 -57.5t103.5 -100.5t21 -147.5q-10 -57 -43.5 -110.5t-81 -102.5t-105.5 -92t-118 -80q-139 -86 -309 -158l-6 -2q158 2 298 2h232q6 0 7 -4v-4l-54 -301v-4q0 -4 -8 -4h-897q-4 0 -8 4q-2 2 -2 4z" />
<glyph unicode="3" horiz-adv-x="1019" d="M-35 221q14 82 75.5 136.5t147.5 54.5q53 0 96.5 -13.5t49.5 -25.5q4 -16 -3 -38t-12 -56q-10 -59 15.5 -87t73.5 -28q53 0 96 42t53 99q4 27 2 59.5t-20.5 60.5t-57.5 46t-106 18h-70q-2 0 -4 3q-4 4 -2 8q4 31 10 61q4 27 9.5 54.5t9.5 48.5q0 8 4 8l309 149h-516 q-6 0 -6 4v4l53 299q0 2 2 5q4 4 8 4h881q4 0 8 -4l2 -3l-53 -301q-2 -2 -2 -4l-4 -4l-342 -166l-2 -2q61 -10 118.5 -33.5t100.5 -63.5t63.5 -96.5t8.5 -131.5q-18 -106 -80 -178t-144 -116t-175 -62.5t-177 -18.5q-59 0 -138 12t-146.5 43t-108.5 82t-27 131z" />
<glyph unicode="4" horiz-adv-x="1056" d="M-49 158l49 276v2q0 2 2 4q150 117 264.5 236t194.5 217t123 163.5t49 76.5v2q4 4 6 4h4h356q2 0 5 -2q2 -2 2 -9q-12 -70 -27 -153q-12 -72 -29.5 -170t-38.5 -211l-24 -137h121q8 0 8 -4v-4l-51 -291q0 -2 -2 -4q-4 -4 -9 -4h-120q-8 -37 -12.5 -64t-8.5 -45 q-4 -23 -6 -35q-2 -4 -6 -8q-2 -2 -4 -2h-381q-2 0 -4 2q-4 4 -2 8q2 16 6 39q4 18 8 45t10 60h-473q-4 0 -8 4q-2 2 -2 4zM297 459h195l45 256q-10 -12 -34 -39t-55.5 -61.5t-70.5 -75.5t-80 -80z" />
<glyph unicode="5" horiz-adv-x="1021" d="M-25 221q14 82 76 136.5t148 54.5q51 0 95 -13.5t48 -25.5q6 -16 -1 -38t-11 -56q-10 -59 15.5 -87t72.5 -28q51 0 91 42t50 99q8 51 -4 93t-62.5 68t-145.5 33t-253 -10h-12q-2 0 -4 3q-4 4 -2 8l16 98l41 231l14 80l39 219q0 2 2 5q4 4 9 4h854q8 0 8 -4v-3l-53 -301 q0 -2 -2 -4q-4 -4 -9 -4h-628l-23 -131q150 27 271.5 15.5t205.5 -58.5t122 -128t20 -191q-18 -106 -78 -178t-140.5 -116t-173 -62.5t-176.5 -18.5q-61 0 -139 12t-145.5 43t-108.5 82t-27 131z" />
<glyph unicode="6" horiz-adv-x="1050" d="M19.5 338q-15.5 113 7.5 240q25 127 82 238.5t142 194.5t192.5 131t230.5 46q94 0 165.5 -26.5t118 -65.5t66.5 -86t12 -90q-12 -72 -67.5 -124.5t-151.5 -50.5q-51 0 -91 13.5t-44 23.5q-4 14 2 34t12 48q8 47 -2 82t-57 35q-39 0 -68.5 -23.5t-52 -64.5t-38 -94.5 t-27.5 -110.5q152 41 262 26.5t177.5 -64.5t93.5 -128t9 -162q-16 -84 -52 -146t-85 -107.5t-106.5 -75t-111.5 -46t-103.5 -23.5t-81.5 -7q-129 2 -220.5 51t-144.5 134t-68.5 198zM404.5 388.5q-5.5 -60.5 1 -106.5t25 -74t52.5 -28q35 0 61.5 23.5t43 56.5t26 64.5 t11.5 48.5q6 39 -1.5 70.5t-30 52t-64.5 25.5t-109 -9q-10 -63 -15.5 -123.5z" />
<glyph unicode="7" horiz-adv-x="921" d="M55 825v4l54 299q0 2 2 5q4 4 8 4h880q4 0 9 -4l2 -3l-54 -301q-2 -2 -2 -4l-4 -4q-104 -57 -190 -131q-74 -63 -142.5 -151t-89.5 -195q-6 -35 -8 -70.5t12 -70.5q12 -31 30 -46.5t31 -23.5t20.5 -14t0.5 -21q-12 -25 -39.5 -50t-65.5 -46.5t-81 -35t-86 -13.5 q-59 0 -110.5 20.5t-86 59.5t-49 97t-0.5 136q18 109 86 200t151 161.5t166 120t136 73.5h-572q-8 0 -8 4z" />
<glyph unicode="8" horiz-adv-x="1085" d="M-12 322q8 51 33.5 94t63.5 76.5t84 57t95 38.5q-86 23 -130 90t-28 166q16 94 68.5 159.5t125.5 105.5t162 58.5t179 18.5h21q90 0 171.5 -19.5t140 -60.5t87.5 -105.5t12 -156.5q-16 -98 -84.5 -166t-163.5 -90q45 -14 83 -38t63.5 -57.5t36 -76.5t2.5 -94 q-18 -104 -75.5 -175t-136.5 -114t-172.5 -61.5t-183.5 -18.5h-20q-90 0 -176 18.5t-149.5 61.5t-95 114t-13.5 175zM389 338q-14 -72 9.5 -114t72.5 -42q51 0 89 42t52 114q4 29 1 58.5t-13 53t-28.5 38t-43.5 14.5t-48 -14.5t-41.5 -38t-32 -53t-17.5 -58.5zM472 769 q3 -28 13.5 -49.5t28.5 -35.5t43 -14t48.5 14t42 35.5t30.5 49.5t16 54q12 63 -10 105.5t-74 42.5q-49 0 -88 -43t-49 -105q-4 -26 -1 -54z" />
<glyph unicode="9" horiz-adv-x="1044" d="M4 203q4 37 21.5 72.5t46 65.5t66.5 47.5t85 17.5q53 2 94 -12.5t45 -22.5q6 -14 0 -35t-12 -49q-8 -45 4.5 -84t65.5 -39q37 0 65.5 25.5t48 68.5t34 97.5t24.5 111.5q-143 -47 -249.5 -36t-174.5 60.5t-96.5 126t-12.5 162.5q20 127 84 206t143 123t160.5 59.5 t143.5 15.5q129 0 220 -48.5t143.5 -133t66.5 -197.5t-8 -242q-25 -143 -81.5 -256.5t-138 -191.5t-187 -120t-230.5 -42q-86 0 -157 19.5t-120 53t-74.5 79t-19.5 98.5zM412 772q-4 -39 3 -68.5t31.5 -47t67.5 -18.5t109 15q14 63 18 116.5t-3 92.5t-29.5 59.5t-61.5 20.5 q-35 0 -59.5 -20.5t-41 -48t-24.5 -56.5t-10 -45z" />
<glyph unicode=":" horiz-adv-x="462" d="M-16 164q6 41 27.5 78t53 64.5t71.5 43t81 15.5q84 0 132 -58.5t34 -142.5q-8 -41 -29.5 -78t-54.5 -64.5t-72 -43t-80 -15.5t-74.5 15.5t-56 43t-31.5 64.5t-1 78zM78 711q8 41 29.5 77.5t54.5 64.5t71.5 43t79.5 15t75 -15t57.5 -43t32.5 -64.5t1 -77.5 q-6 -41 -28.5 -78t-54 -64.5t-71.5 -43t-81 -15.5q-84 0 -132 58.5t-34 142.5z" />
<glyph unicode=";" horiz-adv-x="462" d="M-12 -209q2 12 13 24.5t28 26.5q72 59 86 90t-15 41q-55 23 -82.5 74t-17.5 117q6 41 28.5 78t54.5 64.5t72 43t81 15.5q82 0 130 -60.5t33 -152.5q-16 -84 -56 -148.5t-87 -110t-94 -73t-74 -35.5q-70 -23 -87 -16.5t-13 22.5zM96 711q8 41 29.5 77.5t54.5 64.5t72 43 t80 15t74.5 -15t57 -43t33 -64.5t1.5 -77.5q-6 -41 -29 -78t-54.5 -64.5t-71.5 -43t-81 -15.5q-84 0 -132 58.5t-34 142.5z" />
<glyph unicode="=" horiz-adv-x="1024" d="M12 231q-2 2 0 5l31 176l4 4q6 6 10 6h875q6 0 6 -4v-4l-31 -181q0 -2 -2 -4t-8 -2h-101h-130h-145h-146h-355q-8 0 -8 4zM74 580q-2 2 0 4l30 176l5 4q6 6 10 6h874q6 0 6 -4v-4l-30 -180q0 -2 -2 -4t-9 -3h-101h-130h-144h-147h-354q-8 1 -8 5z" />
<glyph unicode="?" horiz-adv-x="612" d="M-45 1231q10 53 51 107.5t104.5 97.5t147.5 69.5t182 26.5q109 0 185.5 -29.5t125 -78t67 -106.5t7.5 -116q-10 -59 -40.5 -109.5t-72.5 -100.5t-92.5 -105.5t-101.5 -126.5q-33 -45 -65.5 -99.5t-67.5 -101.5t-73 -78.5t-76 -31.5q-35 0 -59.5 29.5t-37 76.5 t-12.5 102.5t14 108.5q20 76 66.5 138.5t95.5 117.5t89 104.5t50 102.5q2 14 3 31.5t-4 33t-17 26.5t-37 11t-42 -12t-28.5 -32.5t-18.5 -44t-11 -44.5q-4 -29 -6 -58.5t-13 -41.5q-8 -10 -58 -22.5t-101 -14.5q-94 0 -131 49t-23 121zM-6 164q6 41 28.5 78t54.5 64.5 t71.5 43t80.5 15.5t75 -15.5t56.5 -43t31.5 -64.5t1 -78q-6 -43 -28.5 -80t-54 -64.5t-71.5 -43t-81 -15.5q-84 0 -131 58.5t-33 144.5z" />
<glyph unicode="@" horiz-adv-x="1472" d="M20 514q25 147 103 276.5t190.5 225.5t253 151.5t291.5 55.5q152 0 274.5 -47.5t204.5 -133.5t116 -208.5t5 -272.5q-20 -102 -71.5 -184t-119 -138.5t-143 -86t-145.5 -29.5q-63 0 -102 22.5t-61.5 51t-32 55.5t-11.5 37q-47 -70 -112.5 -115t-139.5 -45q-68 0 -113 34 t-70.5 88t-30.5 123.5t7 141.5q12 74 42 142.5t75 122t104.5 86t129.5 32.5q74 0 119.5 -38t68.5 -97q4 23 7 41l5 31q2 14 4 26q0 2 4 6q2 0 5 2h284h2q4 0 4 -6q-25 -119 -45 -215q-8 -41 -16 -80t-14.5 -70.5t-9.5 -51t-3 -21.5q-4 -41 12.5 -65.5t51.5 -24.5 q27 0 53.5 18.5t50 49t41 72.5t25.5 89q16 92 -0.5 186.5t-71.5 171t-153.5 126t-245.5 49.5q-133 0 -248 -51.5t-204 -134.5t-147.5 -188.5t-76.5 -215.5q-29 -158 8 -267.5t109.5 -178t167 -99.5t184.5 -31q106 0 185 15.5t131.5 31t78 25.5t27.5 -2q2 -6 -20.5 -38 t-76 -67.5t-140.5 -63.5t-214 -28q-152 0 -271.5 55.5t-198.5 152t-110 225.5t-6 276zM604 516q-14 -80 2.5 -136t69.5 -56t90 56t51 136t-3 136.5t-71 56.5q-53 0 -89 -56.5t-50 -136.5z" />
<glyph unicode="A" horiz-adv-x="1411" d="M-122 4q0 2 3 6q152 307 273 551q51 104 99 202.5t87 176.5t62 126l24 48q45 80 53 125q4 24 5 43q0 16 -4 28q-7 26 -17 39t0 31q14 31 49 56.5t80 44t94 30t94 11.5q55 0 107.5 -18.5t95.5 -58.5t75 -100.5t46 -144.5q8 -45 19.5 -120.5t24.5 -168t27.5 -195 t26.5 -202.5q31 -236 64 -504q0 -4 -4 -8q-2 -2 -5 -2h-462q-4 0 -7 2q-4 4 -4 8l-12 217h-362q-18 -49 -35 -89t-27 -68q-12 -35 -22 -60q-4 -4 -11 -8q-4 -2 -6 -2h-426q-5 0 -5 4zM514 504h240l-15 594q-25 -55 -52.5 -129t-57 -154t-59 -160.5t-56.5 -150.5z" />
<glyph unicode="B" horiz-adv-x="1320" d="M23 349q-4 41 -4 80q0 63 10 122q8 47 22.5 131t31.5 182.5t35.5 199.5t33 183t23.5 134l9 53q2 8 6.5 10t6.5 2q70 16 155 31q74 12 176.5 22t227.5 10q98 0 197.5 -16t176 -58t117.5 -114q28 -49 28 -116q0 -30 -5 -64q-10 -53 -34 -102.5t-55.5 -89.5t-67.5 -67.5 t-66 -39.5q-14 -8 0 -13q63 -25 107 -64.5t68.5 -89.5t30.5 -107q3 -24 3 -47q0 -31 -5 -62q-25 -135 -95.5 -230.5t-170.5 -157t-221 -89t-244 -27.5q-172 0 -276.5 56.5t-157.5 144.5t-63 193zM450 330q3 -37 18 -65.5t45 -46t79 -17.5q86 0 142.5 59t74.5 160q5 27 5 51 q0 39 -12 72q-19 53 -62.5 84.5t-105.5 43.5q-27 5 -57 5q-38 0 -79 -8q-4 -27 -11.5 -64t-13.5 -74.5t-12 -71.5t-10 -55q-2 -21 -3 -42q1 -15 2 -31zM537 893q72 0 126 18.5t91 48t58.5 68.5t27.5 80q5 26 4 48q0 36 -13 61q-20 39 -57 56q-35 16 -78 16h-5q-46 -1 -85 -9 q-6 -35 -15 -84t-18.5 -103.5t-19.5 -107.5t-16 -92z" />
<glyph unicode="C" horiz-adv-x="1314" d="M20 739q27 154 104 292t189.5 244.5t256 170t304.5 63.5q8 0 17 1q111 0 200 -26q95 -28 158.5 -78t90.5 -120q18 -46 19 -97q0 -27 -5 -54q-6 -41 -28.5 -82t-57.5 -75t-81 -55.5t-102 -21.5q-68 0 -110 22q-36 18 -36 42q0 5 1 10q16 49 22 99q2 17 1 32q0 31 -7 57 q-10 39 -38.5 63.5t-79.5 24.5q-70 0 -131.5 -53t-108.5 -133t-75.5 -172t-33.5 -170q-2 -27 -1 -52q0 -98 25 -170q32 -91 88 -145.5t132 -74.5q52 -14 108 -15q25 0 51 3q83 9 167 44t158 93q35 27 37.5 8t-13.5 -56q-8 -20 -28.5 -57t-57.5 -81t-88 -90t-120.5 -84 t-155.5 -62.5t-193 -26.5h-18q-142 0 -254 59q-119 63 -196 171t-106 251q-16 76 -16 155q-1 71 12 146z" />
<glyph unicode="D" horiz-adv-x="1345" d="M-61 27l245 1405q2 8 6.5 10t6.5 2q59 16 139 29q68 10 166 19t225 9q168 0 293 -60.5t204 -165t106 -244.5q14 -69 14 -143q0 -77 -15 -159q-29 -162 -101.5 -303t-184 -246.5t-260 -166t-328.5 -60.5q-127 0 -222.5 9t-158.5 22q-76 12 -127 30q-2 0 -6 2.5t-2 10.5z M414 178h15q85 0 157 42q78 46 136 126t98 182.5t59 210.5q14 78 13 162v32q-3 101 -33 183t-91 129q-47 36 -116 36q-21 0 -44 -3z" />
<glyph unicode="E" horiz-adv-x="1107" d="M22 305q-7 46 -7 93q0 56 10 114l170 944q0 4 8 8q4 2 6 2h977q2 0 6 -2q6 -2 8 -8q2 -20 2 -39q0 -48 -14 -94q-16 -55 -62.5 -112.5t-140.5 -92.5q-61 -23 -130 -25q-29 -1 -57 -2q-37 0 -71 3q-68 6 -137 20q-2 -16 -7 -45t-12.5 -65.5t-15.5 -78.5t-14 -81h338 q4 0 6 -2q4 -4 2 -8l-37 -205q0 -4 -2 -5t-4 -3l-6 -3h-338q-8 -41 -15 -73l-12 -74q-3 -20 -3 -38q0 -41 16 -69q24 -42 67 -62.5t100 -25.5q18 -1 36 -1q40 0 81 7q59 9 115.5 27.5t95.5 40.5q35 20 44 4t-3 -53q-12 -39 -56 -98.5t-117 -114.5t-173.5 -94t-224.5 -39 q-131 0 -221.5 47t-141.5 125t-66 178z" />
<glyph unicode="F" horiz-adv-x="1079" d="M-11 150q-6 30 -6 66q0 44 9 97q8 49 21.5 124t29.5 164t33.5 186.5t34.5 193.5q39 221 84 473q0 4 4 8q2 2 6 2h975q2 0 6 -2q8 -4 10 -8q2 -19 2 -38q0 -47 -14 -93q-16 -53 -61.5 -111.5t-141.5 -95.5q-63 -25 -132 -27q-29 -1 -57 -2q-37 0 -71 3q-68 6 -135 22 q-6 -35 -19.5 -104.5t-27.5 -153.5h333q2 0 7 -2q6 -6 4 -10l-39 -217q-2 -4 -8 -9q-4 -2 -9 -2h-333l-31 -182q-9 -60 -9 -104q0 -15 1 -27q4 -51 15 -81t26.5 -44t29 -21.5t19.5 -13.5t-2 -20q-14 -29 -46 -57.5t-74 -53t-90 -40t-93 -15.5q-61 0 -114.5 20.5t-88.5 63.5 t-48 111z" />
<glyph unicode="G" horiz-adv-x="1345" d="M29 741q27 154 103.5 293.5t189 245.5t256 169.5t305.5 63.5q8 0 17 1q113 0 202 -26q96 -28 159.5 -78t91.5 -120q18 -46 18 -97q0 -27 -5 -54q-6 -41 -28.5 -83t-57.5 -76t-81 -55.5t-101 -21.5q-70 0 -113 22q-36 18 -36 42q0 5 1 10q16 49 22 99q2 17 1 33 q0 31 -6 57q-10 40 -39 64.5t-80 24.5q-70 0 -130.5 -53t-106.5 -133t-75.5 -173t-37.5 -171q-4 -29 -5 -76q0 -7 -1 -13q0 -41 6 -86q6 -52 24.5 -104.5t54 -94.5t93.5 -67q49 -22 120 -22h23q23 86 28 142q3 31 3 57q0 20 -2 36q-4 36 -14.5 54t-19.5 29.5t-13 19.5t4 23 q12 25 40.5 50t65.5 46.5t81 35t87 13.5q125 0 181 -83q38 -56 39 -141q0 -40 -9 -87q0 -8 -6 -38t-15.5 -72t-21.5 -90t-24 -91q-4 -18 -17 -25q-23 -14 -72 -44.5t-122.5 -61.5t-174 -54.5t-225.5 -23.5q-154 0 -273.5 62.5t-196.5 170t-106 249.5q-15 72 -15 150 q0 74 14 152z" />
<glyph unicode="H" horiz-adv-x="1406" d="M80 569q18 104 36.5 206t32 179.5t22.5 126.5l9 49q3 32 3 58q0 48 -10 76q-15 41 -35.5 58t-35 23.5t-4.5 24.5q12 25 44 52.5t74 49t89 36t92 14.5q57 0 107.5 -18.5t84.5 -58.5t46 -103q6 -29 6 -63q0 -40 -8 -87q-4 -23 -11.5 -60.5t-15.5 -78.5t-15 -83t-13 -75h356 l94 557q0 2 6 8q2 2 6 2h426q2 0 4 -2q4 -4 3 -8l-256 -1442q-2 -4 -7 -8q-2 -2 -6 -2h-424q-2 0 -4 2q-4 4 -2 8l109 590h-361l-102 -590q-2 -4 -6 -8q-2 -2 -6 -2h-420q-2 0 -4 2q-3 3 -3 6q0 89 18 189.5t45.5 211.5t35.5 160z" />
<glyph unicode="I" horiz-adv-x="636" d="M63 432q31 178 52.5 301t35 200t20.5 118t10 56l3 15q3 31 3 56q0 50 -11 77q-16 41 -37.5 58.5t-36 23.5t-4.5 27q14 25 47 51.5t76 48t91 35.5t94 14q59 0 111 -18t87 -58t48 -102q6 -28 6 -60q0 -40 -9 -89q-8 -45 -20.5 -120t-28.5 -166t-33.5 -192.5t-36.5 -199.5 q-41 -233 -88 -498q-2 -4 -6 -8q-2 -2 -6 -2h-434q-2 0 -4 2q-3 3 -3 6q0 69 13.5 146.5t34 160.5t26.5 117z" />
<glyph unicode="J" horiz-adv-x="958" d="M-76 238q6 39 27.5 77.5t54.5 69.5t74 49.5t86 18.5q57 0 105 -13.5t53 -23.5q4 -16 -13.5 -51t-27.5 -95q-4 -23 -6.5 -45t3 -41.5t16.5 -32t36 -12.5q88 0 110 125q5 35 6 66q0 15 -2 28q-4 41 -11 81t-11 84q-1 13 -1 27q0 35 7 77l90 512q4 32 4 56q0 40 -10 63 q-16 38 -37.5 54.5t-37 23.5t-5.5 28q12 25 45 51.5t76 48t91 35.5t93 14q59 0 109.5 -18t83.5 -58t45 -102q6 -28 6 -62q0 -40 -8 -87q-4 -18 -8 -43t-14.5 -84.5t-30 -165t-50.5 -283.5q-31 -176 -87 -300t-133 -201.5t-172 -113.5t-208 -36q-98 0 -168.5 23.5 t-113.5 63.5t-60 89q-10 30 -10 62q0 21 4 41z" />
<glyph unicode="K" horiz-adv-x="1417" d="M70 432q31 178 52 301t34.5 200t20.5 118t10 56l3 15q3 31 3 56q0 50 -11 77q-16 41 -37.5 58.5t-36 23.5t-4.5 27q14 25 47 51.5t76 48t91.5 35.5t93.5 14q59 0 111 -18t87 -58t48 -102q6 -30 7 -65q0 -39 -8 -84l-59 -334q82 0 150.5 58.5t108.5 141.5t43 175v11 q0 85 -44 148q-8 10 11.5 32t56.5 43.5t86 36.5t100 15q63 0 112.5 -25.5t80 -68.5t42.5 -100q6 -30 5 -62q0 -29 -4 -59q-29 -158 -128.5 -266.5t-259.5 -183.5q0 -4 4.5 -37t17.5 -82t37.5 -107.5t62.5 -117t93.5 -108.5t131.5 -81q12 -4 -0.5 -42t-46 -82t-89 -84 t-129.5 -48q-32 -4 -62 -4q-71 0 -126 21q-78 30 -128 92.5t-75.5 154.5t-32.5 205q-2 20 -2 49t1 58.5t2 57.5t1 48q-14 -4 -30.5 -5t-28.5 -3l-110 -623q0 -4 -2.5 -5t-4.5 -3t-4 -2h-436q-2 0 -4 2q-3 3 -3 6q0 69 14 146.5t34.5 160.5t26.5 117z" />
<glyph unicode="L" horiz-adv-x="1083" d="M70 432q31 178 52 301t34.5 200t20.5 118t10 56l3 15q3 31 3 56q0 50 -11 77q-16 41 -37.5 58.5t-36 23.5t-4.5 27q14 25 47 51.5t76 48t91.5 35.5t93.5 14q59 0 111 -18t87 -58t48 -102q6 -30 7 -65q0 -39 -8 -84q-10 -55 -28.5 -157.5t-40 -225.5t-44 -251t-40.5 -233 h35q162 0 244.5 15.5t119.5 32t45 26.5t21 0q18 -16 27 -44q8 -23 8 -46v-10q-6 -106 -55.5 -176t-123 -110t-162.5 -51q-43 -5 -85 -5q-46 0 -91 6q-96 12 -211.5 27.5t-273.5 15.5q-2 0 -4 2q-3 3 -3 6q0 69 14 146.5t34.5 160.5t26.5 117z" />
<glyph unicode="M" horiz-adv-x="1722" d="M72 569q18 104 37.5 206t34 179.5t23.5 126.5l9 49q6 41 6 72q0 36 -8 58q-14 41 -34.5 59t-35 25.5t-4.5 25.5q14 25 49 52.5t82.5 49t100.5 36t104 14.5q74 0 124 -26t86 -68t62.5 -98t51.5 -118q27 -66 52.5 -135t43.5 -127q23 -68 41 -129l463 631q2 4 10 8q4 2 6 2 h396q4 0 6 -2q4 -4 2 -8l-248 -1442q-2 -4 -8 -8q-4 -2 -6 -2h-418q-4 0 -6 2q-4 4 -2 8l120 656l76 211q-6 -8 -27.5 -39t-52 -75t-68.5 -98.5t-77 -109.5q-90 -129 -203 -289q-6 -8 -29 -8h-57q-18 0 -21 1t-5 7l-228 617l6 -191l-108 -682q-2 -4 -6 -8q-2 -2 -6 -2h-431 q-4 0 -6 2q-3 3 -2 6q0 88 18.5 188.5t48 213t38.5 159.5z" />
<glyph unicode="N" horiz-adv-x="1425" d="M76 569q18 104 37.5 206t34 179.5t23.5 126.5l9 49q5 37 5 65q0 18 -2 32q-5 37 -16 59.5t-25.5 33.5t-26 18.5t-17.5 13.5t2 18q14 25 48 52.5t78 49t96.5 36t103.5 14.5q61 0 105 -20.5t79 -55.5t61.5 -82t55.5 -102q53 -129 111.5 -284t99.5 -302l14 196l92 582 q-2 2 5 8q2 2 6 2h426q2 0 4 -2q4 -4 4 -8l-260 -1444q0 -4 -2 -5t-4 -3q-4 -2 -6 -2h-377q-1 -1 -2 -1l-2 1q-4 0 -9 10l-284 854l-11 -170l-102 -684q-2 -4 -6 -8q-2 -2 -6 -2h-436q-4 0 -7 2q-3 3 -2 6q0 88 18.5 189t47 212.5t37.5 159.5z" />
<glyph unicode="O" horiz-adv-x="1454" d="M17 433q-13 69 -12 142q0 76 13 156q27 156 103 297t187.5 248.5t252.5 170t303 62.5t283 -62.5t194.5 -170t98.5 -248.5q12 -68 12 -139q0 -77 -14 -158q-29 -158 -101.5 -298t-183.5 -246.5t-253 -168t-308 -61.5q-162 0 -282 61.5t-193.5 168t-99.5 246.5zM465 547 q0 -96 17.5 -176t54 -132.5t94.5 -52.5q59 0 114.5 51.5t101.5 130t78.5 175t49.5 188.5q16 90 16 187.5t-17.5 177.5t-54 132t-94.5 52q-59 0 -113.5 -52t-100.5 -132t-79.5 -177.5t-50.5 -187.5q-16 -88 -16 -184z" />
<glyph unicode="P" horiz-adv-x="1204" d="M-25 147q-5 29 -5 64q0 46 10 100l198 1121q0 2 6 8q2 2 6 2q74 20 160 35q74 12 173 21q69 6 146 6q34 0 70 -1q117 -4 218.5 -35.5t171 -90t101.5 -144.5q19 -52 19 -115q0 -40 -8 -84q-14 -82 -59 -174t-135.5 -169t-232.5 -124q-121 -40 -288 -40q-29 0 -59 1 l-18 -98q-9 -64 -9 -110q0 -40 6 -67q14 -56 37 -78.5t40.5 -29t4.5 -26.5q-14 -29 -46.5 -57.5t-74.5 -53t-90.5 -40t-93.5 -15.5q-61 0 -113.5 20.5t-87.5 63t-47 110.5zM504 739q61 0 114.5 26t94.5 67.5t67.5 96t36.5 109.5q5 29 5 55.5t-5 51.5q-10 49 -38.5 83 t-73.5 48q-29 9 -64 9q-20 0 -41 -3z" />
<glyph unicode="Q" horiz-adv-x="1419" d="M45 435q-10 64 -10 132q0 80 14 166q27 156 99.5 297t180 247.5t246 169t299.5 62.5q162 0 280 -62.5t188.5 -169t92.5 -247.5q10 -63 9 -129q0 -82 -14 -168q-18 -109 -58.5 -211t-99 -192t-134 -162t-165.5 -119q16 -31 33.5 -48t42.5 -17q51 0 100 31.5t88 97.5 q12 20 27 18q8 -2 24.5 -14.5t32.5 -39t27 -68.5q6 -26 6 -59q0 -20 -2 -42q-6 -57 -35 -107.5t-70 -88.5t-92 -60.5t-102 -26.5q-16 -1 -31 -1q-66 0 -114 23q-58 28 -95 77t-57.5 112.5t-32.5 130.5q-29 -4 -58.5 -6t-62.5 -2q-162 0 -278.5 62.5t-186 168t-92.5 245.5z M487 465q0 -43 5 -74q56 15 101 16h6q48 -1 88 -14.5t72 -39t56 -58.5q25 35 47.5 87t43 112.5t34.5 123t25 115.5q16 90 20 187q1 21 1 42q0 72 -11 134q-14 80 -48 131t-93 51t-109.5 -51t-92.5 -131t-72 -176.5t-46 -186.5q-6 -37 -12 -83t-10.5 -94t-4.5 -91zM514 289 q20 -47 50 -74t77 -27q12 0 21 2q-23 53 -56 81q-24 20 -62 21q-14 0 -30 -3z" />
<glyph unicode="R" horiz-adv-x="1298" d="M59 698q23 129 45.5 256t40 228.5t28.5 168t13 79.5q0 2 7 8q2 2 6 2q74 20 159 35q74 12 173 21q69 6 146 6q34 0 71 -1q117 -4 217 -35.5t168.5 -90t100.5 -144.5q19 -52 19 -115q0 -40 -8 -84q-10 -59 -37.5 -122.5t-72.5 -124t-108.5 -110.5t-145.5 -81 q35 -139 116.5 -235.5t202.5 -155.5q8 -2 -4 -38t-45 -80t-86 -83t-127 -47q-31 -4 -59 -4q-84 0 -146 33q-82 43 -129 127t-61 200q-8 63 -8 131q0 58 6 119h-60q-18 -102 -34.5 -199.5t-30.5 -175.5l-31 -174q-2 -6 -6 -10q-2 -2 -4 -2h-428q-2 0 -4 2q-5 5 -5 8 q0 109 22 232.5t55.5 259.5t43.5 196zM518 772q61 0 112.5 23.5t91.5 62.5t65.5 91t35.5 108q5 30 6 57q0 76 -44 122q-45 48 -126 48q-24 0 -51 -4z" />
<glyph unicode="S" horiz-adv-x="1304" d="M-63 305q4 43 26.5 85t57 75t80.5 53.5t100 20.5q33 0 65.5 -6.5t59 -15.5t45 -18.5t22.5 -17.5q6 -10 -5 -38.5t-19 -67.5q-4 -23 -4 -43q0 -38 13 -67q19 -44 57 -66.5t86 -24.5h9q43 0 84 17q45 19 80 57.5t47 95.5q2 13 2 24q0 40 -21 70q-28 39 -79 70t-116.5 58.5 t-131.5 58.5q-59 29 -120.5 59.5t-110.5 75.5t-76 108q-18 43 -18 102q0 27 4 56q14 106 80.5 195.5t164 153t211 99t220.5 37.5q11 0 22 1q110 0 205 -19q104 -20 178 -66.5t110 -114.5q25 -47 24 -106q0 -27 -5 -55q-16 -104 -83.5 -168.5t-190.5 -64.5q-70 0 -115 17 t-51 32q-4 10 9 51t24 82q5 25 5 45q0 26 -9 48q-15 38 -46.5 57.5t-73.5 22.5q-7 1 -14 0q-35 0 -68 -12q-40 -15 -74 -48t-46 -85q-3 -17 -3 -33q0 -36 15 -68q23 -46 68 -82t104.5 -63.5t124.5 -47.5q74 -25 147.5 -60t130 -85t85.5 -121q18 -45 18 -99q0 -31 -6 -66 q-23 -127 -101.5 -213t-187 -138t-231.5 -74.5t-236 -22.5q-86 0 -186 15.5t-183 55.5t-134 107q-42 56 -41 138q0 16 2 34z" />
<glyph unicode="T" horiz-adv-x="1302" d="M89 1153q-2 11 -1 24q0 31 8 70q12 55 53 115.5t132 103.5q82 39 163 46q41 4 88.5 4t101.5 -4q108 -7 256 -21t361 -16h97q20 0 36 2q2 0 7 -2q6 -2 8 -9q1 -19 1 -37q0 -61 -16 -114q-16 -59 -61 -119.5t-141 -87.5q-37 -10 -85 -12q-24 -1 -47 -1t-44 1q-51 2 -101 8 l-110 -694q-9 -61 -9 -105q0 -38 7 -62q14 -52 35.5 -74t39 -28t6.5 -26q-12 -27 -44.5 -54.5t-75.5 -50t-92.5 -37t-94.5 -14.5q-61 0 -112.5 19.5t-86 60.5t-49.5 104q-7 30 -6 65q0 40 9 89l161 836h-43q-76 0 -148 -6q-93 -7 -186 -23q-4 -2 -10 4q-2 2 -2 6z" />
<glyph unicode="U" horiz-adv-x="1429" d="M111 500l2 2q2 14 9 52t15 89t18.5 108.5t19.5 110.5t17.5 96t12.5 68q13 75 12 125v14q-2 53 -14.5 85t-29.5 47.5t-32.5 22.5t-23.5 13t0 21q14 27 43.5 53.5t68.5 49t85 36.5t92 14q66 0 122 -22.5t95 -65.5t55 -103q9 -35 9 -74q0 -30 -5 -62q-4 -18 -13.5 -73.5 t-22.5 -130.5t-28.5 -161t-30 -167t-26.5 -148.5t-18 -104.5v-4q-4 -22 -4 -41q0 -31 10 -54q16 -38 48 -57.5t73 -19.5t78.5 18.5t67.5 57.5t40 98q8 43 20.5 111.5t27 150.5t29.5 173.5t32 179.5q37 207 77 444q0 4 7 10q2 2 4 2h450q2 0 4 -2q4 -4 4 -8q-10 -53 -24 -130 t-30.5 -164t-33 -179t-32 -180t-29.5 -165t-23 -130q-23 -137 -93 -239.5t-168.5 -172t-214 -103.5t-231.5 -35h-7q-112 0 -213 33q-104 34 -179 102.5t-110 169.5q-21 62 -21 136q0 49 9 103z" />
<glyph unicode="V" horiz-adv-x="1359" d="M31 578l2 6q2 6 7 33.5t14 83t26.5 152.5t44.5 242.5t63 356.5q0 6 9 10q4 2 6 4h442l4 -4q2 -2 2 -12q-33 -182 -63 -354q-12 -74 -26.5 -154t-29 -157.5t-26.5 -149.5t-23 -131q-10 -54 -10 -100q0 -54 14 -96q27 -77 107 -77q41 0 84 27t83 84t72.5 144t53.5 208 q24 137 24 234q0 36 -4 67q-12 113 -40.5 175.5t-57.5 91t-25 51.5q2 20 29 56t71 72t103.5 61.5t130.5 25.5q74 0 134.5 -37t96 -119t43.5 -210q1 -23 1 -47q0 -113 -27 -261q-29 -158 -86 -317.5t-154.5 -288.5t-239 -211t-335.5 -82q-115 0 -220.5 36t-181 111.5 t-111.5 193.5q-20 65 -20 145q0 64 13 137z" />
<glyph unicode="W" horiz-adv-x="2050" d="M22 335q-5 41 -5 84q0 73 14 150l155 883q0 6 7 12q2 2 6 2h438q2 0 6 -2q6 -6 4 -14l-182 -1038q-6 -32 -6 -59q0 -29 7 -51q13 -42 42 -61q23 -15 50 -16q7 0 15 1q37 5 73 31t64.5 74t41.5 115l178 1006q0 6 6 12q2 2 4 2h428q0 -2 2 -4t2 -12l-172 -979 q-11 -64 -11 -114q0 -43 8 -75q17 -71 97 -71q82 0 155 121t114 362q23 125 22.5 216t-12.5 154.5t-32.5 104.5t-39 69t-32 44t-9.5 31q2 20 29 56t71 72t103 61.5t131 25.5q74 0 134.5 -37t96 -119t42.5 -210q1 -23 2 -47q0 -113 -27 -261q-18 -104 -49 -211.5t-78 -207 t-110.5 -186.5t-147.5 -151.5t-189.5 -102.5t-234.5 -38t-230.5 45t-160.5 156q-41 -57 -91.5 -95t-105.5 -62t-113.5 -33t-115.5 -9q-119 0 -202 49t-131 132t-61 195z" />
<glyph unicode="X" horiz-adv-x="1449" d="M-74 281q8 80 52.5 157.5t114 145t163.5 122t205 85.5l-297 661q-2 2 0 6q4 8 14 8h518q4 0 11 -6q2 -4 4 -6l182 -543q82 45 108 116q24 63 24 124v14q-3 68 -24.5 122t-35.5 71q-4 6 6 28.5t37.5 49t76 50t119.5 30.5q17 1 34 1q56 0 103 -16q61 -20 102.5 -62 t60.5 -102q16 -49 16 -103v-24q-6 -80 -49.5 -159.5t-114 -148t-165.5 -124t-208 -88.5l320 -680q2 -4 2 -6q0 -4 -9 -4h-553q-6 0 -10 4q-2 2 -2 6l-190 541q-51 -35 -78 -75t-35 -82q-5 -26 -5 -50q0 -15 2 -31q5 -39 16.5 -72.5t25.5 -57t22 -33.5q6 -10 -11 -42t-54 -66 t-93.5 -60.5t-125.5 -26.5q-68 0 -122 25.5t-92 69.5t-56 104q-12 40 -11 84q-1 21 2 43z" />
<glyph unicode="Y" horiz-adv-x="1368" d="M117 1450q-2 8 4 12q2 2 6 4h491q4 0 7 -2q4 -4 6 -10l141 -625q82 98 125 203t61.5 192t20.5 146.5t4 67.5q2 23 41 44t94 32q43 9 92 9h26q62 -3 112.5 -30t77.5 -83q19 -39 20 -96q0 -25 -4 -54q-23 -127 -86.5 -228.5t-146.5 -181.5t-174 -141.5t-167 -108.5 l-30 -174q-9 -61 -10 -105q0 -15 1 -27q4 -50 15.5 -80t27 -44t28.5 -21.5t19.5 -13.5t-1.5 -20q-14 -29 -46 -57.5t-74 -51t-90.5 -38t-93.5 -15.5q-61 0 -114.5 19.5t-88 62.5t-47.5 109q-6 30 -6 66q0 44 9 97q16 102 28.5 169t22.5 138z" />
<glyph unicode="Z" horiz-adv-x="1251" d="M-76 10l51 289q4 12 8.5 21.5t16.5 23.5q29 29 88 96.5t134 151.5t156 173t150 159q39 39 87.5 72.5t91.5 60t72 42.5l30 15q-115 6 -209 6t-177 -6t-161 -18.5t-158 -26.5q-4 -2 -10 4q-2 2 -2 6l-4 43q-1 10 -1 21q0 36 10 81q13 58 55.5 121.5t132.5 106.5 q84 41 169 46q30 2 64 2q62 0 136 -6q116 -9 278 -24.5t397 -15.5q12 0 14 -10l-55 -297q-4 -16 -10 -27q-4 -6 -10 -10q-115 -123 -194 -209t-134 -147.5t-91 -102.5t-65.5 -73.5t-59.5 -63.5t-71 -68q-14 -14 -43.5 -34.5t-60.5 -40.5q-37 -23 -76 -52h219q150 0 232 15.5 t121.5 32t52 26.5t24.5 0q18 -16 27.5 -43.5t7.5 -56.5q-6 -106 -55 -176t-123 -110t-163 -51q-43 -5 -84 -5q-46 0 -91 6q-47 6 -135 13t-189.5 14.5t-204 11.5t-180.5 4q-2 0 -4 2q-6 4 -4 8z" />
<glyph unicode="[" horiz-adv-x="624" d="M-98 -358l319 1833l4 4q6 6 11 6h499q8 0 8 -4v-4l-30 -166v-4q0 -4 -6 -4h-48h-75q-43 0 -93.5 1t-101.5 1q-16 -86 -36.5 -208t-45 -260.5t-51.5 -284.5t-50.5 -282.5t-45 -255t-35.5 -202.5h315q8 0 9 -5v-2l-31 -165v-5q0 -4 -6 -4h-279q-102 0 -223 2q-8 -4 -8 5 q-2 2 0 4z" />
<glyph unicode="\" horiz-adv-x="833" d="M164 1473q-2 4 2 8q2 2 4 2h172q2 0 4 -2q6 -6 6 -8q80 -492 146 -885q27 -168 53.5 -331t48 -293t35.5 -216l16 -98q0 -8 -4 -8h-4h-174h-4q-6 0 -6 8q-4 18 -17.5 107t-35 221.5t-48 294t-53.5 327.5q-63 390 -141 873z" />
<glyph unicode="]" horiz-adv-x="595" d="M-125 -360l31 165v2q0 4 8 5h313q14 84 36 202.5t45.5 255t50 282.5t51 284.5t45 259.5t37.5 209q-51 0 -101.5 -1t-93.5 -1h-76h-47q-6 0 -6 4v4l31 166v4q0 4 8 4h500q2 0 8 -6q2 -2 2 -4l-322 -1833l-4 -4q-6 -6 -8 -5q-121 -2 -223 -2h-279q-6 0 -6 4v5z" />
<glyph unicode="_" horiz-adv-x="974" d="M35 -188l31 176l4 4q6 6 10 6h854q6 0 6 -4v-4l-31 -180q0 -2 -2 -5q-2 -2 -8 -2h-100h-127h-142h-143h-344q-8 0 -8 4q-2 3 0 5z" />
<glyph unicode="`" horiz-adv-x="557" d="M25 1505q-4 8 6 17q59 59 133 100t160 61q8 2 12 -4q6 -72 18.5 -128t34 -107t53 -99.5t74.5 -101.5q8 -8 0 -14q-23 -29 -46.5 -53.5t-53.5 -47.5q-6 -2 -17 2q-150 55 -239.5 148.5t-134.5 226.5z" />
<glyph unicode="a" horiz-adv-x="1263" d="M11 313q-3 33 -3 67q0 67 12 136q18 104 62.5 204.5t111 178.5t151.5 125t185 47q106 0 172 -54t99 -140q4 33 9 58.5t9 43.5q4 23 6 39q0 4 6 10q2 2 7 2h409q2 0 4 -2t2 -8q-29 -133 -51 -252q-20 -102 -39.5 -202.5t-29.5 -153.5q-13 -76 -14 -126q0 -54 11 -87 q10 -31 24.5 -44.5t26 -21.5t17.5 -13t-2 -20q-12 -25 -40 -50t-65.5 -46.5t-80.5 -35t-86 -13.5q-106 0 -171 61.5t-65 171.5q-72 -100 -164 -165.5t-200 -65.5q-96 0 -163 49t-104 128t-46 179zM446 321q12 -38 38 -59.5t63 -21.5t69.5 21.5t59 59t45 88t29.5 107.5 q9 52 9 99v10q-1 51 -13.5 89t-38 59.5t-62.5 21.5t-69.5 -21.5t-59.5 -59.5t-45 -89.5t-29 -108.5q-9 -52 -9 -98q0 -56 13 -97z" />
<glyph unicode="b" horiz-adv-x="1210" d="M61 719q23 133 45.5 263t41 233.5t30.5 170t15 76.5q0 2 4 6q2 0 4 2h397h4q4 0 4 -8q-20 -109 -47 -264.5t-61 -341.5q68 96 159 157.5t195 61.5q96 0 162.5 -49t103.5 -128t45 -179q3 -31 3 -62q0 -70 -13 -141q-18 -104 -62 -204.5t-110 -178.5t-151 -125t-185 -47 q-106 0 -171.5 54.5t-98.5 140.5q-6 -35 -10.5 -61.5t-8.5 -45.5l-6 -37q-2 -6 -6 -10q-2 -2 -6 -2h-393q-2 0 -4 2q-3 3 -3 6q0 113 22 240t56 269t45 202zM430 318q12 -38 38 -59t62 -21q37 0 70 21.5t59.5 59t45 89t28.5 108.5q9 52 9 98v10q-1 50 -13 88t-37.5 59.5 t-62.5 21.5t-70 -21.5t-59.5 -59.5t-45 -88.5t-28.5 -107.5q-9 -52 -9 -99q0 -58 13 -99z" />
<glyph unicode="c" horiz-adv-x="1067" d="M20 516q18 113 77 211t145 174t193.5 121t226.5 51q86 0 164.5 -17.5t137 -53t88.5 -89.5q21 -38 21 -85q0 -20 -4 -42q-6 -37 -26.5 -73.5t-52.5 -65.5t-71.5 -47t-84.5 -18q-51 0 -92.5 12t-45.5 22q-4 14 2.5 34t10.5 50q5 24 4 45q0 34 -13 58q-20 39 -63 39 q-41 0 -77 -30t-63.5 -77t-45 -104.5t-21.5 -114.5q-2 -26 -2 -50q0 -100 42 -154q52 -67 138 -81q31 -5 64 -5q59 0 124 17q101 26 187 72q18 12 29 2q10 -10 2 -32q-16 -33 -59.5 -88.5t-112 -108.5t-159.5 -92t-204 -39q-117 0 -211 44t-155.5 120t-86.5 177 q-14 56 -15 117q0 49 9 101z" />
<glyph unicode="d" horiz-adv-x="1243" d="M-44 313q-3 33 -3 67q0 67 12 136q18 104 62.5 204.5t109 178.5t149.5 125t187 47q106 0 172 -54t98 -140q23 119 41.5 225t32.5 186q16 94 31 174q0 2 6 8q2 2 6 3h410q2 -2 4 -3q2 -2 2 -6q-47 -256 -84 -473q-16 -92 -31.5 -184t-30 -171t-24.5 -137.5t-14 -84.5 q-14 -82 -14.5 -132.5t8 -81t20.5 -44t22.5 -21.5t15.5 -13t-3 -20q-12 -25 -40 -50t-66 -46.5t-81 -35t-86 -13.5q-106 0 -169.5 61.5t-67.5 171.5q-70 -102 -163 -167.5t-202 -65.5q-96 0 -161.5 49t-102.5 128t-46 179zM375 409q2 -50 15 -88t39 -59.5t63 -21.5 t69.5 21.5t58 59t44 88t28.5 107.5q9 52 10 99q0 57 -14 99q-12 38 -37.5 59.5t-62.5 21.5t-70 -21.5t-59.5 -59.5t-46 -89.5t-29.5 -108.5q-9 -48 -9 -90q1 -8 1 -17z" />
<glyph unicode="e" horiz-adv-x="1105" d="M20 516q18 113 78 213t150 177t205.5 122t248.5 45q125 0 210 -34.5t134.5 -88t65.5 -115.5q11 -42 11 -81q0 -19 -3 -37q-23 -121 -97.5 -191.5t-176 -103.5t-213.5 -35h-25q-99 0 -186 14q12 -78 65.5 -119.5t133.5 -52.5q26 -3 53 -3q58 0 125 15q98 22 200 74 q18 10 27 2q12 -10 2 -32q-14 -33 -60 -88.5t-118 -108.5t-166 -92t-207 -39q-117 0 -210 44t-154.5 120t-86.5 177q-14 56 -15 117q0 49 9 101zM436 582q29 -3 55 -3q96 0 156 35q76 45 90 129q2 10 2 20q0 29 -19 52q-23 27 -62 27h-11l-4 -2h-6q-25 -4 -51 -19 q-57 -31 -93.5 -97t-56.5 -142z" />
<glyph unicode="f" horiz-adv-x="837" d="M0 10q29 164 55 318q12 66 24.5 135t24 137t22.5 128t19 110h-114q-2 0 -4 2q-4 4 -2 8l30 174q0 4 2 4t4 2q2 0 5 2h116q18 139 71.5 233.5t127.5 152t162 82t176 24.5q92 0 158.5 -19.5t109.5 -52.5t61 -76q12 -29 11 -61q0 -15 -2 -31q-6 -37 -24.5 -69.5t-48.5 -58.5 t-66.5 -40t-79.5 -14q-53 0 -95.5 13t-46.5 24q-6 14 9.5 37.5t25.5 76.5q2 16 3 31q0 22 -6 42q-9 34 -56 34q-59 0 -84 -42t-28 -97q-1 -14 -1 -28q0 -41 7 -82q9 -54 16 -79h282q2 0 4 -2t2 -8l-30 -172q-2 -4 -6 -8q-2 -2 -5 -2h-272q-8 -43 -19.5 -109.5t-28.5 -165 t-42 -234.5t-55 -317q-2 -6 -6 -10q-2 -2 -5 -2h-395q-2 0 -4 2t-2 8z" />
<glyph unicode="g" horiz-adv-x="1220" d="M41 -215q-5 34 -5 57q0 28 7 39q12 20 29 19q18 -4 35.5 -29t50 -54.5t85 -53t138.5 -23.5q61 0 113.5 22.5t92.5 58.5t66.5 81t36.5 92q8 43 15.5 89t17.5 93q-68 -98 -161 -155.5t-200 -57.5q-96 0 -162.5 48t-103.5 126t-46 177q-3 33 -3 67q0 67 12 135 q18 104 62.5 204.5t110 178.5t150.5 125t187 47q106 0 173 -55t100 -144q6 35 10 62t8 45q4 23 6 39q0 2 6 8q2 2 5 2h395q2 0 4 -2t2 -8q-31 -186 -59 -359q-12 -74 -25.5 -150.5t-26 -148t-22.5 -135t-19 -110.5q-18 -133 -73.5 -245t-141.5 -192.5t-201.5 -126 t-256.5 -45.5q-113 0 -190 33t-124 78t-70.5 92t-27.5 76zM471 410q2 -49 15.5 -86t39 -57.5t62.5 -20.5t68.5 20.5t58 57t45 86t28.5 106.5q9 52 10 99q0 57 -15 99q-13 38 -37.5 59.5t-61.5 21.5t-70.5 -21.5t-59.5 -59.5t-45.5 -89.5t-29.5 -108.5q-9 -48 -8 -90v-16z " />
<glyph unicode="h" horiz-adv-x="1230" d="M53 653q20 125 43 252t41.5 237.5t32.5 195.5t23 126q0 2 4 6q2 0 4 3h403h4q2 0 2 -9q-20 -113 -46.5 -269.5t-61.5 -348.5q45 63 95 106t100.5 71t97.5 40t88 12q57 0 103 -23.5t77 -68.5t43 -107q6 -29 6 -61q0 -37 -8 -78q-6 -33 -11.5 -64.5t-11.5 -69.5t-14 -83 t-18 -102q-13 -72 -13 -119v-13q2 -50 14.5 -81t29 -44.5t29.5 -21.5t20 -14q4 -3 4 -9q0 -5 -3 -12q-12 -25 -40.5 -49t-66.5 -45.5t-81 -35t-86 -13.5q-61 0 -112.5 21.5t-85 61.5t-47.5 98q-7 30 -7 65q0 31 6 65q4 27 12.5 72t17.5 100.5t19.5 113.5t20.5 112q5 26 5 46 q0 39 -18 56q-17 16 -40 17q-14 0 -31 -7q-43 -16 -86 -73.5t-59 -147.5q-20 -115 -38 -215t-30 -174q-16 -88 -29 -160q-2 -6 -6 -10q-2 -2 -4 -2h-393q-2 0 -4 2q-3 3 -3 6q0 100 19 213t49.5 244t40.5 188z" />
<glyph unicode="i" horiz-adv-x="585" d="M-35 10q27 133 51 252l21 103q10 51 20.5 99t18.5 88t12 66q13 76 13 126q0 53 -10 87q-9 31 -24.5 44.5t-27.5 21.5t-18.5 13t-0.5 20q12 25 41 50.5t67 47t81 34.5t86 13q125 0 190 -83q47 -59 47 -149q0 -37 -8 -79q-6 -31 -14 -79t-19.5 -106.5t-22.5 -123 t-22 -127.5q-27 -147 -55 -316q0 -4 -6 -10q-2 -2 -4 -2h-408q-2 0 -4 2q-4 4 -4 8zM131 1321q6 39 31.5 74t62.5 60.5t83 40.5t95 15t90.5 -15t69 -40.5t39.5 -60.5q8 -23 8 -49q0 -13 -2 -25q-6 -41 -31.5 -75t-62.5 -60.5t-83 -41t-95 -14.5t-90 14.5t-68.5 41 t-40.5 60.5q-8 23 -8 48q0 13 2 27z" />
<glyph unicode="j" horiz-adv-x="626" d="M-401 -283q6 37 26.5 73t51 65.5t68.5 47t81 17.5q51 0 93 -13t46 -24q4 -12 -12 -46t-27 -87q-4 -20 -4 -41.5t5 -40t17.5 -30t35.5 -11.5q76 0 98 117q5 33 5 61q0 14 -1 26q-4 38 -10 75t-10 78q-1 9 0 19q0 34 8 79q0 6 7 48t25.5 145.5t50 282.5t80.5 460q0 4 7 10 q2 2 4 2h395q2 0 4 -2q4 -4 4 -8q-43 -252 -80 -455q-16 -86 -30.5 -171t-26.5 -154.5t-21.5 -115.5t-11.5 -58q-29 -164 -80 -280t-122.5 -188.5t-160.5 -105.5t-194 -33q-92 0 -156.5 22.5t-104.5 59.5t-54 83q-9 29 -9 59q0 17 3 34zM254 1321q6 39 31.5 74t62.5 60.5 t83 40.5t95 15t90 -15t69 -40.5t40 -60.5q8 -23 8 -49q0 -13 -2 -25q-6 -41 -31.5 -75t-62.5 -60.5t-83 -41t-95 -14.5t-90 14.5t-69 41t-40 60.5q-8 23 -8 48q0 13 2 27z" />
<glyph unicode="k" horiz-adv-x="1230" d="M53 653q20 125 43 252t41.5 237.5t32.5 195.5t23 126q0 4 2 4t4 2q2 0 4 3h401h4q2 0 2 -9q-20 -111 -45.5 -262t-60.5 -338q84 111 187.5 161t197.5 50q86 0 143.5 -39t82.5 -98q21 -49 21 -107v-23q-5 -71 -41 -135.5t-101.5 -113.5t-162.5 -63l-2 -4q14 -68 52 -134 q31 -55 86 -115.5t145 -107.5q23 -12 22 -24.5t-32 -42.5q-23 -20 -55.5 -40t-71.5 -36.5t-82 -26.5t-86 -10q-88 0 -147.5 27.5t-97.5 71.5t-56.5 100.5t-25.5 111.5q-6 43 -5 83v22q2 49 8 82q6 45 31 45q100 0 154.5 47t69.5 104q6 23 7 45q0 32 -14 60q-23 47 -74 47 q-47 0 -80.5 -20.5t-58 -52.5t-40 -71t-23.5 -73q-23 -117 -40.5 -221.5t-31.5 -182.5q-16 -92 -29 -168q-2 -6 -6 -10q-2 -2 -4 -2h-393q-2 0 -4 2q-3 3 -3 6q0 100 19 213t49.5 244t40.5 188z" />
<glyph unicode="l" horiz-adv-x="604" d="M-16 266q0 2 9 54.5t23.5 137.5t34 192.5t37.5 217.5q45 262 105 594q0 2 6 8q2 2 6 3h409q2 0 4 -3q3 -3 3 -5q0 -73 -14.5 -157.5t-37.5 -179.5t-30 -139l-33 -184q-16 -92 -29.5 -171t-25 -137.5t-15.5 -84.5q-13 -76 -13 -126q0 -54 11 -87q10 -31 24.5 -44.5 t27 -21.5t18.5 -13t0 -20q-12 -25 -44 -50t-72 -46.5t-86 -35t-89 -13.5q-125 0 -190 83q-47 59 -47 149q0 37 8 79z" />
<glyph unicode="m" horiz-adv-x="1865" d="M59 262l21 103q10 51 19.5 99t17.5 88t12 66q13 76 13 126v7q-1 50 -11 80.5t-24.5 44t-25.5 21.5t-17.5 13t2.5 20q12 25 39.5 50.5t64.5 47t80 34.5t86 13q109 0 173 -62.5t66 -172.5q86 129 188.5 182t182.5 53q98 0 161.5 -64.5t68.5 -179.5q88 135 191 189.5 t185 54.5q57 0 104.5 -23.5t78 -68.5t43.5 -107q6 -29 5 -61q0 -37 -7 -78q-6 -33 -11.5 -64.5t-11.5 -69.5t-14 -83t-19 -102q-13 -72 -12 -119v-13q2 -50 14.5 -81t28.5 -44.5t29.5 -21.5t20.5 -14q3 -3 4 -8q0 -5 -5 -13q-12 -25 -40.5 -49t-65.5 -45.5t-80 -35 t-86 -13.5q-61 0 -112.5 21.5t-85.5 61.5t-48 98q-8 31 -8 67q0 30 6 63q4 27 12 72t18.5 100.5t20.5 113.5t21 112q4 25 4 44q0 40 -18 58q-16 16 -36 17q-13 0 -28 -7q-39 -16 -79 -73.5t-56 -147.5l-6 -37q-10 -51 -21.5 -136t-24.5 -169q-14 -98 -28 -207q-2 -6 -6 -10 q-2 -2 -6 -2h-410q-2 0 -4 2q-4 4 -2 8q18 109 35 207q14 86 28.5 171t24.5 136q8 37 14 74t12 72q4 25 4 44q0 40 -17 58q-16 16 -37 17q-13 0 -27 -7q-39 -16 -79 -73.5t-57 -147.5q-16 -88 -32.5 -184t-30.5 -178q-16 -96 -33 -187q-2 -6 -6 -10q-2 -2 -6 -2h-410 q-2 0 -4 2q-3 3 -2 6q0 51 25 150t26 104z" />
<glyph unicode="n" horiz-adv-x="1273" d="M57 262l21 103q10 51 20.5 99t18.5 88t12 66q13 76 13 126v7q-1 50 -11 80.5t-24.5 44t-26.5 21.5t-18.5 13t1.5 20q12 25 40 50.5t65 47t80 34.5t86 13q109 0 174 -63.5t65 -175.5q45 66 96.5 111.5t102.5 74.5t99.5 41t89.5 12q57 0 104 -23.5t78 -68.5t43 -107 q6 -29 5 -61q0 -37 -7 -78q-6 -33 -11.5 -64.5t-12.5 -69.5t-15 -83t-19 -102q-12 -67 -11 -114v-18q3 -50 14.5 -81t28 -44.5t30.5 -21.5t21 -14q3 -3 4 -8q0 -5 -5 -13q-12 -25 -40.5 -49t-65.5 -45.5t-80 -35t-86 -13.5q-61 0 -112.5 21.5t-85 61.5t-48.5 98q-8 31 -8 67 q0 30 6 63q4 27 12.5 72t18.5 100.5t20.5 113.5t20.5 112q4 23 4 42q0 42 -20 60q-17 16 -39 17q-14 0 -30 -7q-42 -16 -85 -73.5t-60 -147.5q-16 -88 -32.5 -184t-30.5 -178q-16 -96 -33 -187q-2 -6 -6 -10q-2 -2 -6 -2h-410q-2 0 -4 2q-3 3 -3 6q0 38 9.5 82.5t23.5 96.5 t19 75z" />
<glyph unicode="o" horiz-adv-x="1187" d="M20 510q20 115 81 216t151 177t202.5 120t235.5 44t221.5 -44t162 -120t88.5 -177q14 -56 14 -117q0 -48 -9 -99q-20 -117 -80.5 -218.5t-149.5 -176t-202.5 -118.5t-238.5 -44q-123 0 -220.5 44t-161 118.5t-88.5 176.5q-14 56 -15 117q0 49 9 101zM412 386 q0 -58 12 -103t38.5 -72t72.5 -27q45 0 82.5 26t65.5 70t48.5 103t32.5 127q12 66 12 125t-12 103t-40 71t-73 27t-82 -27t-65.5 -71t-48 -103.5t-31.5 -124.5q-12 -66 -12 -124z" />
<glyph unicode="p" horiz-adv-x="1261" d="M49 37q16 92 31.5 185t30 172t24.5 138.5t15 85.5q14 82 14 132.5t-8.5 81t-20.5 44t-22.5 21.5t-15.5 13t3 20q12 25 40 50.5t66 47t81 34.5t86 13q106 0 170.5 -61.5t66.5 -171.5q72 102 164 167.5t201 65.5q96 0 162.5 -49t103.5 -128t45 -179q3 -31 3 -62 q0 -70 -13 -141q-18 -104 -62.5 -204.5t-110 -178.5t-150.5 -125t-185 -47q-106 0 -172 54.5t-98 140.5q-23 -117 -41.5 -223.5t-32.5 -190.5q-16 -98 -31 -180q-2 -6 -6 -11q-2 -2 -6 -2h-408q-2 0 -4 2q-3 3 -2 6q0 74 14.5 159.5t37.5 181t30 139.5zM553 318 q12 -38 37.5 -59t62.5 -21t70 21.5t59.5 59t45 89t28.5 108.5q9 52 9 98v10q-1 50 -13 88t-38 59.5t-62 21.5q-37 0 -70 -21.5t-59.5 -59.5t-45 -88.5t-28.5 -107.5q-9 -52 -9 -99q0 -58 13 -99z" />
<glyph unicode="q" horiz-adv-x="1196" d="M45 313q-3 31 -2 62q0 70 12 143q18 104 62.5 204.5t110 178.5t150.5 125t185 47q111 0 177.5 -59.5t99.5 -151.5q10 55 17 95t11 65q0 2 4 6q2 0 5 2h397h2q4 0 4 -8q-12 -74 -30.5 -176.5t-39 -219t-43 -240.5t-43.5 -243q-49 -279 -102 -581q-2 -4 -6 -8q-2 -2 -4 -3 h-396q-2 0 -4 3q-4 4 -2 8q12 76 29 170q14 80 32.5 189.5t43.5 244.5q-70 -96 -161 -151.5t-198 -55.5q-96 0 -162.5 48t-103.5 127t-45 179zM479 321q12 -38 38 -59.5t63 -21.5t69.5 21.5t59 59t45 89t28.5 108.5q9 52 10 98v10q-1 50 -13.5 88t-38 59.5t-62.5 21.5 t-70 -21.5t-59.5 -59.5t-45 -88.5t-28.5 -107.5q-9 -52 -9 -99q0 -57 13 -98z" />
<glyph unicode="r" horiz-adv-x="989" d="M53 260q10 49 20.5 101.5t20.5 99.5t18.5 88t12.5 67q13 76 13 126v7q-1 50 -11 80.5t-24.5 44t-27 21.5t-18.5 13t2 20q12 25 41 50.5t67 47t81 34.5t86 13q104 0 166.5 -58.5t66.5 -164.5q59 102 141.5 162.5t157.5 60.5q98 0 153 -59q39 -43 39 -113q0 -26 -5 -57 q-12 -63 -41 -112.5t-70 -83.5t-91 -51t-101 -17q-37 0 -64 15t-31 26q-8 14 -2 28.5t11 44.5q5 26 5 45q0 45 -32 45q-23 0 -39 -18t-29.5 -50t-23.5 -74t-19 -89q-16 -88 -32.5 -183.5t-30.5 -174.5q-16 -94 -33 -185q-2 -4 -6 -8q-2 -2 -4 -2h-412q-2 0 -4 2q-3 3 -3 6 q0 38 9 82t23.5 96t19.5 74z" />
<glyph unicode="s" horiz-adv-x="1050" d="M-31 219q14 76 77 131.5t153 55.5q51 0 97 -11.5t50 -23.5q8 -14 1 -35t-11 -49q-3 -17 -3 -31q0 -39 20 -62q28 -32 81 -32q57 0 87 25.5t40 66.5q1 9 2 16q0 26 -16 45q-20 25 -57 42.5t-87.5 33t-103.5 33.5q-49 18 -94 46t-77 66.5t-48 87.5q-10 30 -10 64q0 22 4 45 q2 2 2 6q14 80 67.5 142.5t128 104.5t160.5 64.5t164 22.5q90 0 174 -16.5t145.5 -49t95.5 -82.5q25 -37 24 -83q0 -17 -3 -35q-12 -74 -73.5 -126t-157.5 -52q-53 0 -94 13t-45 24q-6 12 0 32.5t12 51.5q3 20 3 36q0 81 -80 80h-7q-47 -2 -78 -34.5t-35 -61.5 q-2 -10 -1 -19q0 -25 11 -43q16 -26 49 -44.5t78 -33t95 -28.5q57 -18 113.5 -42.5t97.5 -62.5t61 -89q13 -32 13 -72q0 -24 -5 -49q-16 -92 -76.5 -156.5t-145.5 -103.5t-181.5 -56.5t-184.5 -17.5q-68 0 -148.5 13.5t-148 44t-107.5 81.5q-31 39 -31 93q0 16 3 34z" />
<glyph unicode="t" horiz-adv-x="778" d="M23 848l30 174q0 4 2 4t4 2q2 0 4 2h105q6 35 11 63.5t9 49.5q4 23 9 43q0 4 4 8q2 2 6 2l422 162q2 0 4 -2q4 -4 2 -8q-6 -43 -14 -95q-8 -43 -18.5 -100t-20.5 -123h249l3 -2q2 -2 2 -8l-31 -172q0 -4 -4 -8q-2 -2 -4 -2h-248q-12 -70 -25 -138l-22 -123 q-10 -56 -17.5 -99.5t-11.5 -65.5q-2 -10 -3 -17.5t-3 -15.5q-4 -18 -5 -33.5t-3 -32.5q0 -61 21.5 -89.5t53.5 -37.5q23 -6 48 -6q10 0 20 1q37 3 68 3q29 0 30.5 -16t-12.5 -37q-29 -41 -72 -76t-95 -59.5t-109.5 -37.5t-112.5 -13q-49 2 -94 13t-80 34q-57 39 -83 107 q-16 42 -16 95q0 34 7 72q6 33 17 94.5t24.5 140.5t29 166t31.5 171h-104q-2 0 -4 2q-4 4 -4 8z" />
<glyph unicode="u" d="M63 904q-4 3 -4 7.5t4 12.5q12 25 41 50t66 46.5t80 35t86 13.5q61 0 113.5 -21.5t86 -61.5t48.5 -98q8 -31 7 -67q0 -30 -5 -63q-4 -27 -12.5 -72t-18.5 -100.5t-20.5 -113.5t-20.5 -112q-4 -26 -4 -46q0 -39 15 -56t36 -17q12 0 27 6q39 15 79 68.5t58 139.5 q16 88 31.5 185t31.5 183q16 98 35 195q0 4 6 10q2 2 5 2h411q2 0 4 -2t2 -8q-31 -133 -53 -252q-23 -102 -41 -202.5t-29 -153.5q-13 -76 -13 -126q0 -54 11 -87q10 -31 24.5 -44.5t27 -21.5t17.5 -13t-1 -20q-12 -25 -41 -50t-65.5 -46.5t-79.5 -35t-86 -13.5 q-106 0 -171 62.5t-67 172.5q-88 -131 -189.5 -183t-183.5 -52q-57 0 -104 23.5t-78 68.5t-42 107q-5 27 -5 57q0 38 8 82q10 63 22.5 134t32.5 185q13 72 13 119v13q-2 50 -14.5 81t-29 44.5t-30 21.5t-21.5 13z" />
<glyph unicode="v" horiz-adv-x="1122" d="M20 410h3l2 2q10 53 26.5 153.5t34.5 202.5q20 119 45 252q0 2 6 8q2 2 4 2h396q2 0 4 -2t2 -10l-113 -631q-11 -67 -11 -111q0 -22 3 -37q8 -48 59 -49q33 0 68 17.5t66.5 56.5t57 100.5t42.5 149.5q15 80 14 139v15q-2 63 -14.5 106t-30.5 68.5t-34.5 41t-29 26 t-10.5 20.5q2 14 24.5 38.5t59.5 48t86 41t107 17.5q59 0 111.5 -24.5t86 -81t43.5 -147.5q3 -28 4 -61q0 -71 -16 -161q-8 -47 -27.5 -112.5t-55.5 -137t-87 -142.5t-122.5 -127t-165 -91t-212.5 -35h-12q-90 0 -174 25.5t-143.5 81t-87.5 141.5q-17 50 -17 112q-1 45 8 95 z" />
<glyph unicode="w" horiz-adv-x="1761" d="M12 317q0 45 8 86v7q2 2 3 4q4 27 11 66.5t15 87.5t16.5 100.5t18.5 101.5q20 117 45 250q0 2 6 8q2 2 4 2h400q2 0 4 -2q4 -4 4 -10q-20 -127 -43 -248q-18 -104 -39 -217t-35 -197q-4 -29 -4 -52q0 -51 18 -77q27 -37 68 -37t83 46.5t60 150.5l2 -2q0 6 1 12t1 13h3 l2 2q10 53 26.5 153.5t34.5 202.5q20 119 45 252q0 2 6 8q2 2 4 2h396q2 0 4 -2t2 -10l-113 -631q-11 -67 -11 -111q0 -22 3 -37q8 -48 59 -49q33 0 68 17.5t66.5 56.5t57 100.5t42.5 149.5q15 80 14 139v15q-2 63 -14.5 106t-30.5 68.5t-34.5 41t-29 26t-10.5 20.5 q2 14 24.5 38.5t59.5 48t86 41t107 17.5q59 0 111.5 -24.5t86 -81t43.5 -147.5q3 -28 4 -61q0 -71 -16 -161q-8 -47 -27.5 -112.5t-55.5 -137t-87 -142.5t-122.5 -127t-165 -91t-212.5 -35h-12q-109 0 -204 37t-154 114q-53 -59 -140.5 -105t-207.5 -46q-78 0 -143.5 26.5 t-111.5 73.5t-73 114.5t-27 147.5z" />
<glyph unicode="x" horiz-adv-x="1187" d="M-45 195q18 135 116.5 221t288.5 127l-249 477q-2 4 1 7t7 3h444q10 0 15 -10l167 -348q63 18 74 57q4 16 4 33q0 23 -8 47q-14 41 -35.5 73.5t-21.5 39.5q4 25 25.5 50t54 45.5t73.5 34t84 13.5q61 0 108.5 -19.5t77 -54.5t41.5 -81q7 -27 6 -55q0 -21 -3 -42 q-10 -59 -46 -108.5t-90.5 -87t-121 -66.5t-138.5 -43l263 -496q4 -12 -9 -12h-452q-12 0 -17 10l-165 355q-47 -12 -67 -35t-22 -50.5t8.5 -57t22.5 -55.5t22.5 -44.5t10.5 -22.5q-4 -25 -25.5 -51t-54.5 -46.5t-74 -34t-84 -13.5q-123 0 -184 67q-50 54 -50 134q0 19 3 39 z" />
<glyph unicode="y" horiz-adv-x="1218" d="M43 -88q12 20 29 18q18 -4 36.5 -29.5t50 -55t84 -54t138.5 -24.5q61 0 112.5 19t91.5 51t65.5 74t35.5 89t18.5 99.5t18.5 105.5q-43 -66 -91 -112t-97.5 -73.5t-96.5 -40t-88 -12.5q-57 0 -104 23.5t-78 68.5t-42 107q-5 27 -5 57q0 38 8 82q6 33 11 62.5t11.5 65.5 t13.5 79t17 100q13 72 13 119v13q-2 50 -14.5 81t-29 44.5t-29.5 21.5t-21.5 13t-0.5 20q12 25 41 50t66 46.5t80 35t86 13.5q61 0 112.5 -21.5t85 -61.5t47.5 -98q8 -31 8 -67q0 -30 -5 -63q-4 -27 -12.5 -70t-17.5 -95t-19.5 -109.5t-20.5 -110.5q-4 -25 -4 -45 q0 -41 17 -60q15 -16 36 -16q13 0 29 7q39 17 80 73.5t59 146.5q18 111 35.5 208t30.5 171q14 86 28 160q0 2 6 8q2 2 4 2h396q2 0 4 -2t2 -8q-29 -172 -55 -334q-12 -70 -24.5 -143.5t-25 -144t-23.5 -135t-20 -116.5q-18 -133 -72.5 -244.5t-140.5 -192.5t-201.5 -126 t-256.5 -45q-113 0 -190 33t-125 78t-70.5 92t-26.5 76q-6 38 -6 62t6 34z" />
<glyph unicode="z" horiz-adv-x="1015" d="M-53 8q4 66 10 117t25 117q16 55 75.5 116.5t137 120t160.5 107.5t145 80q43 23 88 40t90 33q-97 6 -184 7q-80 0 -151 -6q-148 -11 -282 -38q-2 -2 -8 5q-2 2 -2 4l-3 38q-1 8 -1 16q0 32 9 73q11 51 46 106t111 92q70 37 139 39q11 0 22 1q62 0 143 -10 q95 -11 228.5 -26.5t327.5 -15.5q10 0 10 -8q-10 -59 -17 -120.5t-28 -121.5q-16 -49 -59 -100t-104.5 -101.5t-138.5 -97.5t-158 -88l-103 -51q-53 -27 -110 -53h217q125 0 192.5 13t100 28.5t43 23.5t20.5 0q14 -14 21.5 -39.5t5.5 -48.5q-6 -94 -47 -156.5t-103.5 -97.5 t-136.5 -45q-37 -5 -73 -5t-70 5q-39 6 -111 12.5t-156 12.5t-168 10t-147 4q-2 -2 -4 0q-4 0 -4 3q0 2 2 5z" />
<glyph unicode="{" horiz-adv-x="434" d="M-6 96q0 6 2 13q4 12 4 18q45 166 47 282.5t-24 143.5q-16 16 -14.5 24.5t24.5 26.5q18 14 36.5 52t36 93.5t32 126t20.5 154.5q0 4 1 9t1 10q0 6 2 12q27 225 125 341t262 109q37 0 33 -18q2 -4 -5.5 -11t-17.5 -16q-35 -29 -69.5 -120t-49.5 -256q0 -4 -1 -9.5t-1 -9.5 v-12q-10 -86 -32.5 -165t-56.5 -142.5t-78 -108.5t-95 -63q45 -18 72.5 -63.5t39 -109t6.5 -142.5t-26 -165q0 -6 -2 -12q-4 -12 -4 -20q-45 -166 -44 -257.5t28 -119.5q6 -8 11 -14.5t3 -12.5q-4 -16 -41 -18q-166 -6 -222 110.5t-3 339.5z" />
<glyph unicode="|" horiz-adv-x="323" d="M-102 -350q2 12 17 99t38.5 221t53.5 300t61 338q70 401 159 905q0 2 6 9q2 2 5 2h176q2 0 4 -2t2 -9q-88 -496 -158 -892q-31 -170 -59.5 -336t-53 -300.5t-41 -225.5t-18.5 -109q-2 -8 -4 -8h-2h-178h-4q-6 0 -4 8z" />
<glyph unicode="}" horiz-adv-x="475" d="M-127 -336q-2 6 5 12.5t18 14.5q35 29 69.5 120t46.5 257q0 4 1 10t1 10v12q10 86 33 165t56.5 142.5t77.5 108.5t98 64q-47 18 -75 63t-39 108.5t-6 142.5t25 165q0 6 2 12q4 12 4 19q45 166 44 257t-27 119q-6 8 -11.5 15.5t-2.5 11.5q4 18 40 18q166 6 223.5 -109.5 t4.5 -340.5l-4 -12q-4 -12 -4 -19q-45 -166 -47.5 -281.5t24.5 -144.5q16 -18 14 -26.5t-24 -24.5q-18 -12 -38 -50t-36 -93.5t-30.5 -128t-20.5 -154.5q-2 -6 -2 -18q0 -6 -2 -13q-27 -223 -125 -339.5t-260 -110.5q-37 2 -33 18z" />
<glyph unicode="~" horiz-adv-x="1220" d="M65.5 466q-8.5 38 8.5 85q14 41 47 77t78 58.5t102 26.5t123 -17q55 -18 107.5 -51t104.5 -59.5t107.5 -38.5t120.5 12q35 12 60.5 32.5t43 39t28 33t16.5 16.5q29 6 58.5 -5t51 -38t28.5 -64.5t-9 -83.5q-14 -37 -42 -71.5t-70 -58t-98.5 -29.5t-129.5 12 q-59 14 -110.5 50t-102.5 65.5t-106.5 43t-123.5 -17.5q-35 -16 -59.5 -35.5t-41.5 -38t-28.5 -31.5t-15.5 -16q-31 -8 -62.5 3.5t-54 37t-31 63.5z" />
<glyph unicode="&#xa2;" horiz-adv-x="866" d="M20 516q14 82 55.5 155.5t101 132t135 98.5t159.5 54q2 25 3 48.5t3 39.5q2 20 2 39q0 4 2 4t4 3q2 0 4 2h138q2 0 4 -2q4 -4 4 -9q-6 -16 -12 -34q-4 -16 -11.5 -38t-11.5 -46q59 -6 113.5 -23.5t93.5 -46.5t57.5 -70t9.5 -92q-10 -59 -57 -108.5t-139 -55.5 q-43 -2 -76 9.5t-37 21.5t0 26.5t13 41.5q14 49 -2.5 69.5t-43.5 24.5q-37 2 -63.5 -17.5t-46 -55.5t-32.5 -81t-21 -90q-18 -111 12.5 -170t93 -75.5t147.5 6t175 77.5q6 4 12 5t10 -3q10 -10 2 -26q-10 -25 -40.5 -65t-79 -80t-114 -73.5t-145.5 -41.5q-4 -29 -6 -52.5 t-4 -42.5q-2 -23 -2 -41q0 -2 -6 -8q-2 -2 -4 -2h-137q-2 0 -4 2q-4 4 -3 11q4 20 13 43q4 20 11 43.5t13 50.5q-78 14 -138 54t-99 98.5t-54.5 132t-1.5 157.5z" />
<glyph unicode="&#xa3;" horiz-adv-x="999" d="M-41 10l51 299q0 2 2 4t6 4v2q90 35 138 89q-53 -4 -93 -8.5t-57 -6.5q-6 0 -6 4v4l20 140q-2 0 0 2q0 4 9 4q18 2 56 0t89 -6q-16 18 -35.5 36.5t-37 42t-25.5 56.5t0 80q16 92 71.5 153.5t132 98t166 51t175.5 14.5q66 0 142.5 -13t139 -44t99 -83t24.5 -128 q-14 -74 -77.5 -130.5t-151.5 -56.5q-51 0 -94.5 12.5t-47.5 24.5q-6 12 0.5 34t12.5 50q31 129 -76 129q-39 0 -62.5 -18.5t-35.5 -44.5q-14 -29 -14.5 -68t6 -76.5t15.5 -68.5t13 -45q41 2 76 4t61 6q31 4 56 6q8 0 8 -4v-4l-21 -137q0 -4 -2 -6q-4 -4 -10 -4q-29 2 -61 4 q-29 2 -67 3t-81 3q-29 -37 -75 -60.5t-101 -40.5q78 0 165 1t170 1h154h121q6 0 6 -4v-4l-53 -301q0 -2 -2 -4q-4 -4 -10 -4h-879q-4 0 -8 4q-2 2 -2 4z" />
<glyph unicode="&#xa8;" horiz-adv-x="903" d="M10 1307q6 37 27.5 68.5t53.5 56t72 38t81 13.5q86 0 136 -51.5t38 -124.5q-6 -37 -28.5 -69t-55.5 -56.5t-72 -38t-82 -13.5q-84 0 -133 51.5t-37 125.5zM487 1307q6 37 28 68.5t53.5 56t70.5 38t82 13.5q86 0 135 -51.5t37 -124.5q-6 -37 -28.5 -69t-54.5 -56.5 t-71 -38t-82 -13.5q-84 0 -134 51.5t-36 125.5z" />
<glyph unicode="&#xa9;" horiz-adv-x="1484" d="M74 518q25 137 98.5 258t179 212t236.5 143.5t268 52.5t249 -52.5t186.5 -143.5t106.5 -212t7 -258t-98.5 -258t-180 -212t-237.5 -143t-268 -52t-249 52t-186.5 143t-105.5 212t-6 258zM203 518q-20 -111 4 -209t84.5 -170.5t150.5 -114.5t201 -42t216.5 42t191.5 114.5 t145 171t80 208.5q18 111 -6.5 208t-85 171t-150.5 116t-200 42q-111 0 -216.5 -42t-191.5 -116t-145.5 -171t-77.5 -208zM365 516q14 76 54 144.5t99.5 121t134 84t154.5 35.5q59 0 115.5 -12t97.5 -38t62.5 -63.5t13.5 -87.5q-10 -51 -50 -93t-118 -46q-35 -4 -63.5 6.5 t-33.5 18.5q-4 10 0.5 23.5t10.5 33.5q12 43 0.5 75t-31.5 34q-33 2 -59.5 -19.5t-47 -56.5t-35 -78t-20.5 -82q-16 -94 12.5 -145.5t85 -64.5t131 5.5t152.5 65.5q14 8 21 2q6 -8 2 -23q-10 -23 -41 -60.5t-78 -74.5t-110.5 -63.5t-141.5 -26.5q-80 0 -144.5 29.5 t-107.5 82t-61 123t-4 150.5z" />
<glyph unicode="&#xab;" horiz-adv-x="862" d="M19.5 493.5q3.5 16.5 37.5 49.5l41 35q41 35 103.5 85t137.5 108t142 108q27 18 41.5 9t-2.5 -42q-18 -39 -47 -95.5t-56.5 -109.5t-48 -95t-26.5 -52q2 -10 8 -51.5t14.5 -95.5t17.5 -111.5t15 -96.5q4 -25 -12 -40t-41 7q-49 49 -102.5 107.5t-98.5 109t-74 85.5 l-30 34q-23 35 -19.5 51.5zM374 493.5q3 16.5 38 49.5l41 35q41 35 103 85t137 108t143 108q27 18 41 9t-3 -42q-20 -39 -47.5 -95.5t-55.5 -109.5t-48.5 -95t-26.5 -52q2 -10 8.5 -51.5t14.5 -95.5t17 -111.5t16 -96.5q4 -25 -12.5 -40t-41.5 7q-49 49 -102 107.5t-98 109 t-75 85.5l-30 34q-22 35 -19 51.5z" />
<glyph unicode="&#xad;" horiz-adv-x="753" d="M45 426q-2 2 0 4l31 176l4 4q6 6 10 6h608q6 0 7 -4v-4l-31 -180q0 -2 -2 -4t-8 -2q-84 -2 -189.5 -1t-200.5 1h-221q-8 0 -8 4z" />
<glyph unicode="&#xae;" horiz-adv-x="909" d="M20 838q14 90 62.5 168.5t118 138t154.5 93.5t175 34t163 -34t122 -93.5t68.5 -138t5.5 -168.5q-16 -90 -64.5 -169t-118 -138.5t-154.5 -93.5t-175 -34t-163 34t-121 93.5t-68.5 138.5t-4.5 169zM104 838q-12 -72 3.5 -136.5t54.5 -111.5t97 -75t132 -28q72 0 140.5 28 t125 75t96.5 111.5t52 136.5t-4.5 135t-55 111.5t-98 76t-131.5 27.5q-74 0 -142.5 -27.5t-123.5 -76t-94.5 -111.5t-51.5 -135zM195 625q20 115 36 206q6 39 13.5 77t12.5 69t9 51.5t4 24.5v4h2q35 4 72 8q33 4 75 7t85 3q39 0 78 -8t68.5 -26.5t45 -45t9.5 -63.5 q-10 -47 -48.5 -79t-85.5 -48q2 -6 9.5 -22.5t17.5 -36t24.5 -38t32.5 -30.5q8 -6 10.5 -12.5t-14.5 -18.5q-18 -16 -48 -31.5t-64 -15.5q-53 0 -77 25.5t-32 58.5t-7 63.5t1 43.5l-25 2q-6 -35 -13 -76t-17 -92q0 -2 -2 -4l-2 -3h-166q-2 0 -2 3q-2 0 -2 4zM412 866h39 q63 0 73 60q6 31 -9 44t-38 13q-10 0 -22.5 -1t-22.5 -3q-4 -18 -8 -45t-12 -68z" />
<glyph unicode="&#xb4;" horiz-adv-x="561" d="M-20 1229q-4 6 4 14q63 53 111 101.5t88 99.5t72 107.5t62 127.5q4 8 13 4q78 -20 137 -61t98 -100q8 -6 2 -17q-92 -133 -215 -226t-291 -149q-14 -4 -16 -2q-25 23 -39 47.5t-26 53.5z" />
<glyph unicode="&#xb8;" horiz-adv-x="542" d="M-13.5 -408.5q-9.5 23.5 3.5 25.5q2 2 26.5 -6t59.5 -15.5t76 -12.5t76.5 0t61 25.5t32.5 61.5q6 51 -66 68.5t-203 -14.5q-10 0 -6 8q10 14 38 54t59.5 84t58 83t37.5 51l6 6h2h26q6 0 7 -4v-2l-27 -151q98 12 159.5 -13.5t90 -72t24.5 -103.5t-38.5 -105t-99 -79 t-157.5 -25q-74 4 -125 28.5t-81.5 54.5t-40 53.5z" />
<glyph unicode="&#xbb;" horiz-adv-x="839" d="M-38 99.5q-11 15.5 1 39.5q20 39 49 96.5t56.5 111.5t49 95t25.5 52q-2 10 -9 52t-15 95t-16.5 109.5t-14.5 95.5q-4 33 13.5 42t37.5 -9q51 -49 105.5 -107.5t98.5 -109t73 -84.5l28 -35q10 -16 15.5 -27.5t3.5 -22t-11.5 -22.5t-25.5 -29l-41 -34q-41 -35 -103.5 -85.5 t-137 -108.5t-142.5 -108q-29 -22 -40 -6.5zM314.5 99.5q-11.5 15.5 0.5 39.5q20 39 50 96.5t58 111.5t49.5 95t25.5 52q-2 10 -9.5 52t-15.5 95t-16 109.5t-15 95.5q-4 33 13.5 42t38.5 -9q51 -49 105 -107.5t98 -109t73 -84.5l29 -35q10 -16 15 -27.5t3 -22t-11 -22.5 t-26 -29l-42 -34q-42 -35 -104.5 -85.5t-136 -108.5t-141.5 -108q-30 -22 -41.5 -6.5z" />
<glyph unicode="&#xe6;" horiz-adv-x="2322" d="M11 313.5q-9 100.5 9 202.5q18 104 62.5 204.5t111 178.5t151.5 125t185 47q106 0 172 -54t99 -140l24 141q0 4 6 10q2 2 7 2h407q2 0 4 -2t2 -8q-25 -133 -47 -250q-10 -49 -19 -101.5t-18.5 -100.5t-16.5 -90t-13 -68q-12 -63 -5 -98.5t24.5 -48.5t44 -7t54.5 27 q-29 113 -8 233q20 113 79.5 213t150 177t205 122t247.5 45q125 0 210 -34.5t134 -88t66.5 -116t7.5 -117.5q-23 -121 -97.5 -191.5t-176 -103.5t-214 -35t-210.5 14q12 -78 65 -119.5t133 -52t178.5 11t200.5 74.5q18 10 29 2q10 -10 0 -32q-14 -33 -60.5 -88.5 t-117 -108.5t-164.5 -92t-207 -39q-119 0 -213 45t-158 123q-80 -78 -170 -123t-227 -47q-57 0 -103.5 19.5t-79 53t-50 75.5t-17.5 85q-72 -100 -164 -165.5t-200 -65.5q-96 0 -163 49t-104 128t-46 179.5zM433 408.5q1 -50.5 13.5 -88t38 -59t62.5 -21.5t69.5 21.5t59 59 t45 88t29.5 107.5q10 57 9 108.5t-13.5 89.5t-38 59.5t-62.5 21.5t-69.5 -21.5t-59.5 -59.5t-45 -89.5t-29 -108.5q-10 -57 -9 -107.5zM1663 582q135 -12 211 32.5t90 128.5q8 41 -17.5 72t-72.5 27l-2 -2h-6q-27 -4 -54 -19q-55 -31 -92 -97t-57 -142z" />
<glyph unicode="&#x2c6;" horiz-adv-x="849" d="M-21.5 1140.5q-5.5 12.5 17.5 35.5l192 184q37 35 71 67.5t61.5 59t45.5 43.5l17 16q6 6 8 6h4h142q18 0 18 -8l11 -16q11 -16 28.5 -43t40 -60.5t45.5 -68.5q53 -82 123 -187q16 -29 -0.5 -38t-40.5 2q-47 16 -105.5 38.5t-111.5 45.5q-63 23 -127 49q-80 -27 -154 -49 q-63 -20 -132 -42t-114 -36q-34 -11 -39.5 1.5z" />
<glyph unicode="&#x2d8;" horiz-adv-x="878" d="M40 1454.5q-1 18.5 3 33.5t18 21q12 6 34 -15t64 -51t110.5 -54.5t176.5 -24.5q111 0 190 24.5t130 54.5t78.5 51.5t38.5 14.5q12 -6 11 -21t-9 -33.5t-19.5 -38t-21.5 -34.5q-39 -57 -90.5 -103t-108.5 -78t-117.5 -49t-119.5 -17t-113.5 17t-102 49t-83 78t-54.5 103 q-4 14 -9 34t-6 38.5z" />
<glyph unicode="&#x2da;" horiz-adv-x="550" d="M10 1382q8 51 38 97.5t72 81t94 54t108 19.5q55 0 100 -19.5t75.5 -54t43 -80.5t4.5 -98q-10 -53 -39 -99t-71 -80t-94 -54.5t-108 -20.5q-55 0 -100 20.5t-74.5 54.5t-43 80t-5.5 99zM178 1382q-10 -51 13.5 -85.5t64.5 -34.5t76 34.5t45 85.5q8 51 -15.5 83t-64.5 32 q-43 0 -77 -32t-42 -83z" />
<glyph unicode="&#x2dc;" horiz-adv-x="1052" d="M-12 1170.5q0 25.5 14 65.5t43 86t75 85t110.5 63.5t148.5 22.5q70 -2 124 -21.5t103 -41t99.5 -41t109.5 -21.5q49 -2 87 16.5t65.5 40t47 41t32.5 21.5q12 2 16 -26.5t-6 -71.5t-36 -92.5t-75 -90.5t-121.5 -64.5t-177.5 -13.5q-59 6 -112.5 28t-102.5 45.5t-95 42 t-89 20.5q-59 2 -100.5 -15.5t-70 -40t-47 -42t-30.5 -19.5q-12 -2 -12 23.5z" />
<glyph unicode="&#x2dd;" horiz-adv-x="1050" d="M-20 1229q-4 6 4 14q63 53 111 101.5t88 99.5t72 107.5t62 127.5q4 8 13 4q78 -20 137 -61t98 -100q8 -6 2 -17q-92 -133 -215 -226t-291 -149q-14 -4 -16 -2q-25 23 -39 47.5t-26 53.5zM469 1229q-4 6 4 14q63 53 112.5 101.5t89.5 99.5t71.5 107.5t62.5 127.5q4 8 12 4 q78 -20 137.5 -61t98.5 -100q8 -6 2 -17q-92 -133 -215 -226t-291 -149q-14 -4 -16 -2q-25 23 -40.5 47.5t-27.5 53.5z" />
<glyph unicode="&#x400;" horiz-adv-x="1110" d="M344 2009q-4 8 6 17q59 59 133 100t160 61q8 2 12 -4q6 -72 18.5 -128t34 -107t53 -99.5t74.5 -101.5q8 -8 0 -14q-23 -29 -46.5 -53.5t-53.5 -47.5q-6 -2 -17 2q-150 55 -239.5 148.5t-134.5 226.5zM21.5 305.5q-15.5 100.5 3.5 206.5l170 944q0 4 8 8q4 2 6 2h977 q2 0 6 -2q6 -2 8 -8q8 -70 -12 -133q-16 -55 -62.5 -112.5t-140.5 -92.5q-61 -23 -130 -25.5t-128 1.5q-68 6 -137 20q-2 -16 -7 -45t-12.5 -65.5t-15.5 -78.5t-14 -81h338q4 0 6 -2q4 -4 2 -8l-37 -205q0 -4 -2 -5t-4 -3l-6 -3h-338q-8 -41 -15 -73l-12 -74 q-10 -66 13.5 -107.5t66.5 -62t100.5 -25t116.5 5t115.5 28t95.5 40.5q35 20 44 4t-3 -53q-12 -39 -56 -98.5t-117 -114.5t-173.5 -94t-224.5 -39q-131 0 -221.5 47t-141.5 125t-66.5 178.5z" />
<glyph unicode="&#x401;" horiz-adv-x="1110" d="M-14.5 305.5q-14.5 100.5 4.5 206.5l166 944q0 4 8 8q4 2 6 2h977q2 0 6 -2q6 -2 8 -8q8 -70 -12 -133q-16 -55 -62.5 -112.5t-140.5 -92.5q-59 -23 -127.5 -25.5t-128.5 1.5q-68 6 -137 20q-4 -16 -9 -45t-11.5 -65.5t-14.5 -78.5t-14 -81h338q4 0 6 -2q4 -4 2 -8 l-37 -205q-2 -4 -8 -8l-6 -3h-338l-12 -73l-13 -74q-10 -66 12.5 -107.5t66.5 -62t101.5 -25t117 5t114.5 28t96 40.5q35 20 44 4t-3 -53q-12 -39 -56 -98.5t-117 -114.5t-173 -94t-225 -39q-131 0 -221.5 47t-141.5 125t-65.5 178.5zM248 1714q6 37 27.5 69t53 56.5 t70.5 37.5t82 13q86 0 135.5 -51t36.5 -125q-6 -37 -28.5 -68.5t-54 -56t-70.5 -38t-82 -13.5q-84 0 -134 51t-36 125zM725 1714q6 37 27.5 69t53.5 56.5t70.5 37.5t81.5 13q86 0 135.5 -51t36.5 -125q-6 -37 -28.5 -68.5t-54 -56t-70.5 -38t-82 -13.5q-84 0 -134 51 t-36 125z" />
<glyph unicode="&#x403;" horiz-adv-x="1036" d="M-14.5 149.5q-12.5 67.5 4.5 163.5q8 49 20.5 124t28.5 164t33.5 186.5t33.5 193.5q39 221 84 473q0 2 7 8q2 2 6 2q233 20 455.5 21.5t457.5 -21.5q2 0 6 -2q6 -2 8 -8q6 -68 -12 -129q-16 -53 -61 -109.5t-139 -93.5q-63 -25 -124 -27.5t-110 1.5q-57 6 -111 22 q-2 -16 -10 -61t-21.5 -127t-34 -204t-48.5 -294q-12 -80 -8 -131t16 -81t27.5 -44t29 -21.5t19.5 -13.5t-2 -20q-14 -29 -47 -57.5t-75 -53t-90 -40t-93 -15.5q-61 0 -114.5 20.5t-88.5 63.5t-47.5 110.5zM401 1616q-4 6 5 14q63 53 111 101.5t88 99.5t72 107.5t62 127.5 q4 8 13 5q78 -20 137 -61.5t98 -100.5q8 -6 2 -17q-92 -133 -215 -226t-291 -148q-14 -4 -16 -2q-25 23 -39.5 47t-26.5 53z" />
<glyph unicode="&#x404;" horiz-adv-x="1294" d="M20 739q27 154 104 292t189.5 244.5t256 170t302.5 63.5q121 2 217.5 -25.5t160 -77.5t91 -119.5t13.5 -151.5q-6 -41 -28.5 -82t-57.5 -75t-81 -55.5t-102 -21.5q-68 0 -110.5 21.5t-34.5 52.5q16 49 21.5 99t-5 89t-39 63.5t-79.5 24.5q-55 0 -108.5 -31.5t-97.5 -85 t-76 -126t-44 -152.5h326q4 0 6 -2q4 -4 2 -8l-39 -223q-2 -4 -8 -9q-4 -2 -6 -2h-324q-14 -82 -8 -154.5t30.5 -127t66.5 -86t97 -31.5q51 0 88 24.5t61.5 63.5t37 89t14.5 99q2 31 52 52.5t118 21.5q55 0 94 -21.5t61.5 -55t30 -74.5t0.5 -82q-14 -84 -66 -152.5 t-134 -119t-187.5 -78t-224.5 -25.5q-158 0 -277.5 63.5t-195.5 171t-105 249.5t-2 300z" />
<glyph unicode="&#x405;" horiz-adv-x="1304" d="M-63 305q4 43 26.5 85t57 75t80.5 53.5t100 20.5q33 0 65.5 -6.5t59 -15.5t45 -18.5t22.5 -17.5q6 -10 -5 -38.5t-19 -67.5q-10 -66 9 -110t57 -66.5t86 -24.5t93 17.5t80 57.5t47 95q8 55 -19.5 94t-78.5 70t-116.5 58.5t-131.5 58.5q-59 29 -120.5 59.5t-110.5 75.5 t-76 108.5t-14 157.5q14 106 80.5 195.5t164 153t211 99t220.5 37.5q123 2 227 -18t178 -66.5t109.5 -115t19.5 -160.5q-16 -104 -83.5 -168.5t-190.5 -64.5q-70 0 -115 17t-51 32q-4 10 9 51t24 82q12 55 -3.5 93t-47 57.5t-73.5 22.5t-82 -12.5t-74 -48t-46 -84.5 q-10 -55 12.5 -101t67.5 -82t104.5 -63.5t124.5 -47.5q74 -25 147.5 -60t130 -85t85 -120.5t12.5 -165.5q-23 -127 -101.5 -213t-187 -138t-231.5 -74.5t-236 -22.5q-86 0 -186 15.5t-183 55.5t-133 107.5t-40 171.5z" />
<glyph unicode="&#x406;" horiz-adv-x="636" d="M-10 10q43 244 73.5 422t52 301t35 200t20.5 118t10 56l3 15q8 92 -8 133t-37.5 58.5t-36 23.5t-4.5 27q14 25 47 51.5t76 48t91 35.5t94 14q59 0 111 -18t87 -58t48.5 -101.5t-3.5 -149.5q-8 -45 -20.5 -120t-28.5 -166t-33.5 -192.5t-36.5 -199.5q-41 -233 -88 -498 q-2 -4 -6 -8q-2 -2 -6 -2h-434q-2 0 -4 2q-4 4 -2 8z" />
<glyph unicode="&#x407;" horiz-adv-x="606" d="M-45 10q41 244 71.5 422t52 301t35 200t21.5 118l11 56l4 15q8 92 -8.5 133t-38 58.5t-37 23.5t-5.5 27q14 25 47 51.5t76 48t91.5 35.5t93.5 14q59 0 111 -18t87 -58t48.5 -101.5t-1.5 -149.5q-8 -45 -21 -120t-28.5 -166t-33 -192.5t-35.5 -199.5q-41 -233 -88 -498 q-2 -4 -7 -8q-2 -2 -6 -2h-434q-2 0 -4 2q-4 4 -2 8zM-2 1743q6 37 26.5 68.5t52.5 56t71.5 38t80.5 13.5q86 0 136.5 -51t37.5 -125q-6 -37 -28.5 -69t-54 -56.5t-70.5 -37.5t-82 -13q-41 0 -76 13t-57.5 37.5t-32.5 56.5t-4 69zM473 1743q6 37 27.5 68.5t53.5 56t71 38 t82 13.5q86 0 135 -51t37 -125q-6 -37 -28 -69t-53.5 -56.5t-70.5 -37.5t-82 -13q-84 0 -135 51t-37 125z" />
<glyph unicode="&#x408;" horiz-adv-x="958" d="M-76 238q6 39 27.5 77.5t54.5 69.5t74 49.5t86 18.5q57 0 105 -13.5t53 -23.5q4 -16 -13.5 -51t-27.5 -95q-4 -23 -6.5 -45t3 -41.5t16.5 -32t36 -12.5q88 0 110 125q8 53 4 94t-11 81t-11 84t6 104l90 512q10 82 -6 119.5t-37.5 54t-37 23.5t-5.5 28q12 25 45 51.5 t76 48t91 35.5t93 14q59 0 109.5 -18t83.5 -58t45 -101.5t-2 -149.5q-4 -18 -8 -43t-14.5 -84.5t-30 -165t-50.5 -283.5q-31 -176 -87 -300t-133 -201.5t-172 -113.5t-208 -36q-98 0 -168.5 23.5t-113.5 63.5t-59.5 89.5t-6.5 102.5z" />
<glyph unicode="&#x409;" horiz-adv-x="2168" d="M-115 158q2 14 29 35.5t70 70.5t97 134t113.5 224.5t119 342t110.5 487.5v2q0 4 2 4t4 2q2 0 4 2q119 31 259.5 48.5t281.5 17.5t275 -16.5t245 -49.5q2 0 4 -2q4 -4 2 -8l-84 -469q190 29 328.5 -3t224.5 -103.5t120 -173t15 -209.5q-20 -119 -77.5 -218.5t-149.5 -170 t-218 -110.5t-286 -40q-164 0 -265 54t-155.5 138t-65.5 186.5t7 201.5l119 684h-226q-20 -90 -45.5 -218.5t-62.5 -268.5t-87 -278.5t-117.5 -249t-157 -179t-203.5 -68.5q-61 0 -105.5 22.5t-74 55.5t-42 66.5t-8.5 56.5zM1316 338q5 -37 21.5 -66.5t43 -49t67.5 -19.5 q43 0 78 22.5t62.5 59.5t45 81t25.5 87q14 80 -1.5 141t-53 100t-96 53.5t-132.5 0.5l-59 -336q-6 -37 -1 -74z" />
<glyph unicode="&#x40a;" horiz-adv-x="2131" d="M-14 10q55 311 98 559q18 104 36.5 206t32 179.5t22.5 126.5l9 49q8 92 -8 133.5t-35.5 58.5t-34 23.5t-4.5 24.5q12 25 44 52.5t74 49t89 36t92 14.5q57 0 107.5 -18.5t84.5 -58.5t46 -102.5t-2 -150.5q-4 -23 -11.5 -60.5t-15.5 -78.5t-15 -83t-13 -75h338l92 557 q0 2 6 8q2 2 6 2h434q2 0 4 -2q4 -4 2 -8l-82 -469q188 29 326.5 -3t224.5 -103.5t120 -173t15 -209.5q-20 -119 -77.5 -218.5t-149.5 -170t-218 -110.5t-286 -40q-164 0 -265 54t-153.5 138t-62.5 186.5t6 201.5l10 65h-346l-102 -590q-2 -4 -6 -8q-2 -2 -6 -2h-420 q-2 0 -4 2q-4 4 -2 8zM1279 338q5 -37 21.5 -66.5t43 -49t67.5 -19.5q43 0 78 22.5t62.5 59.5t45 81t25.5 87q14 80 -1 141t-53 100t-96.5 53.5t-132.5 0.5l-59 -336q-6 -37 -1 -74z" />
<glyph unicode="&#x40c;" horiz-adv-x="1396" d="M1211 1741q-4 6 4 14q63 53 111 101.5t88 99.5t72 107.5t62 127.5q4 8 13 4q78 -20 137 -61t98 -100q8 -6 2 -17q-92 -133 -215 -226t-291 -149q-14 -4 -16 -2q-25 23 -39 47.5t-26 53.5zM-4 2q-2 2 0 8q41 244 72.5 422t53 301t35 200t20.5 118t10 56l3 15q8 92 -8 133 t-37.5 58.5t-36 23.5t-4.5 27q12 25 45 51.5t76 48t91.5 35.5t93.5 14q59 0 111 -18t87 -58t48.5 -101.5t-1.5 -149.5l-67 -328q12 6 33.5 8t31.5 6q18 117 65.5 226.5t118 197.5t165 145.5t210.5 71.5q70 8 126.5 -6t93 -49t50 -86t-6.5 -117q-23 -74 -63 -117.5t-88 -66 t-97 -27t-89 0t-64.5 14.5t-22.5 16q2 14 6 32.5t2 35t-12.5 27t-36.5 10.5q-31 0 -58.5 -23.5t-50 -62.5t-40 -91.5t-25.5 -109.5q51 0 84.5 -17.5t57 -50t39 -78t32.5 -96.5q10 -35 30.5 -100.5t52 -134t74.5 -126t101 -75.5q12 -4 -0.5 -42t-46 -82t-89 -84t-129.5 -48 q-152 -16 -237.5 43t-127.5 161.5t-49 230.5t-3 247q-10 4 -37 2t-39 -10l-96 -623q-2 -4 -7 -8q-2 -2 -6 -2h-440q-2 0 -4 2z" />
<glyph unicode="&#x40d;" horiz-adv-x="1439" d="M45 2013q-4 8 6 17q59 59 133 100t160 61q8 2 12 -4q6 -72 18.5 -128t34 -107t53 -99.5t74.5 -101.5q8 -8 0 -14q-23 -29 -46.5 -53.5t-53.5 -47.5q-6 -2 -17 2q-150 55 -239.5 148.5t-134.5 226.5zM-10 10q43 244 73.5 422t52 301t35 200t20.5 118t10 56l3 15 q8 92 -8 133t-37.5 58.5t-36 23.5t-4.5 27q14 25 47 51.5t76 48t91 35.5t94 14q59 0 111 -18t87 -58t48.5 -101.5t-3.5 -149.5l-71 -416l-50 -172l566 856l6 6l4 4h4h377q4 0 6 -2q4 -4 4 -8l-250 -1444q-2 -4 -6 -8q-2 -2 -6 -2h-426q-4 0 -6 2q-4 4 0 8l112 582l56 196 q-55 -78 -128 -184t-146.5 -215.5t-143.5 -210t-121 -168.5q-4 -4 -6 -5l-6 -3q-4 -2 -6 -2h-416q-2 0 -4 2q-4 4 -2 8z" />
<glyph unicode="&#x40e;" horiz-adv-x="1310" d="M35 250q12 111 89 171t187 60q33 0 64 -9t54.5 -24.5t35.5 -33t6 -31.5q-31 -55 -39 -98t1 -74t31.5 -47.5t53.5 -16.5q74 0 118 60.5t70.5 143.5t39 168t18.5 134q-61 -68 -135 -102.5t-147.5 -40.5t-140.5 17.5t-116 72.5t-73.5 124t-12.5 173l13 102q12 90 8 146.5 t-17.5 89.5t-32 49t-34 24.5t-24.5 14.5t-1 23q12 25 43 53t71 51t87 38t94 15q68 0 125 -23.5t96 -68.5t56.5 -107.5t7.5 -142.5l-33 -231q-10 -68 12.5 -102.5t57 -34.5t73.5 31.5t62 95.5q12 39 26.5 124.5t26.5 178.5q14 104 29 227q0 2 6 8q2 2 6 2h451q2 0 4 -2 q4 -4 4 -8q-39 -217 -79 -433t-81 -384q-72 -305 -252 -486.5t-440 -201.5q-109 -8 -199 5t-154.5 50t-96 99.5t-19.5 150.5zM335 1807q-1 42 14.5 81t44 72t65.5 53q39 23 79 30t75.5 -1t64.5 -30.5t45 -57.5q29 -57 14.5 -115.5t-61.5 -107.5q-14 -16 -14 -33t28 -29 q27 -12 55.5 -15t53 0t45 8t33.5 11q63 27 36 64q-29 49 -25.5 106.5t48.5 114.5q27 37 62.5 60.5t74.5 33.5t78 4t72 -26q61 -41 66 -121t-54 -164q-47 -68 -122 -114t-162 -71.5t-178 -27.5t-173 18.5t-147.5 64.5t-98.5 114q-18 36 -19 78z" />
<glyph unicode="&#x410;" horiz-adv-x="1411" d="M-121 2q-2 2 2 8q152 307 273 551q51 104 99 202.5t87 176.5t62 126l24 48q45 80 53 125t1 70.5t-17 39t0 31.5q14 31 49 56.5t80 44t94 30t94 11.5q55 0 107.5 -18.5t95.5 -58.5t75 -100.5t46 -144.5q8 -45 19.5 -120.5t24.5 -168t27.5 -195t26.5 -202.5 q31 -236 64 -504q0 -4 -4 -8q-2 -2 -5 -2h-462q-4 0 -7 2q-4 4 -4 8l-12 217h-362q-18 -49 -35 -89t-27 -68q-12 -35 -22 -60q-4 -4 -11 -8q-4 -2 -6 -2h-426q-2 0 -4 2zM514 504h240l-15 594q-25 -55 -52.5 -129t-57 -154t-59 -160.5t-56.5 -150.5z" />
<glyph unicode="&#x411;" horiz-adv-x="1308" d="M22.5 333.5q-12.5 102.5 4.5 201.5l163 923q0 2 7 8q2 2 6 2q274 29 546.5 28t538.5 -28q2 0 6 -2q6 -2 9 -8q8 -66 -11 -127q-16 -53 -61 -108.5t-141 -92.5q-61 -25 -148.5 -27.5t-165.5 1.5q-94 6 -190 22l-1 -5q-1 -5 -4 -23l-10 -56q-6 -37 -18 -100 q188 29 327.5 3.5t226.5 -90t122 -159t16 -202.5q-20 -119 -77.5 -218.5t-149.5 -170t-218 -110.5t-286 -40q-164 0 -266.5 54t-157.5 138t-67.5 186.5zM456 338q3 -37 16 -66.5t41 -49t75 -19.5q43 0 77.5 22.5t62.5 59.5t45.5 81t25.5 87q14 80 -2.5 133t-55.5 82.5 t-98 36t-133 -8.5l-51 -284q-6 -37 -3 -74z" />
<glyph unicode="&#x412;" horiz-adv-x="1320" d="M22.5 349.5q-10.5 105.5 6.5 201.5q8 47 22.5 131t31.5 182.5t35.5 199.5t33 183t23.5 134l9 53q2 8 6.5 10t6.5 2q70 16 155 31q74 12 176.5 22t227.5 10q98 0 197.5 -16t176 -58t117.5 -114t23 -180q-10 -53 -34 -102.5t-55.5 -89.5t-67.5 -67.5t-66 -39.5 q-14 -8 0 -13q63 -25 107 -64.5t68.5 -89.5t31 -106.5t-2.5 -109.5q-25 -135 -95.5 -230.5t-170.5 -157t-221 -89t-244 -27.5q-172 0 -276.5 56.5t-157.5 144.5t-63.5 193.5zM449.5 330q3.5 -37 18.5 -65.5t45 -46t79 -17.5q86 0 142.5 59t74.5 160q12 70 -7.5 123 t-62.5 84.5t-105.5 43t-135.5 -2.5q-4 -27 -11.5 -64t-13.5 -74.5t-12 -71.5t-10 -55q-5 -36 -1.5 -73zM537 893q72 0 126 18.5t91 48t58.5 68.5t27.5 80q12 70 -8.5 108.5t-57.5 56t-83 16.5t-85 -9q-6 -35 -15 -84t-18.5 -103.5t-19.5 -107.5t-16 -92z" />
<glyph unicode="&#x413;" horiz-adv-x="1028" d="M-14.5 149.5q-12.5 67.5 4.5 163.5q8 49 20.5 124t28.5 164t33.5 186.5t33.5 193.5q39 221 84 473q0 2 7 8q2 2 6 2q233 20 455.5 21.5t457.5 -21.5q2 0 6 -2q6 -2 8 -8q6 -68 -12 -129q-16 -53 -61 -109.5t-139 -93.5q-63 -25 -124 -27.5t-110 1.5q-57 6 -111 22 q-2 -16 -10 -61t-21.5 -127t-34 -204t-48.5 -294q-12 -80 -8 -131t16 -81t27.5 -44t29 -21.5t19.5 -13.5t-2 -20q-14 -29 -47 -57.5t-75 -53t-90 -40t-93 -15.5q-61 0 -114.5 20.5t-88.5 63.5t-47.5 110.5z" />
<glyph unicode="&#x414;" horiz-adv-x="1609" d="M-154 -350l109 610q0 6 8 10q6 4 35 23.5t72 66t96 126t108.5 209.5t107.5 314.5t95 440.5v2q0 4 2 4t4 2q2 0 4 2q119 31 259.5 48.5t281.5 17.5t275.5 -16.5t242.5 -49.5q2 0 4 -2q4 -4 2 -8l-202 -1141h190q2 0 4 -2t2 -10l-55 -320q-16 -96 -54 -163.5t-93.5 -110.5 t-127 -63.5t-155.5 -20.5q-10 0 -27.5 2t-35 6t-30 10.5t-10.5 14.5l62 348h-662q-2 -8 -5 -38t-5 -38q-25 -141 -133.5 -224t-277.5 -83q-10 0 -25.5 2t-31 6t-26 10.5t-8.5 14.5zM475 311l2 -2h430l160 910h-227q-23 -131 -55.5 -271.5t-76.5 -265.5t-101.5 -223.5 t-131.5 -145.5q-2 -2 0 -2z" />
<glyph unicode="&#x415;" horiz-adv-x="1110" d="M21.5 305.5q-15.5 100.5 3.5 206.5l170 944q0 4 8 8q4 2 6 2h977q2 0 6 -2q6 -2 8 -8q8 -70 -12 -133q-16 -55 -62.5 -112.5t-140.5 -92.5q-61 -23 -130 -25.5t-128 1.5q-68 6 -137 20q-2 -16 -7 -45t-12.5 -65.5t-15.5 -78.5t-14 -81h338q4 0 6 -2q4 -4 2 -8l-37 -205 q0 -4 -2 -5t-4 -3l-6 -3h-338q-8 -41 -15 -73l-12 -74q-10 -66 13.5 -107.5t66.5 -62t100.5 -25t116.5 5t115.5 28t95.5 40.5q35 20 44 4t-3 -53q-12 -39 -56 -98.5t-117 -114.5t-173.5 -94t-224.5 -39q-131 0 -221.5 47t-141.5 125t-66.5 178.5z" />
<glyph unicode="&#x416;" horiz-adv-x="2097" d="M-103 173q1 38 15 42q61 18 132 75.5t134.5 126t114.5 134t74 100.5q68 104 135 163.5t139 70.5q12 57 8 113.5t-19.5 99.5t-41 69.5t-56.5 26.5q-27 0 -42 -13.5t-23 -32t-12 -38.5t-6 -35q-2 -6 -31 -16t-70 -14.5t-88 0t-87 27t-65.5 66.5t-21.5 117q2 66 36 117 t86 85t116.5 48.5t130.5 7.5q111 -12 186.5 -73.5t117.5 -153.5t53 -202.5t-3 -219.5q10 -4 21.5 -6t21.5 -8l96 602q0 2 6 8q2 2 7 2h436q2 0 4 -2q4 -4 2 -8l-119 -602q12 6 26.5 8t26.5 6q23 109 75 219.5t127 202.5t172 153.5t212 73.5q70 6 128 -8t97 -48t53.5 -85 t-6.5 -117q-23 -74 -62.5 -117.5t-87.5 -66t-97.5 -27t-89 0t-64.5 14.5t-22 16q2 14 7 34.5t5 38t-12.5 30t-42.5 14.5q-31 2 -66 -24.5t-66.5 -69.5t-55 -99.5t-34.5 -113.5q70 -10 117 -69.5t78 -164.5q10 -35 37.5 -100.5t68.5 -134t91.5 -126t107.5 -75.5q12 -4 0 -42 t-46 -82t-89 -84t-129 -48q-98 -10 -171 11.5t-124 67.5t-83 113.5t-48.5 146.5t-19.5 167t6 176q-27 8 -56 -8l-98 -623q-2 -4 -6 -8q-2 -2 -6 -2h-437q-2 0 -4 2q-4 4 -2 8l121 623q-23 16 -55 8q-35 -133 -92.5 -262t-140.5 -227.5t-192.5 -153.5t-250.5 -39 q-72 8 -112 48t-58 84t-17 82z" />
<glyph unicode="&#x417;" horiz-adv-x="1269" d="M-51 326q18 104 91 167.5t183 63.5q66 0 114 -21.5t50 -39.5q0 -14 -8 -45t-17 -72q-16 -86 22 -140.5t97 -54.5q63 0 113.5 32t82.5 81t42 104.5t-6.5 104.5t-63.5 80.5t-129 31.5h-53q-2 0 -4 3l-4 4q-2 2 0 8q6 43 14 82q6 35 12 71l11 62q0 2 6 8q2 2 6 2h92 q72 0 122 30t78.5 75t35 98t-8 98t-50.5 75t-93 30q-66 0 -126 -47.5t-75 -133.5q-8 -43 -11 -74.5t-9 -41.5q-6 -8 -22.5 -19.5t-40 -20.5t-53.5 -16.5t-62 -7.5q-111 0 -161 65.5t-34 168.5q18 106 90 177.5t167 116t198.5 62.5t187.5 18q106 0 217 -20.5t195 -70.5 t126 -136t13 -215q-29 -137 -120 -211t-210 -102q57 -18 106.5 -47t83.5 -69t48 -95.5t2 -124.5q-23 -129 -100.5 -218t-183 -144.5t-226.5 -79t-227 -23.5q-84 0 -180.5 18.5t-175 61.5t-124.5 114t-28 177z" />
<glyph unicode="&#x418;" horiz-adv-x="1439" d="M-10 10q43 244 73.5 422t52 301t35 200t20.5 118t10 56l3 15q8 92 -8 133t-37.5 58.5t-36 23.5t-4.5 27q14 25 47 51.5t76 48t91 35.5t94 14q59 0 111 -18t87 -58t48.5 -101.5t-3.5 -149.5l-71 -416l-50 -172l566 856l6 6l4 4h4h377q4 0 6 -2q4 -4 4 -8l-250 -1444 q-2 -4 -6 -8q-2 -2 -6 -2h-426q-4 0 -6 2q-4 4 0 8l112 582l56 196q-55 -78 -128 -184t-146.5 -215.5t-143.5 -210t-121 -168.5q-4 -4 -6 -5l-6 -3q-4 -2 -6 -2h-416q-2 0 -4 2q-4 4 -2 8z" />
<glyph unicode="&#x419;" horiz-adv-x="1439" d="M-10 10q43 244 73.5 422t52 301t35 200t20.5 118t10 56l3 15q8 92 -8 133t-37.5 58.5t-36 23.5t-4.5 27q14 25 47 51.5t76 48t91 35.5t94 14q59 0 111 -18t87 -58t48.5 -101.5t-3.5 -149.5l-71 -416l-50 -172l566 856l6 6l4 4h4h377q4 0 6 -2q4 -4 4 -8l-250 -1444 q-2 -4 -6 -8q-2 -2 -6 -2h-426q-4 0 -6 2q-4 4 0 8l112 582l56 196q-55 -78 -128 -184t-146.5 -215.5t-143.5 -210t-121 -168.5q-4 -4 -6 -5l-6 -3q-4 -2 -6 -2h-416q-2 0 -4 2q-4 4 -2 8zM416 1784q0 41 15 80t44 71.5t68 53.5q39 23 80 28.5t76.5 -3.5t63.5 -31.5 t44 -59.5q25 -57 9.5 -115.5t-62.5 -107.5q-14 -16 -15.5 -32.5t27.5 -29.5q27 -12 55.5 -16t53 -2t45 7t32.5 11q61 27 39 64q-29 49 -24.5 106.5t51.5 114.5q27 37 63.5 59.5t74.5 31.5t77 3t70 -28q61 -41 65 -122t-55 -163q-49 -68 -125 -113t-163 -68.5t-178 -23.5 t-172 21.5t-144.5 67.5t-96.5 116q-18 39 -18 80z" />
<glyph unicode="&#x41a;" horiz-adv-x="1396" d="M-4 2q-2 2 0 8q41 244 72.5 422t53 301t35 200t20.5 118t10 56l3 15q8 92 -8 133t-37.5 58.5t-36 23.5t-4.5 27q12 25 45 51.5t76 48t91.5 35.5t93.5 14q59 0 111 -18t87 -58t48.5 -101.5t-1.5 -149.5l-67 -328q12 6 33.5 8t31.5 6q18 117 65.5 226.5t118 197.5 t165 145.5t210.5 71.5q70 8 126.5 -6t93 -49t50 -86t-6.5 -117q-23 -74 -63 -117.5t-88 -66t-97 -27t-89 0t-64.5 14.5t-22.5 16q2 14 6 32.5t2 35t-12.5 27t-36.5 10.5q-31 0 -58.5 -23.5t-50 -62.5t-40 -91.5t-25.5 -109.5q51 0 84.5 -17.5t57 -50t39 -78t32.5 -96.5 q10 -35 30.5 -100.5t52 -134t74.5 -126t101 -75.5q12 -4 -0.5 -42t-46 -82t-89 -84t-129.5 -48q-152 -16 -237.5 43t-127.5 161.5t-49 230.5t-3 247q-10 4 -37 2t-39 -10l-96 -623q-2 -4 -7 -8q-2 -2 -6 -2h-440q-2 0 -4 2z" />
<glyph unicode="&#x41b;" horiz-adv-x="1462" d="M-94 158q2 14 28.5 35.5t69.5 70.5t98.5 134t114.5 224.5t118.5 342t110.5 487.5v2q0 2 5 6q2 0 4 2q121 31 260 48.5t280.5 17.5t275.5 -16.5t242 -49.5q2 0 5 -2q4 -4 4 -8l-258 -1442q0 -4 -2 -5t-5 -3q-2 -2 -4 -2h-424q-2 0 -4 2q-6 4 -4 8l213 1209h-227 q-20 -90 -46 -218.5t-61.5 -268.5t-86 -278.5t-118 -249t-156.5 -179t-204 -68.5q-61 0 -105 22.5t-74 55.5t-42 66.5t-8 56.5z" />
<glyph unicode="&#x41c;" horiz-adv-x="1726" d="M-33 10q57 311 105 559q18 104 37.5 206t34 179.5t23.5 126.5l9 49q12 88 -2 129t-34.5 59.5t-35 26t-4.5 25.5q14 25 49 52.5t82.5 49t100.5 36t104 14.5q74 0 124 -26t86 -68t62.5 -98t51.5 -118q27 -66 52.5 -135t43.5 -127q23 -68 41 -129l463 631q2 4 10 8q4 2 6 2 h396q4 0 6 -2q4 -4 2 -8l-248 -1442q-2 -4 -8 -8q-4 -2 -6 -2h-418q-4 0 -6 2q-4 4 -2 8l120 656l76 211q-6 -8 -27.5 -39t-52 -75t-68.5 -98.5t-77 -109.5q-90 -129 -203 -289q-6 -8 -29 -8h-57q-18 0 -21 1t-5 7l-228 617l6 -191l-108 -682q-2 -4 -6 -8q-2 -2 -6 -2h-431 q-4 0 -6 2q-4 4 -2 8z" />
<glyph unicode="&#x41d;" horiz-adv-x="1415" d="M-18 10q55 311 98 559q18 104 36.5 206t32 179.5t22.5 126.5l9 49q8 92 -7 133.5t-35.5 58.5t-35 23.5t-4.5 24.5q12 25 44 52.5t74 49t89 36t92 14.5q57 0 107.5 -18.5t84.5 -58.5t46 -102.5t-2 -150.5q-4 -23 -11.5 -60.5t-15.5 -78.5t-15 -83t-13 -75h356l94 557 q0 2 6 8q2 2 6 2h426q2 0 4 -2q4 -4 3 -8l-256 -1442q-2 -4 -7 -8q-2 -2 -6 -2h-424q-2 0 -4 2q-4 4 -2 8l109 590h-361l-102 -590q-2 -4 -6 -8q-2 -2 -6 -2h-420q-2 0 -4 2q-4 4 -2 8z" />
<glyph unicode="&#x41e;" horiz-adv-x="1460" d="M17.5 433q-25.5 140 0.5 298q27 156 103 297t187.5 248.5t252.5 170t303 62.5t283 -62.5t194.5 -170t98 -248.5t-1.5 -297q-29 -158 -101.5 -298t-183.5 -246.5t-253 -168t-308 -61.5q-162 0 -282 61.5t-193.5 168t-99 246.5zM465 547q0 -96 17.5 -176t54 -132.5 t94.5 -52.5q59 0 114.5 51.5t101.5 130t78.5 175t49.5 188.5q16 90 16 187.5t-17.5 177.5t-54 132t-94.5 52q-59 0 -113.5 -52t-100.5 -132t-79.5 -177.5t-50.5 -187.5q-16 -88 -16 -184z" />
<glyph unicode="&#x41f;" horiz-adv-x="1378" d="M-68 10l250 1442q0 4 4 8q2 2 7 2q80 20 182 34.5t214.5 23t230.5 8.5t228.5 -7.5t208 -21.5t170.5 -37q2 0 5 -2q4 -4 2 -8l-256 -1442q-2 -4 -7 -8q-2 -2 -6 -2h-424q-2 0 -4 2q-4 4 -2 8l211 1204h-362l-211 -1204q0 -4 -2 -5t-4 -3t-5 -2h-421q-2 0 -4 2q-7 4 -5 8z " />
<glyph unicode="&#x420;" horiz-adv-x="1206" d="M-16.5 147.5q-12.5 67.5 4.5 163.5l198 1121q0 2 7 8q2 2 6 2q74 20 159 35q74 12 173.5 21t216.5 5t217 -35.5t169.5 -90t101.5 -144.5t11 -199q-14 -82 -59 -174t-135 -169t-231.5 -124t-346.5 -39l-18 -98q-16 -121 -2 -177t36.5 -78.5t40 -29t5.5 -26.5 q-14 -29 -47 -57.5t-75 -53t-90.5 -40t-93.5 -15.5q-61 0 -113 20.5t-87 63.5t-47.5 110.5zM512 739q61 0 113.5 26t93.5 67.5t67.5 96t36.5 109.5q10 57 0 106.5t-37.5 83.5t-72.5 48t-105 6z" />
<glyph unicode="&#x421;" horiz-adv-x="1325" d="M20 739q27 154 104 292t189.5 244.5t256 170t304.5 63.5q121 2 216.5 -25.5t159 -77.5t91 -119.5t13.5 -151.5q-6 -41 -28.5 -82t-57.5 -75t-81 -55.5t-102 -21.5q-68 0 -110.5 21.5t-34.5 52.5q16 49 21.5 99t-5 89t-39 63.5t-79.5 24.5q-70 0 -131.5 -53t-108.5 -133 t-75.5 -172t-33.5 -170q-8 -131 24 -222t88 -145.5t132 -75t159 -11t167 44t158 92.5q35 27 37.5 8t-13.5 -56q-8 -20 -28.5 -57t-57.5 -81t-88 -90t-120.5 -84t-155.5 -62.5t-193 -26.5q-154 -4 -272.5 59.5t-195.5 171t-107 250.5t-3 301z" />
<glyph unicode="&#x422;" horiz-adv-x="1302" d="M89 1153q-5 39 7.5 94.5t53 115.5t131.5 103q82 39 163.5 46.5t189 0t256 -21.5t361.5 -16h97q20 0 36 2q2 0 7 -2q6 -2 8 -9q6 -82 -15 -151q-16 -59 -61 -119.5t-141 -87.5q-37 -10 -85 -12t-89 0q-49 2 -99 8l-114 -694q-16 -115 -2 -167.5t35.5 -74t39 -27.5t6.5 -26 q-12 -27 -44.5 -54.5t-75.5 -50t-92.5 -37t-94.5 -14.5q-61 0 -112.5 19.5t-86 60.5t-49 104.5t2.5 153.5l153 836q-98 2 -187 -5.5t-182 -23.5q-4 -2 -10 4q-2 2 -2 6z" />
<glyph unicode="&#x423;" horiz-adv-x="1329" d="M86 250q12 111 90 171t189 60q33 0 63.5 -9t53 -24.5t34.5 -33t6 -31.5q-31 -55 -39 -98t1.5 -74t32 -47.5t52.5 -16.5q74 0 118 60.5t70.5 143.5t39 168t18.5 134q-61 -68 -135 -102.5t-147.5 -40.5t-140 17.5t-116 72.5t-74 124t-12.5 173l13 102q12 90 8 146.5 t-17.5 89.5t-32 49t-33.5 24.5t-24.5 14.5t-1.5 23q12 25 43 53t71 51t88 38t95 15q68 0 125.5 -23.5t95 -68.5t55 -107.5t7.5 -142.5l-33 -231q-10 -68 12.5 -102.5t57.5 -34.5t73.5 31.5t61.5 95.5q12 39 26.5 124.5t26.5 178.5q14 104 29 227q0 2 6 8q2 2 6 2h451 q2 0 4 -2q4 -4 4 -8q-39 -217 -78 -433t-80 -384q-37 -152 -101.5 -274.5t-153.5 -212t-199.5 -140.5t-239.5 -61q-109 -8 -199 5t-154.5 50t-96 99.5t-19.5 150.5z" />
<glyph unicode="&#x424;" horiz-adv-x="1730" d="M51 963q43 248 282.5 392t661.5 146h2h2h2q223 0 378 -37t247 -105.5t125 -168.5t10 -227q-20 -111 -73.5 -206t-143.5 -167t-217 -114t-293 -44q-23 -100 -9.5 -152.5t37 -80t43 -41t7.5 -33.5q-14 -29 -46 -57.5t-74 -53t-90 -40t-93 -15.5q-61 0 -114.5 20.5 t-88.5 63.5t-47 110.5t4 163.5l21 117q-162 0 -272.5 41t-175 112.5t-84 168t-1.5 207.5zM449.5 852q3.5 -51 23 -90t56 -63.5t94.5 -28.5l102 579q-117 -16 -182.5 -95t-85.5 -193q-11 -58 -7.5 -109zM1073 670q117 10 182.5 92t85.5 199q20 115 -17.5 193.5t-147.5 94.5z " />
<glyph unicode="&#x425;" horiz-adv-x="1456" d="M-68 281q8 80 52.5 157.5t114 145t163.5 122t205 85.5l-297 661q-2 2 0 6q4 8 14 8h518q4 0 11 -6q2 -4 4 -6l182 -543q82 45 108.5 116t23.5 138.5t-24.5 121.5t-35.5 71q-4 6 6 28.5t37.5 49t76 50t119.5 30.5q76 6 137.5 -14.5t102.5 -62.5t60.5 -101.5t15.5 -127.5 q-6 -80 -49 -159.5t-114 -148t-166 -124t-208 -88.5l320 -680q2 -4 2 -6q0 -4 -8 -4h-553q-6 0 -11 4q-2 2 -2 6l-190 541q-51 -35 -78 -75t-35 -82t-3 -81t16.5 -72.5t25.5 -57t23 -33.5q6 -10 -11.5 -42t-54.5 -66t-93 -60.5t-126 -26.5q-68 0 -122 25.5t-92 69.5 t-55.5 103.5t-9.5 127.5z" />
<glyph unicode="&#x426;" horiz-adv-x="1550" d="M14 27l201 1103q8 92 -8.5 133.5t-35.5 58.5t-34.5 23.5t-5.5 24.5q12 25 44 52.5t74 49t89 36t92 14.5q57 0 107.5 -18.5t84 -58.5t46 -102.5t-1.5 -150.5l-166 -924h342l211 1186q-2 2 4 8q2 2 4 2h424q2 0 4 -2q6 -6 6 -8l-209 -1186h189q2 0 4 -2t2 -10l-47 -279 q-33 -190 -146.5 -274t-281.5 -84q-10 0 -27.5 2t-35 6t-31 10.5t-11.5 14.5l57 321q-111 -12 -240.5 -16t-257.5 0t-243 19.5t-197 39.5q-2 0 -4 2q-4 5 -2 9z" />
<glyph unicode="&#x427;" horiz-adv-x="1454" d="M98 1323q-8 6 0 23q14 25 45 53t73 51t90 38t95 15q68 0 124.5 -23.5t94 -68.5t53 -107.5t1.5 -142.5l-53 -297q-10 -53 4 -83.5t42.5 -41t64.5 -1t71 37t63.5 70.5t38.5 100l90 502q0 4 6 10l5 4h438l4 -4q4 -4 4 -8q-4 -35 -27 -156q-10 -53 -23 -128.5t-31.5 -183.5 t-42 -249t-54.5 -323q-16 -115 -2 -167.5t35.5 -74t39 -27.5t5.5 -26q-12 -27 -47 -54.5t-79 -50t-94.5 -37t-95.5 -14.5q-61 0 -112.5 19.5t-87 60.5t-49 104.5t3.5 153.5l61 348q-57 -88 -136 -142t-163 -73.5t-165 -7.5t-139.5 58t-87 124t-7.5 187l36 208 q14 90 12.5 146.5t-15 89.5t-32 49t-34 24.5t-23.5 14.5z" />
<glyph unicode="&#x428;" horiz-adv-x="2011" d="M-12 27l200 1103q6 92 -9 133.5t-35.5 58.5t-35 23.5t-4.5 24.5q12 25 44 52.5t74 49t89 36t92 14.5q57 0 107.5 -18.5t84.5 -58.5t46 -102.5t-2 -150.5l-166 -928h256l209 1190q0 4 4 8q2 2 6 2h412q2 0 4 -2q4 -4 4 -8l-207 -1190h260l209 1190q0 4 4 8q2 2 6 2h424 q2 0 4 -2q4 -4 5 -8l-250 -1427q0 -4 -4 -9q-2 -2 -4 -2q-80 -20 -226.5 -34.5t-325 -22.5t-371 -8t-368.5 7t-316 21.5t-212 36.5q-2 0 -4 2q-6 5 -4 9z" />
<glyph unicode="&#x429;" horiz-adv-x="2154" d="M14 27l201 1103q8 92 -8.5 133.5t-35.5 58.5t-34.5 23.5t-5.5 24.5q12 25 44 52.5t74 49t89 36t92 14.5q57 0 107.5 -18.5t84 -58.5t46 -102.5t-1.5 -150.5l-166 -928h254l211 1190q-2 2 4 8q2 2 4 2h416q2 0 4 -2q6 -6 6 -8l-209 -1190h258l211 1190q-2 2 4 8q2 2 4 2 h424q2 0 4 -2q6 -6 6 -8l-209 -1186h187q2 0 4 -2t2 -10l-47 -279q-33 -190 -146.5 -274t-281.5 -84q-10 0 -27.5 2t-35 6t-31 10.5t-11.5 14.5l58 319q-121 -12 -265.5 -18t-297 -7t-302 3t-280.5 13t-235.5 22.5t-162.5 31.5q-2 0 -4 2q-4 5 -2 9z" />
<glyph unicode="&#x42a;" horiz-adv-x="1675" d="M91 1159q-5 39 7.5 92.5t53.5 112.5t131 102q63 31 131.5 38t149.5 4t180.5 -12t226.5 -9q29 0 29.5 -8.5t3.5 -10.5l-84 -485q190 29 328 -3t224.5 -103.5t120 -173t15.5 -209.5q-20 -119 -77.5 -218.5t-150 -170t-218.5 -110.5t-285 -40q-164 0 -267.5 54t-158 138 t-67.5 186.5t5 201.5l105 604q-98 2 -195.5 -5.5t-189.5 -23.5q-4 -2 -11 4q-2 2 -2 6zM818 338q5 -37 21.5 -66.5t43 -49t67.5 -19.5q43 0 78 22.5t62.5 59.5t45 81t25.5 87q14 80 -1 141t-53 100t-96.5 53.5t-131.5 0.5l-60 -336q-6 -37 -1 -74z" />
<glyph unicode="&#x42b;" horiz-adv-x="1867" d="M28.5 333.5q-12.5 102.5 4.5 201.5l160 917q0 4 4 8q2 2 6 2h436q2 0 4 -2q4 -4 4 -8l-84 -469q190 29 322.5 -3t211.5 -103.5t106.5 -173t8.5 -209.5q-20 -119 -76.5 -218.5t-144.5 -170t-206.5 -110.5t-264.5 -40q-164 0 -266 54t-157.5 138t-68 186.5zM459 338 q2 -37 14 -66.5t37 -49t65 -19.5q35 0 66 22.5t56.5 59.5t43 81t23.5 87q29 162 -32.5 242.5t-209.5 52.5l-59 -336q-6 -37 -4 -74zM1217 266q0 2 9 54.5t23.5 135.5t34 189.5t37.5 216.5q45 260 104 588q0 2 7 8q2 2 6 2h438q2 0 4 -2q4 -4 2 -8q-43 -248 -80 -457 q-16 -90 -30.5 -178t-27.5 -165t-23.5 -134t-14.5 -84q-14 -82 -13 -134t10 -84t23.5 -49.5t25.5 -26.5t16.5 -16t-1.5 -22q-12 -25 -44.5 -50t-74.5 -46.5t-89.5 -35t-90.5 -13.5q-61 0 -113 21.5t-87 61.5t-49 98t-2 130z" />
<glyph unicode="&#x42c;" horiz-adv-x="1310" d="M28.5 333.5q-12.5 102.5 4.5 201.5l160 917q0 4 4 8q2 2 6 2h436q2 0 4 -2q4 -4 4 -8l-84 -469q190 29 328.5 -3t224.5 -103.5t120 -173t15 -209.5q-20 -119 -77.5 -218.5t-149.5 -170t-218 -110.5t-286 -40q-164 0 -266 54t-157.5 138t-68 186.5zM462 338 q5 -37 21.5 -66.5t43 -49t67.5 -19.5q43 0 78 22.5t61.5 59.5t45 81t24.5 87q14 80 -0.5 141t-52 100t-96 53.5t-132.5 0.5l-59 -336q-6 -37 -1 -74z" />
<glyph unicode="&#x42d;" horiz-adv-x="1304" d="M-49 330q6 41 28.5 82t56.5 74.5t80 55t101 21.5q68 0 111 -21.5t34 -52.5q-16 -49 -21 -99t5 -89t39 -63.5t80 -24.5q55 0 107.5 31.5t96.5 86t75.5 127t46.5 154.5h-324q-4 0 -6 2q-6 4 -4 9l39 223q0 4 6 8q2 2 6 2h326q16 80 10 152.5t-31 126t-68 85t-98 31.5 q-51 0 -88 -24.5t-61.5 -63.5t-36.5 -89t-15 -99q-2 -31 -52 -52.5t-118 -21.5q-55 0 -94 21.5t-61.5 55.5t-29.5 75t-1 82q14 82 66.5 151.5t134.5 119.5t186.5 77.5t224.5 25.5q160 0 282 -63.5t196.5 -170t102.5 -244.5t1 -292q-29 -158 -106.5 -300t-191.5 -249.5 t-257 -171t-299 -63.5q-121 -2 -217 25.5t-158.5 78t-90 119t-13.5 152.5z" />
<glyph unicode="&#x42e;" horiz-adv-x="2072" d="M-14 10q55 311 98 559q18 104 36.5 206t32 179.5t22.5 126.5l9 49q8 92 -8 133.5t-35.5 58.5t-34 23.5t-4.5 24.5q12 25 44 52.5t74 49t89 36t92 14.5q57 0 107.5 -18.5t83.5 -58.5t46 -102.5t-3 -150.5q-4 -23 -11.5 -60.5t-14.5 -78.5t-14 -83t-13 -75h133 q39 129 113.5 240.5t176 194.5t227.5 131t265 48q162 0 278.5 -62.5t187.5 -170t92.5 -248.5t-5.5 -297q-29 -158 -99.5 -298t-177 -246.5t-245.5 -168t-305 -61.5q-145 0 -257 49t-185.5 136t-106.5 205t-17 253h-131l-102 -590q-2 -4 -6 -8q-2 -2 -6 -2h-420q-2 0 -4 2 q-4 4 -2 8zM1115 547q-3 -96 11.5 -176t47 -132.5t90.5 -52.5q59 0 111 51.5t94 130t72 175t46 188.5q16 90 19.5 187.5t-10 177.5t-48.5 132t-92 52q-59 0 -110.5 -52t-92.5 -132t-71.5 -177.5t-46.5 -187.5q-17 -88 -20 -184z" />
<glyph unicode="&#x42f;" horiz-adv-x="1308" d="M-102 165q0 36 8 38q141 59 257 155.5t199 235.5q-129 55 -186 170t-29 268q20 113 82 199t153 144.5t202.5 90t230.5 35.5q117 4 217.5 -5t173.5 -21q86 -14 158 -35q2 0 4 -2q4 -4 4 -8q-2 -12 -14 -79t-29.5 -168.5t-40 -228.5t-45.5 -256q-53 -305 -121 -686 q-2 -6 -6 -10q-2 -2 -6 -2h-430q-2 0 -4 2q-4 4 -2 10l31 174q14 78 30.5 175.5t34.5 199.5h-76q-35 -133 -90 -249.5t-132 -200.5t-175 -127t-217 -29q-72 8 -111 47t-55 83t-16 80zM571 1034q-8 -55 7.5 -104t47 -85t79 -55.5t102.5 -17.5l90 508q-55 8 -110.5 -6 t-100.5 -48t-76 -83.5t-39 -108.5z" />
<glyph unicode="&#x430;" horiz-adv-x="1263" d="M11 313.5q-9 100.5 9 202.5q18 104 62.5 204.5t111 178.5t151.5 125t185 47q106 0 172 -54t99 -140q4 33 9 58.5t9 43.5q4 23 6 39q0 4 6 10q2 2 7 2h409q2 0 4 -2t2 -8q-29 -133 -51 -252q-20 -102 -39.5 -202.5t-29.5 -153.5q-14 -82 -13.5 -132.5t11 -81t24.5 -44 t25.5 -21.5t17.5 -13t-2 -20q-12 -25 -40 -50t-65.5 -46.5t-80.5 -35t-86 -13.5q-106 0 -171 61.5t-65 171.5q-72 -100 -164 -165.5t-200 -65.5q-96 0 -163 49t-104 128t-46 179.5zM433 408.5q1 -50.5 13.5 -88t38 -59t62.5 -21.5t69.5 21.5t59 59t45 88t29.5 107.5 q10 57 9 108.5t-13.5 89.5t-38 59.5t-62.5 21.5t-69.5 -21.5t-59.5 -59.5t-45 -89.5t-29 -108.5q-10 -57 -9 -107.5z" />
<glyph unicode="&#x431;" horiz-adv-x="1124" d="M-23 479q12 119 38 248t75 247t128 213t198 146q104 45 185 61.5t139.5 26t95 22.5t53.5 52l13 27q5 10 22 12q115 18 176 -28t70.5 -116.5t-33.5 -146.5t-140 -119q-55 -25 -124.5 -32t-144.5 -12t-148.5 -17t-138 -48t-113.5 -103.5t-74 -184.5q25 51 63.5 94t88 75 t103.5 50.5t107 22.5q113 6 203 -28t147.5 -100.5t80 -161.5t2.5 -212q-20 -115 -73.5 -209t-135.5 -160.5t-189.5 -103.5t-234.5 -37q-119 0 -206 46t-141.5 121t-77 168t-14.5 187zM358 377q-4 -49 4.5 -90t31 -69t65.5 -28q47 0 78.5 27t53 68t34 90t20.5 92 q8 47 12.5 96t-4 90t-31 66.5t-67.5 25.5t-77 -26.5t-53.5 -67.5t-34.5 -90t-21 -94q-7 -41 -11 -90z" />
<glyph unicode="&#x432;" horiz-adv-x="1114" d="M40 252q-11 78 1 149v5q0 4 2 8q4 27 11 66.5t15.5 87.5t16.5 100.5t18 101.5q20 117 46 250q0 6 4 8t6 2q61 12 135 23q63 10 149 17t191 7q80 0 163 -12t146.5 -44t98 -84t20.5 -132q-14 -78 -64.5 -127t-101.5 -66q94 -31 138 -97t28 -165q-18 -98 -74.5 -172 t-138.5 -123t-181.5 -73.5t-201.5 -24.5q-141 0 -231.5 43t-137.5 108.5t-58 143.5zM440 283.5q2 -25.5 10.5 -46t27 -32.5t48.5 -12q59 0 98.5 40.5t49.5 108.5q10 59 -29 89t-106 30h-38q-22 0 -38 -2q-4 -35 -10.5 -66t-10.5 -59q-4 -25 -2 -50.5zM498 645h39 q61 0 99 27.5t48 81.5q6 33 -3 53t-25.5 30.5t-37 14.5t-38.5 4q-29 0 -48 -6q-8 -45 -16 -98.5t-18 -106.5z" />
<glyph unicode="&#x433;" horiz-adv-x="864" d="M20 268l130 752q4 10 12 10q18 2 57 8t90 10.5t112.5 8.5t127.5 4q139 0 235.5 -8.5t133.5 -16.5q16 -2 16 -20q2 -57 -16 -109q-16 -43 -56.5 -87t-120.5 -66q-31 -8 -64.5 -10.5t-64 -1.5t-55.5 3.5t-35 4.5l-59 -336q-14 -82 -13 -132.5t11 -81t24.5 -44t26.5 -21.5 t18.5 -13t-2.5 -20q-12 -25 -40.5 -50t-67.5 -46.5t-83 -35t-87 -13.5q-123 0 -189 83t-41 228z" />
<glyph unicode="&#x434;" horiz-adv-x="1355" d="M-109 -283q2 8 12.5 67.5t24 133.5t25.5 143.5t18 98.5v6q2 14 22.5 21.5t55.5 35t81 89t101 184.5q29 61 57.5 150t53.5 173q29 98 55 201q0 2 6 8q2 2 7 2q215 47 434 48t459 -48q6 0 4 -8t-9.5 -48t-18.5 -102.5t-24.5 -140.5t-28 -161t-29.5 -167t-28 -155h142l2 -2 q2 -2 2 -10l-39 -220l2 -2q-31 -174 -125 -250.5t-250 -76.5q-10 0 -25.5 2t-31 5t-25.5 9t-10 14q2 8 8 43t13.5 78t15.5 88t14 74h-514q-2 -8 -2 -16.5t-2 -16.5q-23 -129 -117 -204.5t-247 -75.5q-10 0 -25.5 2t-30 5t-24 9t-9.5 14zM530 248h228l25.5 144.5t26.5 154.5 t26.5 153.5t25.5 141.5h-153q-16 -63 -37 -138t-41.5 -148t-41 -138.5t-34.5 -108.5q-4 -16 -10.5 -31.5t-14.5 -29.5z" />
<glyph unicode="&#x435;" horiz-adv-x="1095" d="M20 516q18 113 78 213t150 177t205.5 122t248.5 45q125 0 210 -34.5t134.5 -88t65.5 -116t8 -117.5q-23 -121 -97.5 -191.5t-176 -103.5t-214 -35t-210.5 14q12 -78 65.5 -119.5t133 -52t178 11t200.5 74.5q18 10 27 2q12 -10 2 -32q-14 -33 -60 -88.5t-118 -108.5 t-166 -92t-207 -39q-117 0 -210 44t-154.5 120t-87 177t-5.5 218zM436 582q135 -12 211 32.5t90 128.5q8 41 -17.5 72t-72.5 27l-4 -2h-6q-25 -4 -51 -19q-57 -31 -93.5 -97t-56.5 -142z" />
<glyph unicode="&#x436;" horiz-adv-x="1828" d="M-82 110.5q4 12.5 33 24.5q90 41 145.5 93.5t93 107.5t68.5 108.5t70 94.5q43 45 94 68.5t117 13.5h2q-2 29 -4 58.5t-9.5 55t-25 42t-47.5 16.5q-29 0 -43.5 -13.5t-22.5 -33t-10 -39t-4 -31.5q-4 -23 -39 -35t-72 -12q-98 0 -150.5 56t-33.5 161q18 102 100 165.5 t195 63.5q102 0 166.5 -47t101.5 -118.5t50.5 -155.5t13.5 -156q4 -2 7 -3t7 -3q14 80 26.5 154.5t23.5 133t17.5 96.5t8.5 46q0 4 2 4t4 2q2 0 4 2h397h2q2 0 2 -8q-4 -25 -12 -69t-18.5 -100t-21.5 -123.5t-23 -137.5q4 2 8 3t8 3q14 55 56 136t106.5 157t149.5 130 t188 54q113 0 173 -63.5t42 -165.5q-18 -104 -92 -160.5t-173 -56.5q-37 0 -67.5 12t-26.5 35q2 12 7.5 31.5t4.5 38t-11.5 33t-39.5 14.5t-50 -16.5t-37.5 -42t-30 -56.5t-25.5 -60h-8q-4 0 -8 3q70 10 121 -13.5t79 -68.5q25 -41 35 -94.5t29.5 -108.5t57.5 -107.5 t116 -93.5q20 -12 19 -24.5t-31 -42.5q-41 -41 -117 -77t-162 -36q-106 0 -163.5 35t-86 87t-36 113.5t-11.5 114.5t-12 91t-39 42q-16 -86 -29.5 -161.5t-23.5 -135.5q-12 -68 -23 -129q-2 -4 -6 -8q-2 -2 -4 -2h-395q-2 0 -4 2q-4 4 -3 8q10 61 23 129q10 59 23.5 135 t29.5 162q-33 -2 -55.5 -39t-45 -90t-51 -115.5t-75.5 -115.5t-117.5 -88t-177.5 -35q-86 0 -147.5 36t-87.5 77q-23 30 -19 42.5z" />
<glyph unicode="&#x437;" horiz-adv-x="1024" d="M-31 221q14 76 75.5 131.5t148.5 55.5q51 0 95 -11.5t48 -23.5q8 -14 1 -35t-11 -49q-10 -61 14.5 -93t71.5 -32q57 0 93 36t44 79q4 18 3 42.5t-13.5 46t-37 36t-69.5 14.5h-47q-2 0 -4 2q-4 4 -2 8q4 41 12 78q4 31 10.5 62.5t10.5 49.5q0 4 2 4.5t4 2.5q2 0 4 2h72 q33 0 57 12t40.5 29.5t27 39t14.5 40.5q8 45 -10.5 80.5t-75.5 35.5q-51 0 -91 -31.5t-50 -93.5q-6 -31 -7.5 -51t-11.5 -33q-10 -12 -58 -24.5t-100 -12.5q-86 0 -129 56.5t-28 130.5q12 76 70.5 128t135 83t160.5 44t150 13q84 0 171 -14.5t152.5 -51t101.5 -98t19 -153.5 q-18 -102 -93 -153.5t-167 -72.5q45 -12 84 -32.5t65.5 -50t38 -68.5t3.5 -90q-16 -92 -76 -156.5t-142.5 -103.5t-177 -56.5t-178.5 -17.5q-66 0 -144.5 13.5t-144 44t-104.5 81.5t-27 127z" />
<glyph unicode="&#x438;" d="M63.5 904q-8.5 5 -0.5 20q12 25 41 50t66 46.5t80 35t86 13.5q61 0 113.5 -21.5t86 -61.5t48 -98.5t2.5 -129.5q-4 -27 -12.5 -72t-18.5 -100.5t-20.5 -113.5t-20.5 -112q-12 -76 11.5 -102.5t62.5 -11t79 69t58 139.5q16 88 31.5 185t31.5 183q16 98 35 195q0 4 6 10 q2 2 5 2h411q2 0 4 -2t2 -8q-31 -133 -53 -252q-23 -102 -41 -202.5t-29 -153.5q-14 -82 -13 -132.5t11.5 -81t24.5 -44t26.5 -21.5t17.5 -13t-1 -20q-12 -25 -41 -50t-65.5 -46.5t-79.5 -35t-86 -13.5q-106 0 -171 62.5t-67 172.5q-88 -131 -189.5 -183t-183.5 -52 q-57 0 -104 23.5t-78 68.5t-42 106.5t3 139.5q10 63 22.5 134t32.5 185q14 82 12.5 132.5t-14 81t-29 44t-29.5 21.5t-21.5 13z" />
<glyph unicode="&#x439;" d="M63.5 904q-8.5 5 -0.5 20q12 25 41 50t66 46.5t80 35t86 13.5q61 0 113.5 -21.5t86 -61.5t48 -98.5t2.5 -129.5q-4 -27 -12.5 -72t-18.5 -100.5t-20.5 -113.5t-20.5 -112q-12 -76 11.5 -102.5t62.5 -11t79 69t58 139.5q16 88 31.5 185t31.5 183q16 98 35 195q0 4 6 10 q2 2 5 2h411q2 0 4 -2t2 -8q-31 -133 -53 -252q-23 -102 -41 -202.5t-29 -153.5q-14 -82 -13 -132.5t11.5 -81t24.5 -44t26.5 -21.5t17.5 -13t-1 -20q-12 -25 -41 -50t-65.5 -46.5t-79.5 -35t-86 -13.5q-106 0 -171 62.5t-67 172.5q-88 -131 -189.5 -183t-183.5 -52 q-57 0 -104 23.5t-78 68.5t-42 106.5t3 139.5q10 63 22.5 134t32.5 185q14 82 12.5 132.5t-14 81t-29 44t-29.5 21.5t-21.5 13zM270 1395q0 41 15.5 79.5t44 71.5t67.5 53q39 23 80 29t77 -3t63.5 -31.5t44.5 -59.5q25 -57 9 -115.5t-63 -107.5q-14 -16 -15 -32.5t28 -29.5 q27 -12 55.5 -16t53 -2t45 7t32.5 11q61 27 39 64q-29 49 -25 106.5t51 114.5q27 37 64 59.5t75 31.5t76.5 3t69.5 -29q61 -41 65.5 -121.5t-55.5 -162.5q-49 -68 -124.5 -113t-162.5 -68.5t-178.5 -23.5t-172 21.5t-144 67.5t-96.5 116q-19 39 -19 80z" />
<glyph unicode="&#x43a;" horiz-adv-x="1232" d="M6 10q27 133 51 252l21 103q10 51 20.5 99t18.5 88t12 66q14 82 13 132.5t-11 81t-24.5 44t-26.5 21.5t-18.5 13t1.5 20q12 25 41 50.5t67 47t81 34.5t86 13q123 0 188.5 -83t40.5 -228q-4 -29 -12 -74t-18 -98q4 2 8 3t10 3q18 57 60 139t105.5 157t147.5 128t187 53 q113 0 172 -63.5t41 -165.5q-18 -104 -91 -160.5t-171 -56.5q-39 0 -70 12t-27 35q2 12 7.5 29.5t5.5 36t-9.5 31.5t-33.5 18q-29 4 -53.5 -12.5t-44 -43t-33 -58.5t-19.5 -59q72 10 114 -12t70 -67q23 -41 34 -94.5t30.5 -108.5t56.5 -107.5t115 -93.5q23 -12 20.5 -24.5 t-30.5 -42.5q-43 -41 -119 -77t-162 -36q-104 0 -162.5 35t-87 88t-35 114.5t-10.5 114.5t-13 90t-40 41q-14 -78 -27.5 -154.5t-23.5 -136.5q-12 -70 -25 -135q-2 -6 -6 -10q-2 -2 -4 -2h-412q-2 0 -4 2q-4 4 -2 8z" />
<glyph unicode="&#x43b;" horiz-adv-x="1230" d="M-63 100q2 14 18 24.5t46 41.5t74 95.5t99 187.5q29 61 57.5 157t55.5 189q29 109 59 225q2 10 10 10q215 47 437.5 48t459.5 -48h-2q6 0 4 -8q-2 -10 -10 -58.5t-21.5 -120t-28.5 -161.5t-32 -182q-37 -217 -86 -488q-2 -4 -6 -8q-2 -2 -4 -2h-395q-2 0 -4 2q-4 4 -2 8 q27 152 53 301q23 129 48.5 271.5t45.5 257.5h-145q-16 -63 -34 -138t-37 -148t-37.5 -138.5t-35.5 -108.5q-72 -197 -175 -274.5t-228 -77.5q-49 0 -85 16.5t-59.5 39t-33.5 47t-6 40.5z" />
<glyph unicode="&#x43c;" horiz-adv-x="1574" d="M-59 100q4 18 17 28.5t39 40.5t62.5 92.5t85.5 187.5q31 76 55.5 173t41.5 187q20 102 32 211q0 2 7 8q2 2 4 2h430q2 0 6 -4q2 -2 2 -4l117 -383h6l268 385l2 2q4 4 10 4h459q0 -2 2 -2q2 -2 2 -6q-2 -10 -9 -58.5t-19.5 -121t-26.5 -162.5t-29 -182q-35 -217 -78 -488 q-2 -4 -6 -8q-2 -2 -4 -2h-397q-2 0 -4 2q-4 4 -2 8q10 53 20 117q10 53 22.5 125t26.5 149l60 222l-367 -605q-4 -10 -9 -13t-19 -3h-52q-16 0 -22 16l-113 525q-12 -66 -25.5 -121t-23.5 -94q-61 -199 -160.5 -283t-222.5 -84q-49 0 -86 15.5t-60.5 38t-33.5 46t-8 39.5z " />
<glyph unicode="&#x43d;" horiz-adv-x="1251" d="M8 10q29 133 51 252l21 103q10 51 19.5 99t17.5 88t12 66q14 82 13 132.5t-11 81t-24.5 44t-26.5 21.5t-18.5 13t1.5 20q12 25 41 50.5t66 47t80 34.5t86 13q125 0 191.5 -83t41.5 -228q-4 -23 -9 -52.5t-13 -66.5h201q12 70 23 137.5t22 120.5q10 61 22 117q0 2 6 8 q2 2 6 2h394q2 0 4 -2t2 -8q-25 -133 -45 -250q-10 -49 -18.5 -101.5t-16.5 -100.5t-15.5 -88t-11.5 -66q-14 -82 -13 -132.5t10 -81t24.5 -44t27 -21.5t17.5 -14t0 -21q-12 -25 -40 -49t-65 -43.5t-80 -33t-86 -13.5q-125 0 -192.5 81t-40.5 226q0 2 7 40t18 98h-201 l-70 -394q-2 -6 -6 -10q-2 -2 -6 -2h-410q-2 0 -4 2q-4 4 -2 8z" />
<glyph unicode="&#x43e;" horiz-adv-x="1187" d="M20 510q20 115 81 216t151 177t202.5 120t235.5 44t221.5 -44t162 -120t89 -177t4.5 -216q-20 -117 -80.5 -218.5t-149.5 -176t-202.5 -118.5t-238.5 -44q-123 0 -220.5 44t-161 118.5t-89 176t-5.5 218.5zM412 386q0 -58 12 -103t38.5 -72t72.5 -27q45 0 82.5 26 t65.5 70t48.5 103t32.5 127q12 66 12 125t-12 103t-40 71t-73 27t-82 -27t-65.5 -71t-48 -103.5t-31.5 -124.5q-12 -66 -12 -124z" />
<glyph unicode="&#x43f;" horiz-adv-x="1177" d="M-33 12q47 270 84 488q16 92 31.5 182t29 161.5t21.5 120t10 58.5q0 4 2 4t5 2q2 0 4 2q115 23 251 35t276 12t272 -11t241 -36h2q2 0 2 -8q-6 -31 -16.5 -91.5t-23.5 -137t-29.5 -164.5t-30.5 -174q-37 -203 -78 -443q-2 -4 -6 -8q-2 -2 -4 -2h-396q-2 0 -4 2q-4 4 -2 8 q29 156 56 305q12 63 23 133t23.5 138.5t23.5 133t22 120.5h-230q-20 -115 -45.5 -257.5t-48.5 -271.5q-27 -150 -53 -301q-2 -4 -6 -8q-2 -2 -6 -2h-394q-2 0 -4 2q-4 4 -2 8z" />
<glyph unicode="&#x440;" horiz-adv-x="1261" d="M-33 -440q45 260 82 477q16 92 31.5 185t30 172t24.5 138.5t15 85.5q14 82 14 132.5t-8.5 81t-20.5 44t-22.5 21.5t-15.5 13t3 20q12 25 40 50.5t66 47t81 34.5t86 13q106 0 170.5 -61.5t66.5 -171.5q72 102 164 167.5t201 65.5q96 0 162.5 -49t103.5 -128t45 -179.5 t-10 -202.5q-18 -104 -62.5 -204.5t-110 -178.5t-150.5 -125t-185 -47q-106 0 -172 54.5t-98 140.5q-23 -117 -41.5 -223.5t-32.5 -190.5q-16 -98 -31 -180q-2 -6 -6 -11q-2 -2 -6 -2h-408q-2 0 -4 2q-4 5 -2 9zM540 407.5q1 -51.5 13 -89t37.5 -59t62.5 -21.5t70 21.5 t59.5 59t45 89t28.5 108.5t9 107.5t-13 88.5t-38 59.5t-62 21.5q-37 0 -70 -21.5t-59.5 -59.5t-45 -88.5t-28.5 -107.5t-9 -108.5z" />
<glyph unicode="&#x441;" horiz-adv-x="1067" d="M20 516q18 113 77 211t145 174t193.5 121t226.5 51q86 0 164.5 -17.5t137 -53t88 -89t17.5 -127.5q-6 -37 -26.5 -73.5t-52.5 -65.5t-71.5 -47t-84.5 -18q-51 0 -92.5 12t-45.5 22q-4 14 2.5 34t10.5 50q12 63 -8.5 102.5t-63.5 39.5q-41 0 -77 -30t-63.5 -77t-45 -104.5 t-21.5 -114.5q-12 -137 40 -203.5t138 -81t187.5 11t187.5 72.5q18 12 29 2q10 -10 2 -32q-16 -33 -59.5 -88.5t-112 -108.5t-159.5 -92t-204 -39q-117 0 -211 44t-155.5 120t-87 177t-5.5 218z" />
<glyph unicode="&#x442;" horiz-adv-x="1038" d="M57 780l35 230l4 14q0 4 4 8q156 29 321 34t304 0t237.5 -15.5t124.5 -14.5q16 -2 17 -20v-17q0 -8 -1 -19t-3 -24q-12 -76 -55.5 -119.5t-97.5 -64t-110.5 -22.5t-97.5 4h-2l-59 -338q-14 -82 -13 -132.5t11 -81t24.5 -44t26.5 -21.5t18.5 -13t-0.5 -20 q-12 -25 -40.5 -50t-66.5 -46.5t-82 -35t-87 -13.5q-123 0 -189.5 83t-39.5 228l88 500l-267 2q0 -2 -2 0q-6 0 -2 8z" />
<glyph unicode="&#x443;" horiz-adv-x="1218" d="M43 -180q-12 76 1 97.5t30 16.5q18 -4 35.5 -28.5t50.5 -54t85 -53t138 -23.5q61 0 113.5 22.5t92.5 58t66.5 81t36.5 92.5q8 47 16.5 99t18.5 105q-43 -66 -91 -111.5t-97.5 -73.5t-96.5 -40t-88 -12q-57 0 -104 23.5t-78 68.5t-42 106.5t3 139.5q6 33 10 58.5t9.5 55 t12.5 68.5t17 96q14 82 12.5 132.5t-14 81t-29 44t-29.5 21.5t-21.5 13t-0.5 20q12 25 40 50t66 46.5t81 35t86 13.5q61 0 112.5 -21.5t85 -61.5t47 -98.5t0.5 -129.5q-10 -53 -26.5 -151.5t-34.5 -205.5q-14 -78 11.5 -104.5t64.5 -9t80 74t59 146.5q18 111 34.5 204 t29.5 160q14 80 26 146q0 2 6 8q2 2 4 2h396q2 0 4 -2t2 -8l-55 -332q-12 -68 -24.5 -141.5t-25 -144t-23.5 -135t-20 -115.5q-18 -133 -72.5 -245t-140.5 -193t-201.5 -126t-256.5 -45q-113 0 -190 33t-125 78t-70.5 92t-26.5 76z" />
<glyph unicode="&#x444;" horiz-adv-x="1826" d="M43 313.5q-6 100.5 12 204.5t59.5 204.5t104 178.5t145 125t183.5 47q106 0 169.5 -55t94.5 -141q10 49 16.5 85.5t10.5 59.5q0 4 2 6q2 0 4 2h397h4q4 0 4 -8q-6 -33 -13 -71t-13 -79q66 90 149.5 146.5t181.5 56.5t162 -49t97.5 -128t40 -179.5t-12.5 -202.5 q-18 -104 -59 -204.5t-104.5 -178.5t-146.5 -125t-183 -47t-162 50t-92 128q-23 -123 -41.5 -227.5t-32.5 -181.5q-16 -92 -29 -168q-2 -6 -2 -8t-2 -3h-395q-4 0 -8 3q-6 2 -4 8q12 74 28 166q14 78 31.5 186.5t40.5 239.5q-66 -90 -151 -142.5t-187 -52.5q-98 0 -161.5 48 t-97.5 127t-40 179.5zM464 409.5q-1 -51.5 8 -89t31.5 -59t59.5 -21.5t68 21.5t54.5 59t39.5 89t27 108.5q10 57 11 107.5t-9.5 88.5t-33 59.5t-58.5 21.5q-37 0 -67 -21.5t-53.5 -59.5t-40 -88.5t-26.5 -107.5t-11 -108.5zM1134 407.5q-1 -51.5 8 -89t31.5 -59t59.5 -21.5 t67.5 21.5t54 59t40 89t26.5 108.5t11.5 107.5t-9 88.5t-33 59.5t-59.5 21.5t-66.5 -21.5t-53 -59.5t-40 -88.5t-26.5 -107.5t-11 -108.5z" />
<glyph unicode="&#x445;" horiz-adv-x="1181" d="M-45 195q18 135 116.5 221t288.5 127l-249 477q-2 4 1 7t7 3h444q10 0 15 -10l167 -348q63 18 73.5 57t-3.5 80t-35.5 73.5t-21.5 39.5q4 25 25.5 50t54 45.5t73.5 34t84 13.5q61 0 108.5 -19.5t77 -54.5t41 -81t3.5 -97q-10 -59 -46 -108.5t-90.5 -87t-121 -66.5 t-138.5 -43l263 -496q4 -12 -9 -12h-452q-12 0 -17 10l-165 355q-47 -12 -67 -35t-22 -50.5t8.5 -57t22.5 -55.5t22.5 -44.5t10.5 -22.5q-4 -25 -25.5 -51t-54.5 -46.5t-74 -34t-84 -13.5q-123 0 -184 67t-47 173z" />
<glyph unicode="&#x446;" horiz-adv-x="1333" d="M49 10q23 133 43 250q8 49 17.5 101.5t17.5 99.5t15.5 88t11.5 67q14 82 13 132.5t-11.5 81t-24.5 44t-26.5 21.5t-18.5 13t2 20q12 25 40 50.5t65.5 47t80.5 34.5t86 13q125 0 191.5 -83t40.5 -228q0 -4 -9.5 -59.5t-23.5 -138.5t-31.5 -179t-31.5 -178h215 q10 57 21 122.5t22.5 133t24 135.5t22.5 129q25 143 51 291q0 2 6 8q2 2 4 2h395q2 0 5 -2q2 -2 2 -8q-27 -150 -52 -295q-10 -61 -22 -129l-25 -135q-12 -68 -23.5 -132.5t-19.5 -119.5h162q0 -2 2 -2q2 -2 2 -6l-33 -185q-31 -174 -124 -250.5t-248 -76.5q-10 0 -25.5 2 t-31 5t-25.5 9t-10 14q2 8 7 38t12 69t14 81t14 72q-188 -29 -383 -24.5t-400 47.5q-2 0 -4 2q-4 4 -2 8z" />
<glyph unicode="&#x447;" horiz-adv-x="1226" d="M63.5 904q-8.5 5 -0.5 20q12 25 41 50t66 46.5t80 35t86 13.5q61 0 112.5 -21.5t85 -61.5t48 -98.5t2.5 -129.5q-4 -27 -5 -30l-2 -6q-1 -3 -4.5 -19.5t-11.5 -67.5q-14 -78 5.5 -109.5t52 -23.5t65.5 53t47 123q10 66 21.5 128t19.5 109q8 55 19 103q0 4 6 10q2 2 6 2 h409q2 0 5 -2q2 -2 2 -8q-31 -133 -54 -252q-23 -102 -41 -202.5t-28 -153.5q-14 -82 -13.5 -132.5t11 -81t25 -44t26.5 -21.5t18 -13t-2 -20q-12 -25 -39.5 -50t-64.5 -46.5t-80 -35t-86 -13.5q-125 0 -191.5 83t-42.5 228q4 25 10.5 59.5t14.5 80.5q-66 -76 -146.5 -103 t-152.5 -27q-135 0 -200.5 88.5t-37.5 247.5q14 82 12.5 132.5t-14 81t-29 44t-29.5 21.5t-21.5 13z" />
<glyph unicode="&#x448;" horiz-adv-x="1765" d="M25 10q20 133 43 250q8 49 17 101.5t18.5 99.5t16.5 88t11 67q14 82 13 132.5t-11 81t-24.5 44t-26.5 21.5t-18.5 13t2.5 20q12 25 40.5 50.5t66.5 47t81 34.5t86 13q125 0 189.5 -83t39.5 -228q0 -4 -10 -60.5t-24.5 -139.5t-32 -179t-31.5 -178h184q20 115 45 255 t48 265q25 145 51 293q0 2 6 8q2 2 4 2h379l2 -2q4 -4 4 -8q-29 -152 -53 -297q-10 -61 -23 -129l-24 -135q-12 -68 -23.5 -132.5t-19.5 -119.5h188q20 115 45 255t47 265q25 145 51 293q0 2 7 8q2 2 6 2h393l2 -2q4 -4 4 -8q-49 -270 -86 -488q-16 -92 -31.5 -182 t-29 -162.5t-21.5 -121t-10 -56.5t-8 -8q-72 -14 -194 -25.5t-271.5 -16.5t-312 -5t-314 5t-279.5 15.5t-206 26.5q-2 0 -4 2q-4 4 -2 8z" />
<glyph unicode="&#x449;" horiz-adv-x="1884" d="M49 0h2q-6 6 -2 10q23 133 43 250q8 49 17.5 101.5t17.5 99.5t15.5 88t11.5 67q14 82 13 132.5t-11.5 81t-24.5 44t-26.5 21.5t-18.5 13t2 20q12 25 40 50.5t65.5 47t80.5 34.5t86 13q125 0 191.5 -83t40.5 -228q0 -4 -10.5 -60.5t-24.5 -139.5t-31.5 -179t-31.5 -178 h182q20 115 44.5 255t47.5 265q25 145 51 293q0 2 6 8q2 2 4 2h379q2 0 4 -2t2 -8q-27 -150 -51 -295q-10 -61 -22 -129l-25 -135q-12 -68 -23.5 -132.5t-19.5 -119.5h189q10 57 21 122.5t22.5 133t23.5 135.5t23 129q25 143 51 291q0 2 6 8q2 2 6 2h393q2 0 4 -2q4 -4 5 -8 q-27 -150 -52 -295q-10 -61 -22 -129l-25 -135q-12 -68 -23.5 -132.5t-19.5 -119.5h158q2 -2 4 -2q2 -2 2 -6l-33 -183l2 -2q-31 -174 -125 -250.5t-249 -76.5q-10 0 -26.5 2t-32 5t-26 9t-10.5 14q2 8 7.5 36t11.5 66t13 78t13 72q-100 -8 -221 -12t-248 -5t-255 1 t-242.5 8t-210 15.5t-158.5 23.5z" />
<glyph unicode="&#x44a;" horiz-adv-x="1286" d="M57 795q8 51 17 96q6 39 12 76t10 55q0 2 4 6q2 0 4 2q68 23 152 34t172 11t173 -11t157 -34q2 0 4 -2t2 -8q-4 -29 -10 -66q-4 -31 -12.5 -71.5t-16.5 -87.5q37 4 80 8t86 4q82 0 153.5 -28.5t120.5 -82t72 -127t6 -163.5q-16 -98 -72.5 -181.5t-136.5 -142.5t-178 -92 t-201 -33q-141 0 -228 43t-132 108.5t-54.5 143.5t3.5 149q10 63 28.5 167t38.5 216h-248q-2 0 -4 2q-4 5 -2 9zM643 338q-6 -55 4 -100t66 -45q31 0 55.5 19t41.5 50t29.5 71t18.5 81q16 90 -20.5 144t-104.5 54q-20 0 -41 -4q-14 -76 -26.5 -146.5t-22.5 -123.5z" />
<glyph unicode="&#x44b;" horiz-adv-x="1624" d="M38 250q-9 78 3 149q6 35 16.5 94.5t22.5 129t24.5 140.5t22.5 128t16 93l7 36q0 2 6 8q2 2 4 2h395q2 0 4 -2t2 -10q-4 -29 -10 -66q-4 -31 -12.5 -71.5t-16.5 -87.5q37 6 80 10t86 4q113 0 203 -57q45 88 98 149.5t109.5 99t111 54t101.5 16.5q57 0 104 -23.5t78 -68.5 t43 -107.5t-2 -138.5q-6 -33 -11 -64.5t-11.5 -69.5t-14.5 -83t-18 -102q-14 -82 -12.5 -132.5t14 -81t29 -44t29.5 -21.5t20.5 -13t-0.5 -20q-12 -25 -41 -50t-66 -46.5t-80 -35t-86 -13.5q-61 0 -112.5 21.5t-85 61.5t-48 98.5t-2.5 129.5q4 27 12.5 72t18.5 100.5 t20.5 113.5t20.5 112q10 61 -1 90.5t-34.5 29.5t-52.5 -27.5t-53 -78.5q39 -53 55 -122t0 -153q-18 -98 -71.5 -181t-130.5 -142.5t-172 -92t-197 -32.5q-141 0 -228.5 43t-132.5 108.5t-54 143.5zM438 297q-2 -29 4.5 -52.5t20.5 -37.5t41 -14q31 0 53.5 19t38.5 50 t26.5 71t16.5 81q16 90 -12.5 143t-96.5 53q-20 0 -41 -4q-12 -70 -23 -134t-22 -116q-4 -30 -6 -59z" />
<glyph unicode="&#x44c;" horiz-adv-x="1081" d="M40 250q-9 78 3 149q6 35 16.5 94.5t22.5 129t25.5 140.5t23.5 128t16 93l7 36q0 2 6 8q2 2 4 2h395q2 0 4 -2t2 -10q-4 -29 -12 -66q-6 -31 -13.5 -71.5t-15.5 -87.5q41 6 83 10t85 4q82 0 154 -28.5t121 -82t71.5 -128t5.5 -165.5q-18 -98 -73.5 -181t-136 -142.5 t-179 -92t-200.5 -32.5q-141 0 -228.5 43t-132.5 108.5t-54 143.5zM441 283.5q1 -25.5 8.5 -46t22.5 -32.5t42 -12q33 0 56.5 19t41 50t28.5 71t19 81q16 90 -19.5 143t-104.5 53q-10 0 -21.5 -1t-21.5 -3q-12 -76 -24.5 -146.5t-23.5 -123.5q-4 -27 -3 -52.5z" />
<glyph unicode="&#x44d;" horiz-adv-x="1083" d="M-27 238q6 37 25.5 72.5t49.5 63t69 44t86 16.5q25 0 48 -3t42.5 -10t30 -18.5t6.5 -27.5q-14 -45 -14.5 -76t10.5 -51q16 -35 42.5 -47.5t61.5 -12.5q31 0 60.5 9.5t56 33t49 63.5t37.5 99h-254q-2 0 -4 2q-4 4 -2 8q6 45 14 84q6 35 11 68t10 51q0 4 2 4t4 2q2 0 4 2 h254q14 121 -25 174.5t-117 53.5q-31 -4 -58.5 -16.5t-49.5 -41.5q-35 -45 -41 -129q-2 -16 -16.5 -27.5t-36 -18.5t-46 -10t-49.5 -3q-47 0 -80.5 16.5t-54 44t-28 63.5t-0.5 73q16 80 71.5 133t129 84.5t155.5 46t149 16.5h3h2q131 0 235.5 -50t169 -133t82.5 -191.5 t-18 -225.5q-29 -115 -93.5 -210t-154.5 -162.5t-198.5 -104.5t-225.5 -35q-68 2 -144.5 17.5t-139 47t-98.5 84t-22 128.5z" />
<glyph unicode="&#x44e;" horiz-adv-x="1714" d="M23 10q20 133 43 252q8 51 17 102.5t18.5 99.5t16.5 88t11 66q14 82 13 132.5t-11 81t-24.5 44t-26.5 21.5t-18.5 13t1.5 20q12 25 44 50.5t72 47t86 34.5t89 13q123 0 184.5 -83t36.5 -228q-4 -23 -9 -52.5t-11 -66.5h90q35 92 93.5 171t136 135.5t172 89t200.5 32.5 q123 0 216 -44t150.5 -119.5t79 -177t1.5 -216.5q-20 -117 -75.5 -218t-139.5 -177t-192.5 -120t-235.5 -44q-109 0 -194 34t-142.5 94t-87 142t-29.5 179h-86l-70 -394q-2 -6 -6 -10q-2 -2 -4 -2h-403q-2 0 -4 2q-4 4 -2 8zM996 392.5q-5 -58.5 1.5 -103.5t28 -72t66.5 -27 q47 0 78.5 26t54 70t37 103.5t26.5 126.5q12 66 17.5 125t-1 103t-29 71t-67.5 27t-76.5 -25.5t-54 -71t-37 -103.5t-26.5 -126q-13 -65 -18 -123.5z" />
<glyph unicode="&#x44f;" horiz-adv-x="1146" d="M-59.5 111.5q8.5 13.5 34.5 27.5q49 29 100.5 71t96.5 85t80 81t51 56q-100 35 -158.5 108.5t-40.5 184.5q16 88 72.5 154.5t136.5 110.5t175.5 65.5t189.5 21.5q102 0 191 -7t155 -17q78 -10 143 -23q2 -2 4 -2q2 -2 3 -6q-2 -10 -10.5 -58.5t-22 -120t-28.5 -161.5 t-32 -182q-37 -217 -86 -488q-2 -4 -6 -8q-2 -2 -4 -2h-395q-2 0 -4 2q-4 4 -2 8q10 51 20 115q10 53 21.5 124t25.5 148q-18 -8 -33.5 -42.5t-37 -85t-53 -105.5t-80 -102.5t-118 -78t-165.5 -30.5q-86 0 -133 36t-76 77q-23 30 -14.5 43.5zM506 717q-25 -133 112 -133h66 q14 72 25.5 140.5t21.5 127.5q-16 2 -33.5 3t-33.5 1q-53 0 -99.5 -33.5t-58.5 -105.5z" />
<glyph unicode="&#x450;" horiz-adv-x="1095" d="M342 1573q-4 8 6 17q59 59 133 100t160 61q8 2 12 -4q6 -72 18.5 -128t34 -107t53 -99.5t74.5 -101.5q8 -8 0 -14q-23 -29 -46.5 -53.5t-53.5 -47.5q-6 -2 -17 2q-150 55 -239.5 148.5t-134.5 226.5zM20 516q18 113 78 213t150 177t205.5 122t248.5 45q125 0 210 -34.5 t134.5 -88t65.5 -116t8 -117.5q-23 -121 -97.5 -191.5t-176 -103.5t-214 -35t-210.5 14q12 -78 65.5 -119.5t133 -52t178 11t200.5 74.5q18 10 27 2q12 -10 2 -32q-14 -33 -60 -88.5t-118 -108.5t-166 -92t-207 -39q-117 0 -210 44t-154.5 120t-87 177t-5.5 218zM436 582 q135 -12 211 32.5t90 128.5q8 41 -17.5 72t-72.5 27l-4 -2h-6q-25 -4 -51 -19q-57 -31 -93.5 -97t-56.5 -142z" />
<glyph unicode="&#x451;" horiz-adv-x="1095" d="M20 516q18 113 78 213t150 177t205.5 122t248.5 45q125 0 210 -34.5t134.5 -88t65.5 -116t8 -117.5q-23 -121 -97.5 -191.5t-176 -103.5t-214 -35t-210.5 14q12 -78 65.5 -119.5t133 -52t178 11t200.5 74.5q18 10 27 2q12 -10 2 -32q-14 -33 -60 -88.5t-118 -108.5 t-166 -92t-207 -39q-117 0 -210 44t-154.5 120t-87 177t-5.5 218zM303 1307q6 37 27.5 68.5t53.5 56t71 38t82 13.5q86 0 135 -51.5t37 -124.5q-6 -37 -29 -69t-54.5 -56.5t-70.5 -38t-82 -13.5q-84 0 -134 51.5t-36 125.5zM436 582q135 -12 211 32.5t90 128.5 q8 41 -17.5 72t-72.5 27l-4 -2h-6q-25 -4 -51 -19q-57 -31 -93.5 -97t-56.5 -142zM780 1307q6 37 27.5 68.5t53.5 56t71 38t82 13.5q86 0 135 -51.5t37 -124.5q-6 -37 -28.5 -69t-54.5 -56.5t-71 -38t-82 -13.5q-84 0 -134 51.5t-36 125.5z" />
<glyph unicode="&#x453;" horiz-adv-x="864" d="M20 268l130 752q4 10 12 10q18 2 57 8t90 10.5t112.5 8.5t127.5 4q139 0 235.5 -8.5t133.5 -16.5q16 -2 16 -20q2 -57 -16 -109q-16 -43 -56.5 -87t-120.5 -66q-31 -8 -64.5 -10.5t-64 -1.5t-55.5 3.5t-35 4.5l-59 -336q-14 -82 -13 -132.5t11 -81t24.5 -44t26.5 -21.5 t18.5 -13t-2.5 -20q-12 -25 -40.5 -50t-67.5 -46.5t-83 -35t-87 -13.5q-123 0 -189 83t-41 228zM299 1229q-4 6 4 14q63 53 111 101.5t88 99.5t72 107.5t62 127.5q4 8 13 4q78 -20 137 -61t98 -100q8 -6 2 -17q-92 -133 -215 -226t-291 -149q-14 -4 -16 -2q-25 23 -39 47.5 t-26 53.5z" />
<glyph unicode="&#x454;" horiz-adv-x="1075" d="M18 473q4 117 61.5 225.5t152 191.5t215 133t253.5 50h2h3q68 -2 143.5 -16.5t137 -46t98 -85t24.5 -132.5q-6 -37 -24.5 -73t-48 -63.5t-69.5 -44t-87 -16.5q-25 0 -49.5 3t-43 10t-28.5 18.5t-6 27.5q12 45 12 76t-8 53q-12 29 -36 41.5t-52 16.5q-78 0 -136.5 -53.5 t-87.5 -174.5h254q2 -2 4 -2q2 -2 3 -6q-4 -18 -9.5 -51t-11.5 -68q-8 -39 -14 -84q-2 -4 -6 -8q-2 -2 -5 -2h-253q-6 -59 1 -99t25.5 -63.5t45 -33t57.5 -9.5q35 0 67.5 12.5t61.5 47.5q33 41 41 127q0 16 14 27.5t35.5 18.5t47 10t50.5 3q47 0 81 -16.5t53.5 -44 t26.5 -63.5t1 -72q-14 -76 -69.5 -128.5t-129.5 -84t-155.5 -47t-149.5 -17.5q-117 -2 -213 35t-161.5 104.5t-96.5 162.5t-21 210z" />
<glyph unicode="&#x455;" horiz-adv-x="1050" d="M-31 219q14 76 77 131.5t153 55.5q51 0 97 -11.5t50 -23.5q8 -14 1 -35t-11 -49q-10 -61 17.5 -93t80.5 -32q57 0 87 25.5t40 66.5q6 37 -14.5 61.5t-57 42t-87 33t-103.5 33.5q-49 18 -94 46t-77 66.5t-48.5 87t-5.5 109.5q2 2 2 6q14 80 67.5 142.5t128 104.5 t160.5 64.5t164 22.5q90 0 174 -16.5t145.5 -49t95 -83t21.5 -117.5q-12 -74 -73.5 -126t-157.5 -52q-53 0 -94 13t-45 24q-6 12 0 32.5t12 51.5q20 121 -84 116q-47 -2 -78 -34.5t-35 -61.5q-6 -37 10.5 -62.5t49 -44t77.5 -33t95 -28.5q57 -18 113.5 -42.5t97.5 -62.5 t61 -89.5t8 -120.5q-16 -92 -76.5 -156.5t-145.5 -103.5t-181.5 -56.5t-184.5 -17.5q-68 0 -148.5 13.5t-148 44t-107.5 81.5t-28 127z" />
<glyph unicode="&#x456;" horiz-adv-x="606" d="M-14 10q27 133 51 252l20 103q10 51 20.5 99t18.5 88t13 66q14 82 13 132.5t-11.5 81t-24.5 44t-26.5 21.5t-18.5 13t0 20q12 25 41 50.5t66.5 47t80.5 34.5t86 13q125 0 190.5 -83t39.5 -228q-6 -31 -14.5 -79t-19.5 -106.5t-22.5 -123t-21.5 -127.5q-27 -147 -55 -316 q0 -4 -6 -10q-2 -2 -5 -2h-407q-2 0 -4 2q-4 4 -4 8zM152 1321q6 39 31.5 74t62.5 60.5t83 40.5t95 15t90 -15t68.5 -40.5t40 -60.5t6.5 -74q-6 -41 -32 -75t-62.5 -60.5t-82.5 -41t-96 -14.5q-49 0 -90 14.5t-68.5 41t-39.5 60.5t-6 75z" />
<glyph unicode="&#x457;" horiz-adv-x="606" d="M-53 1307q14 74 80.5 125t150.5 51q43 0 78 -13.5t58.5 -38t33.5 -56.5t4 -68q-6 -37 -27.5 -69t-54 -56.5t-71.5 -38t-82 -13.5q-84 0 -133 51.5t-37 125.5zM-14 10q27 133 49 252l20 103q10 51 19.5 99t17.5 88t12 66q14 82 13.5 132.5t-11 81t-24.5 44t-25.5 21.5 t-17.5 13t2 20q12 25 40 50.5t64.5 47t79.5 34.5t86 13q125 0 191.5 -83t40.5 -228q-6 -31 -14.5 -79t-18.5 -106.5t-21.5 -123t-21.5 -127.5q-25 -147 -55 -316q-2 -6 -6 -10q-2 -2 -7 -2h-407q-2 0 -4 2q-4 4 -2 8zM422 1307q6 37 27.5 68.5t53.5 56t70.5 38t81.5 13.5 q84 0 135.5 -51.5t36.5 -124.5q-6 -37 -27.5 -69t-53 -56.5t-70.5 -38t-82 -13.5q-86 0 -135 51.5t-37 125.5z" />
<glyph unicode="&#x458;" horiz-adv-x="626" d="M-401 -283q6 37 26.5 73t51 65.5t68.5 47t81 17.5q51 0 93 -13t46 -24q4 -12 -12 -46t-27 -87q-4 -20 -4 -41.5t5 -40t17.5 -30t35.5 -11.5q76 0 98 117q8 49 4 87t-10 75t-9.5 78t7.5 98q0 6 7 48t25.5 145.5t50 282.5t80.5 460q0 4 7 10q2 2 4 2h395q2 0 4 -2 q4 -4 4 -8q-43 -252 -80 -455q-16 -86 -30.5 -171t-26.5 -154.5t-21.5 -115.5t-11.5 -58q-29 -164 -80 -280t-122.5 -188.5t-160.5 -105.5t-194 -33q-92 0 -156.5 22.5t-104.5 59.5t-54 83t-6 93zM254 1321q6 39 31.5 74t62.5 60.5t83 40.5t95 15t90 -15t69 -40.5t40 -60.5 t6 -74q-6 -41 -31.5 -75t-62.5 -60.5t-83 -41t-95 -14.5t-90 14.5t-69 41t-40 60.5t-6 75z" />
<glyph unicode="&#x459;" horiz-adv-x="1740" d="M-84 100q2 14 19.5 24.5t48 41.5t73.5 95.5t99 187.5q29 61 58.5 157t53.5 189q29 109 58 225q4 10 12 10q215 47 427 47t447 -47q2 0 5 -2q4 -4 4 -10q-4 -29 -11 -66q-4 -31 -12 -71.5t-16 -87.5q37 6 80 10t84 4q82 0 153.5 -28.5t120.5 -82t71.5 -128t6.5 -165.5 q-18 -98 -73.5 -181t-136.5 -142.5t-179.5 -92t-200.5 -32.5q-141 0 -227 43t-130 108.5t-53.5 143.5t2.5 149v4q0 2 1 4.5t1 4.5q6 31 14.5 82t18.5 109.5t21.5 120.5t21.5 118h-129q-16 -63 -34.5 -138t-37 -148t-38 -138.5t-33.5 -108.5q-72 -197 -175.5 -274.5 t-226.5 -77.5q-49 0 -85.5 16.5t-60.5 39t-35 47t-7 40.5zM1098 288.5q0 -26.5 7 -48t22.5 -34.5t43.5 -13q31 0 54.5 19t41 50t29 71t19.5 81q16 90 -21 143t-104 53q-20 0 -41 -4q-14 -72 -25.5 -140.5t-21.5 -121.5q-4 -29 -4 -55.5z" />
<glyph unicode="&#x45a;" horiz-adv-x="1730" d="M6 10q27 133 51 252l21 103q10 51 20.5 99t18.5 88t12 66q14 82 13 132.5t-11 81t-24.5 44t-26.5 21.5t-18.5 13t1.5 20q12 25 41 50.5t67 47t81 34.5t86 13q123 0 188.5 -83t40.5 -228q-4 -23 -9 -52.5t-11 -66.5h186q10 66 22.5 133.5t22.5 120.5q10 63 21 121q0 2 6 8 q2 2 4 2h395q2 0 4 -2t2 -10q-4 -29 -12 -66q-6 -31 -13 -71.5t-16 -87.5q41 6 83 10t85 4q82 0 154 -28.5t121 -82t71.5 -128t6.5 -165.5q-18 -98 -73.5 -181t-136.5 -142.5t-179.5 -92t-200.5 -32.5q-141 0 -228.5 43t-132.5 108.5t-53 143.5t4 149v4v3h-186l-70 -394 q-2 -6 -6 -10q-2 -2 -4 -2h-412q-2 0 -4 2q-4 4 -2 8zM1090 336q-6 -55 5 -99t64 -44q31 0 55.5 19t42 50t28.5 71t20 81q16 90 -21 143t-104 53q-10 0 -21.5 -1t-21.5 -3q-12 -76 -24.5 -146.5t-22.5 -123.5z" />
<glyph unicode="&#x45c;" horiz-adv-x="1232" d="M646 1299q-4 6 4 14q63 53 111 101.5t88 99.5t72 107.5t62 127.5q4 8 13 4q78 -20 137 -61t98 -100q8 -6 2 -17q-92 -133 -215 -226t-291 -149q-14 -4 -16 -2q-25 23 -39 47.5t-26 53.5zM6 10q27 133 51 252l21 103q10 51 20.5 99t18.5 88t12 66q14 82 13 132.5t-11 81 t-24.5 44t-26.5 21.5t-18.5 13t1.5 20q12 25 41 50.5t67 47t81 34.5t86 13q123 0 188.5 -83t40.5 -228q-4 -29 -12 -74t-18 -98q4 2 8 3t10 3q18 57 60 139t105.5 157t147.5 128t187 53q113 0 172 -63.5t41 -165.5q-18 -104 -91 -160.5t-171 -56.5q-39 0 -70 12t-27 35 q2 12 7.5 29.5t5.5 36t-9.5 31.5t-33.5 18q-29 4 -53.5 -12.5t-44 -43t-33 -58.5t-19.5 -59q72 10 114 -12t70 -67q23 -41 34 -94.5t30.5 -108.5t56.5 -107.5t115 -93.5q23 -12 20.5 -24.5t-30.5 -42.5q-43 -41 -119 -77t-162 -36q-104 0 -162.5 35t-87 88t-35 114.5 t-10.5 114.5t-13 90t-40 41q-14 -78 -27.5 -154.5t-23.5 -136.5q-12 -70 -25 -135q-2 -6 -6 -10q-2 -2 -4 -2h-412q-2 0 -4 2q-4 4 -2 8z" />
<glyph unicode="&#x45d;" d="M-24 1568q-4 8 6 17q59 59 133 100t160 61q8 2 12 -4q6 -72 18.5 -128t34 -107t53 -99.5t74.5 -101.5q8 -8 0 -14q-23 -29 -46.5 -53.5t-53.5 -47.5q-6 -2 -17 2q-150 55 -239.5 148.5t-134.5 226.5zM63.5 904q-8.5 5 -0.5 20q12 25 41 50t66 46.5t80 35t86 13.5 q61 0 113.5 -21.5t86 -61.5t48 -98.5t2.5 -129.5q-4 -27 -12.5 -72t-18.5 -100.5t-20.5 -113.5t-20.5 -112q-12 -76 11.5 -102.5t62.5 -11t79 69t58 139.5q16 88 31.5 185t31.5 183q16 98 35 195q0 4 6 10q2 2 5 2h411q2 0 4 -2t2 -8q-31 -133 -53 -252q-23 -102 -41 -202.5 t-29 -153.5q-14 -82 -13 -132.5t11.5 -81t24.5 -44t26.5 -21.5t17.5 -13t-1 -20q-12 -25 -41 -50t-65.5 -46.5t-79.5 -35t-86 -13.5q-106 0 -171 62.5t-67 172.5q-88 -131 -189.5 -183t-183.5 -52q-57 0 -104 23.5t-78 68.5t-42 106.5t3 139.5q10 63 22.5 134t32.5 185 q14 82 12.5 132.5t-14 81t-29 44t-29.5 21.5t-21.5 13z" />
<glyph unicode="&#x45e;" horiz-adv-x="1218" d="M-8 -180q-10 76 1 97.5t27 16.5q18 -4 36 -28.5t50.5 -54t85 -53t138.5 -23.5q61 0 113.5 22.5t92 58t66.5 81t37 92.5t18.5 99t18.5 105q-43 -66 -92 -111.5t-98.5 -73.5t-96.5 -40t-88 -12q-57 0 -103 23.5t-77 68.5t-42 106.5t3 139.5q6 33 10 58.5t9 55t12.5 68.5 t17.5 96q14 82 12 132.5t-14 81t-28.5 44t-31 21.5t-21.5 13t-1 20q12 25 41 50t67 46.5t81 35t86 13.5q61 0 112 -21.5t85 -61.5t47.5 -98.5t0.5 -129.5q-10 -53 -26.5 -151.5t-36.5 -205.5q-12 -78 13.5 -104.5t64.5 -9t79.5 74t59.5 146.5q18 111 34.5 204t28.5 160 q14 80 25 146q0 2 6 8q2 2 4 2h395q2 0 5 -2q2 -2 2 -8l-56 -332q-12 -68 -24.5 -141.5t-23.5 -144t-22.5 -135t-19.5 -115.5q-18 -133 -73.5 -245t-141.5 -193t-201.5 -126t-257.5 -45q-113 0 -189.5 33t-123.5 78t-69.5 92t-26.5 76zM296 1395q1 41 16.5 79.5t44 71.5 t67.5 53q39 23 79 29t75.5 -3t63.5 -31.5t44 -59.5q25 -57 9.5 -115.5t-60.5 -107.5q-16 -16 -16.5 -32.5t26.5 -29.5q27 -12 55.5 -16t53 -2t45 7t32.5 11q61 27 39 64q-29 49 -24.5 106.5t51.5 114.5q27 37 63.5 59.5t75.5 31.5t78 3t70 -29q31 -20 47 -51.5t18 -69.5 t-12 -80t-45 -83q-49 -68 -125 -113t-163 -68.5t-178 -23.5t-172 21.5t-144.5 67.5t-96.5 116q-18 39 -17 80z" />
<glyph unicode="&#x490;" horiz-adv-x="1040" d="M-38 149.5q-13 67.5 3 163.5q8 49 21.5 124t30 164t34 186.5t33.5 193.5q39 221 84 473q0 2 6 8q2 2 6 2q111 8 207 6t205 0q82 0 122 42t52 112l14 74q2 16 14.5 18t22.5 2q63 0 121.5 -23.5t99.5 -65.5t59.5 -100.5t2.5 -127.5q-25 -104 -87.5 -167t-141 -91.5 t-163.5 -28.5t-155 16q-4 -16 -12.5 -63t-21.5 -131t-34.5 -208t-48.5 -296q-12 -80 -8 -131t15.5 -81t26.5 -44t28.5 -21.5t19.5 -13.5t-2 -20q-14 -29 -46 -57.5t-74 -53t-90 -40t-93 -15.5q-61 0 -114.5 20.5t-88.5 63.5t-48 110.5z" />
<glyph unicode="&#x491;" horiz-adv-x="919" d="M-1 145.5q-11 59.5 1 130.5l127 734q2 10 12 14q4 2 8 2l367 8q72 0 106.5 31t45.5 90l18 111q4 12 14.5 14t20.5 2q55 0 103 -20.5t82 -56.5t49.5 -86t4.5 -109q-10 -53 -43.5 -107.5t-91 -93.5t-137.5 -56.5t-182 1.5l-58 -334q-14 -84 -13 -136.5t10.5 -82t22.5 -44 t25.5 -21.5t18.5 -13t0 -23q-10 -25 -40 -49t-70 -45.5t-85 -35t-86 -13.5q-61 0 -109 22.5t-79 64.5t-42 101.5z" />
<glyph unicode="&#x4ae;" horiz-adv-x="1368" d="M117 1450q-2 8 4 12q2 2 6 4h491q4 0 7 -2q4 -4 6 -10l141 -625q82 98 125 203t61.5 192t20.5 146.5t4 67.5q2 23 41 44t94 32q43 9 92 9h26q62 -3 112.5 -30t77.5 -83q19 -39 20 -96q0 -25 -4 -54q-23 -127 -86.5 -228.5t-146.5 -181.5t-174 -141.5t-167 -108.5 l-30 -174q-9 -61 -10 -105q0 -15 1 -27q4 -50 15.5 -80t27 -44t28.5 -21.5t19.5 -13.5t-1.5 -20q-14 -29 -46 -57.5t-74 -51t-90.5 -38t-93.5 -15.5q-61 0 -114.5 19.5t-88 62.5t-47.5 109q-6 30 -6 66q0 44 9 97q16 102 28.5 169t22.5 138z" />
<glyph unicode="&#x4c0;" horiz-adv-x="636" d="M63 432q31 178 52.5 301t35 200t20.5 118t10 56l3 15q3 31 3 56q0 50 -11 77q-16 41 -37.5 58.5t-36 23.5t-4.5 27q14 25 47 51.5t76 48t91 35.5t94 14q59 0 111 -18t87 -58t48 -102q6 -28 6 -60q0 -40 -9 -89q-8 -45 -20.5 -120t-28.5 -166t-33.5 -192.5t-36.5 -199.5 q-41 -233 -88 -498q-2 -4 -6 -8q-2 -2 -6 -2h-434q-2 0 -4 2q-3 3 -3 6q0 69 13.5 146.5t34 160.5t26.5 117z" />
<glyph unicode="&#x4c1;" horiz-adv-x="2097" d="M845 1958.5q-1 18.5 3 33.5t18 21q12 6 34 -15t64 -51t110.5 -54.5t176.5 -24.5q111 0 190 24.5t130 54.5t78.5 51.5t38.5 14.5q12 -6 11 -21t-9 -33.5t-19.5 -38t-21.5 -34.5q-39 -57 -90.5 -103t-108.5 -78t-117.5 -49t-119.5 -17t-113.5 17t-102 49t-83 78t-54.5 103 q-4 14 -9 34t-6 38.5zM-103 173q1 38 15 42q61 18 132 75.5t134.5 126t114.5 134t74 100.5q68 104 135 163.5t139 70.5q12 57 8 113.5t-19.5 99.5t-41 69.5t-56.5 26.5q-27 0 -42 -13.5t-23 -32t-12 -38.5t-6 -35q-2 -6 -31 -16t-70 -14.5t-88 0t-87 27t-65.5 66.5 t-21.5 117q2 66 36 117t86 85t116.5 48.5t130.5 7.5q111 -12 186.5 -73.5t117.5 -153.5t53 -202.5t-3 -219.5q10 -4 21.5 -6t21.5 -8l96 602q0 2 6 8q2 2 7 2h436q2 0 4 -2q4 -4 2 -8l-119 -602q12 6 26.5 8t26.5 6q23 109 75 219.5t127 202.5t172 153.5t212 73.5 q70 6 128 -8t97 -48t53.5 -85t-6.5 -117q-23 -74 -62.5 -117.5t-87.5 -66t-97.5 -27t-89 0t-64.5 14.5t-22 16q2 14 7 34.5t5 38t-12.5 30t-42.5 14.5q-31 2 -66 -24.5t-66.5 -69.5t-55 -99.5t-34.5 -113.5q70 -10 117 -69.5t78 -164.5q10 -35 37.5 -100.5t68.5 -134 t91.5 -126t107.5 -75.5q12 -4 0 -42t-46 -82t-89 -84t-129 -48q-98 -10 -171 11.5t-124 67.5t-83 113.5t-48.5 146.5t-19.5 167t6 176q-27 8 -56 -8l-98 -623q-2 -4 -6 -8q-2 -2 -6 -2h-437q-2 0 -4 2q-4 4 -2 8l121 623q-23 16 -55 8q-35 -133 -92.5 -262t-140.5 -227.5 t-192.5 -153.5t-250.5 -39q-72 8 -112 48t-58 84t-17 82z" />
<glyph unicode="&#x4c2;" horiz-adv-x="1828" d="M667 1517.5q-1 18.5 3 33.5t18 21q12 6 34 -15t64 -51t110.5 -54.5t176.5 -24.5q111 0 190 24.5t130 54.5t78.5 51.5t38.5 14.5q12 -6 11 -21t-9 -33.5t-19.5 -38t-21.5 -34.5q-39 -57 -90.5 -103t-108.5 -78t-117.5 -49t-119.5 -17t-113.5 17t-102 49t-83 78t-54.5 103 q-4 14 -9 34t-6 38.5zM-82 110.5q4 12.5 33 24.5q90 41 145.5 93.5t93 107.5t68.5 108.5t70 94.5q43 45 94 68.5t117 13.5h2q-2 29 -4 58.5t-9.5 55t-25 42t-47.5 16.5q-29 0 -43.5 -13.5t-22.5 -33t-10 -39t-4 -31.5q-4 -23 -39 -35t-72 -12q-98 0 -150.5 56t-33.5 161 q18 102 100 165.5t195 63.5q102 0 166.5 -47t101.5 -118.5t50.5 -155.5t13.5 -156q4 -2 7 -3t7 -3q14 80 26.5 154.5t23.5 133t17.5 96.5t8.5 46q0 4 2 4t4 2q2 0 4 2h397h2q2 0 2 -8q-4 -25 -12 -69t-18.5 -100t-21.5 -123.5t-23 -137.5q4 2 8 3t8 3q14 55 56 136 t106.5 157t149.5 130t188 54q113 0 173 -63.5t42 -165.5q-18 -104 -92 -160.5t-173 -56.5q-37 0 -67.5 12t-26.5 35q2 12 7.5 31.5t4.5 38t-11.5 33t-39.5 14.5t-50 -16.5t-37.5 -42t-30 -56.5t-25.5 -60h-8q-4 0 -8 3q70 10 121 -13.5t79 -68.5q25 -41 35 -94.5 t29.5 -108.5t57.5 -107.5t116 -93.5q20 -12 19 -24.5t-31 -42.5q-41 -41 -117 -77t-162 -36q-106 0 -163.5 35t-86 87t-36 113.5t-11.5 114.5t-12 91t-39 42q-16 -86 -29.5 -161.5t-23.5 -135.5q-12 -68 -23 -129q-2 -4 -6 -8q-2 -2 -4 -2h-395q-2 0 -4 2q-4 4 -3 8 q10 61 23 129q10 59 23.5 135t29.5 162q-33 -2 -55.5 -39t-45 -90t-51 -115.5t-75.5 -115.5t-117.5 -88t-177.5 -35q-86 0 -147.5 36t-87.5 77q-23 30 -19 42.5z" />
<glyph unicode="&#x4d0;" horiz-adv-x="1411" d="M435 1964.5q-1 18.5 3 33.5t18 21q12 6 34 -15t64 -51t110.5 -54.5t176.5 -24.5q111 0 190 24.5t130 54.5t78.5 51.5t38.5 14.5q12 -6 11 -21t-9 -33.5t-19.5 -38t-21.5 -34.5q-39 -57 -90.5 -103t-108.5 -78t-117.5 -49t-119.5 -17t-113.5 17t-102 49t-83 78t-54.5 103 q-4 14 -9 34t-6 38.5zM-121 2q-2 2 2 8q152 307 273 551q51 104 99 202.5t87 176.5t62 126l24 48q45 80 53 125t1 70.5t-17 39t0 31.5q14 31 49 56.5t80 44t94 30t94 11.5q55 0 107.5 -18.5t95.5 -58.5t75 -100.5t46 -144.5q8 -45 19.5 -120.5t24.5 -168t27.5 -195 t26.5 -202.5q31 -236 64 -504q0 -4 -4 -8q-2 -2 -5 -2h-462q-4 0 -7 2q-4 4 -4 8l-12 217h-362q-18 -49 -35 -89t-27 -68q-12 -35 -22 -60q-4 -4 -11 -8q-4 -2 -6 -2h-426q-2 0 -4 2zM514 504h240l-15 594q-25 -55 -52.5 -129t-57 -154t-59 -160.5t-56.5 -150.5z" />
<glyph unicode="&#x4d1;" horiz-adv-x="1263" d="M185 1513.5q-1 18.5 3 33.5t18 21q12 6 34 -15t64 -51t110.5 -54.5t176.5 -24.5q111 0 190 24.5t130 54.5t78.5 51.5t38.5 14.5q12 -6 11 -21t-9 -33.5t-19.5 -38t-21.5 -34.5q-39 -57 -90.5 -103t-108.5 -78t-117.5 -49t-119.5 -17t-113.5 17t-102 49t-83 78t-54.5 103 q-4 14 -9 34t-6 38.5zM11 313.5q-9 100.5 9 202.5q18 104 62.5 204.5t111 178.5t151.5 125t185 47q106 0 172 -54t99 -140q4 33 9 58.5t9 43.5q4 23 6 39q0 4 6 10q2 2 7 2h409q2 0 4 -2t2 -8q-29 -133 -51 -252q-20 -102 -39.5 -202.5t-29.5 -153.5q-14 -82 -13.5 -132.5 t11 -81t24.5 -44t25.5 -21.5t17.5 -13t-2 -20q-12 -25 -40 -50t-65.5 -46.5t-80.5 -35t-86 -13.5q-106 0 -171 61.5t-65 171.5q-72 -100 -164 -165.5t-200 -65.5q-96 0 -163 49t-104 128t-46 179.5zM433 408.5q1 -50.5 13.5 -88t38 -59t62.5 -21.5t69.5 21.5t59 59t45 88 t29.5 107.5q10 57 9 108.5t-13.5 89.5t-38 59.5t-62.5 21.5t-69.5 -21.5t-59.5 -59.5t-45 -89.5t-29 -108.5q-10 -57 -9 -107.5z" />
<glyph unicode="&#x4d2;" horiz-adv-x="1411" d="M391 1821q6 37 27.5 68.5t53.5 56t72 38t81 13.5q86 0 136 -51.5t38 -124.5q-6 -37 -28.5 -69t-55.5 -56.5t-72 -38t-82 -13.5q-84 0 -133 51.5t-37 125.5zM868 1821q6 37 28 68.5t53.5 56t70.5 38t82 13.5q86 0 135 -51.5t37 -124.5q-6 -37 -28.5 -69t-54.5 -56.5 t-71 -38t-82 -13.5q-84 0 -134 51.5t-36 125.5zM-121 2q-2 2 2 8q152 307 273 551q51 104 99 202.5t87 176.5t62 126l24 48q45 80 53 125t1 70.5t-17 39t0 31.5q14 31 49 56.5t80 44t94 30t94 11.5q55 0 107.5 -18.5t95.5 -58.5t75 -100.5t46 -144.5q8 -45 19.5 -120.5 t24.5 -168t27.5 -195t26.5 -202.5q31 -236 64 -504q0 -4 -4 -8q-2 -2 -5 -2h-462q-4 0 -7 2q-4 4 -4 8l-12 217h-362q-18 -49 -35 -89t-27 -68q-12 -35 -22 -60q-4 -4 -11 -8q-4 -2 -6 -2h-426q-2 0 -4 2zM514 504h240l-15 594q-25 -55 -52.5 -129t-57 -154t-59 -160.5 t-56.5 -150.5z" />
<glyph unicode="&#x4d3;" horiz-adv-x="1263" d="M141 1370q6 37 27.5 68.5t53.5 56t72 38t81 13.5q86 0 136 -51.5t38 -124.5q-6 -37 -28.5 -69t-55.5 -56.5t-72 -38t-82 -13.5q-84 0 -133 51.5t-37 125.5zM618 1370q6 37 28 68.5t53.5 56t70.5 38t82 13.5q86 0 135 -51.5t37 -124.5q-6 -37 -28.5 -69t-54.5 -56.5 t-71 -38t-82 -13.5q-84 0 -134 51.5t-36 125.5zM11 313.5q-9 100.5 9 202.5q18 104 62.5 204.5t111 178.5t151.5 125t185 47q106 0 172 -54t99 -140q4 33 9 58.5t9 43.5q4 23 6 39q0 4 6 10q2 2 7 2h409q2 0 4 -2t2 -8q-29 -133 -51 -252q-20 -102 -39.5 -202.5 t-29.5 -153.5q-14 -82 -13.5 -132.5t11 -81t24.5 -44t25.5 -21.5t17.5 -13t-2 -20q-12 -25 -40 -50t-65.5 -46.5t-80.5 -35t-86 -13.5q-106 0 -171 61.5t-65 171.5q-72 -100 -164 -165.5t-200 -65.5q-96 0 -163 49t-104 128t-46 179.5zM433 408.5q1 -50.5 13.5 -88t38 -59 t62.5 -21.5t69.5 21.5t59 59t45 88t29.5 107.5q10 57 9 108.5t-13.5 89.5t-38 59.5t-62.5 21.5t-69.5 -21.5t-59.5 -59.5t-45 -89.5t-29 -108.5q-10 -57 -9 -107.5z" />
<glyph unicode="&#x4d5;" horiz-adv-x="2322" d="M11 313.5q-9 100.5 9 202.5q18 104 62.5 204.5t111 178.5t151.5 125t185 47q106 0 172 -54t99 -140l24 141q0 4 6 10q2 2 7 2h407q2 0 4 -2t2 -8q-25 -133 -47 -250q-10 -49 -19 -101.5t-18.5 -100.5t-16.5 -90t-13 -68q-12 -63 -5 -98.5t24.5 -48.5t44 -7t54.5 27 q-29 113 -8 233q20 113 79.5 213t150 177t205 122t247.5 45q125 0 210 -34.5t134 -88t66.5 -116t7.5 -117.5q-23 -121 -97.5 -191.5t-176 -103.5t-214 -35t-210.5 14q12 -78 65 -119.5t133 -52t178.5 11t200.5 74.5q18 10 29 2q10 -10 0 -32q-14 -33 -60.5 -88.5 t-117 -108.5t-164.5 -92t-207 -39q-119 0 -213 45t-158 123q-80 -78 -170 -123t-227 -47q-57 0 -103.5 19.5t-79 53t-50 75.5t-17.5 85q-72 -100 -164 -165.5t-200 -65.5q-96 0 -163 49t-104 128t-46 179.5zM433 408.5q1 -50.5 13.5 -88t38 -59t62.5 -21.5t69.5 21.5t59 59 t45 88t29.5 107.5q10 57 9 108.5t-13.5 89.5t-38 59.5t-62.5 21.5t-69.5 -21.5t-59.5 -59.5t-45 -89.5t-29 -108.5q-10 -57 -9 -107.5zM1663 582q135 -12 211 32.5t90 128.5q8 41 -17.5 72t-72.5 27l-2 -2h-6q-27 -4 -54 -19q-55 -31 -92 -97t-57 -142z" />
<glyph unicode="&#x4d6;" horiz-adv-x="1110" d="M359 1952.5q-1 18.5 3 33.5t18 21q12 6 34 -15t64 -51t110.5 -54.5t176.5 -24.5q111 0 190 24.5t130 54.5t78.5 51.5t38.5 14.5q12 -6 11 -21t-9 -33.5t-19.5 -38t-21.5 -34.5q-39 -57 -90.5 -103t-108.5 -78t-117.5 -49t-119.5 -17t-113.5 17t-102 49t-83 78t-54.5 103 q-4 14 -9 34t-6 38.5zM21.5 305.5q-15.5 100.5 3.5 206.5l170 944q0 4 8 8q4 2 6 2h977q2 0 6 -2q6 -2 8 -8q8 -70 -12 -133q-16 -55 -62.5 -112.5t-140.5 -92.5q-61 -23 -130 -25.5t-128 1.5q-68 6 -137 20q-2 -16 -7 -45t-12.5 -65.5t-15.5 -78.5t-14 -81h338q4 0 6 -2 q4 -4 2 -8l-37 -205q0 -4 -2 -5t-4 -3l-6 -3h-338q-8 -41 -15 -73l-12 -74q-10 -66 13.5 -107.5t66.5 -62t100.5 -25t116.5 5t115.5 28t95.5 40.5q35 20 44 4t-3 -53q-12 -39 -56 -98.5t-117 -114.5t-173.5 -94t-224.5 -39q-131 0 -221.5 47t-141.5 125t-66.5 178.5z" />
<glyph unicode="&#x4d7;" horiz-adv-x="1095" d="M357 1515.5q-1 18.5 3 33.5t18 21q12 6 34 -15t64 -51t110.5 -54.5t176.5 -24.5q111 0 190 24.5t130 54.5t78.5 51.5t38.5 14.5q12 -6 11 -21t-9 -33.5t-19.5 -38t-21.5 -34.5q-39 -57 -90.5 -103t-108.5 -78t-117.5 -49t-119.5 -17t-113.5 17t-102 49t-83 78t-54.5 103 q-4 14 -9 34t-6 38.5zM20 516q18 113 78 213t150 177t205.5 122t248.5 45q125 0 210 -34.5t134.5 -88t65.5 -116t8 -117.5q-23 -121 -97.5 -191.5t-176 -103.5t-214 -35t-210.5 14q12 -78 65.5 -119.5t133 -52t178 11t200.5 74.5q18 10 27 2q12 -10 2 -32q-14 -33 -60 -88.5 t-118 -108.5t-166 -92t-207 -39q-117 0 -210 44t-154.5 120t-87 177t-5.5 218zM436 582q135 -12 211 32.5t90 128.5q8 41 -17.5 72t-72.5 27l-4 -2h-6q-25 -4 -51 -19q-57 -31 -93.5 -97t-56.5 -142z" />
<glyph unicode="&#x4dc;" horiz-adv-x="2097" d="M801 1815q6 37 27.5 68.5t53.5 56t72 38t81 13.5q86 0 136 -51.5t38 -124.5q-6 -37 -28.5 -69t-55.5 -56.5t-72 -38t-82 -13.5q-84 0 -133 51.5t-37 125.5zM1278 1815q6 37 28 68.5t53.5 56t70.5 38t82 13.5q86 0 135 -51.5t37 -124.5q-6 -37 -28.5 -69t-54.5 -56.5 t-71 -38t-82 -13.5q-84 0 -134 51.5t-36 125.5zM-103 173q1 38 15 42q61 18 132 75.5t134.5 126t114.5 134t74 100.5q68 104 135 163.5t139 70.5q12 57 8 113.5t-19.5 99.5t-41 69.5t-56.5 26.5q-27 0 -42 -13.5t-23 -32t-12 -38.5t-6 -35q-2 -6 -31 -16t-70 -14.5t-88 0 t-87 27t-65.5 66.5t-21.5 117q2 66 36 117t86 85t116.5 48.5t130.5 7.5q111 -12 186.5 -73.5t117.5 -153.5t53 -202.5t-3 -219.5q10 -4 21.5 -6t21.5 -8l96 602q0 2 6 8q2 2 7 2h436q2 0 4 -2q4 -4 2 -8l-119 -602q12 6 26.5 8t26.5 6q23 109 75 219.5t127 202.5t172 153.5 t212 73.5q70 6 128 -8t97 -48t53.5 -85t-6.5 -117q-23 -74 -62.5 -117.5t-87.5 -66t-97.5 -27t-89 0t-64.5 14.5t-22 16q2 14 7 34.5t5 38t-12.5 30t-42.5 14.5q-31 2 -66 -24.5t-66.5 -69.5t-55 -99.5t-34.5 -113.5q70 -10 117 -69.5t78 -164.5q10 -35 37.5 -100.5 t68.5 -134t91.5 -126t107.5 -75.5q12 -4 0 -42t-46 -82t-89 -84t-129 -48q-98 -10 -171 11.5t-124 67.5t-83 113.5t-48.5 146.5t-19.5 167t6 176q-27 8 -56 -8l-98 -623q-2 -4 -6 -8q-2 -2 -6 -2h-437q-2 0 -4 2q-4 4 -2 8l121 623q-23 16 -55 8q-35 -133 -92.5 -262 t-140.5 -227.5t-192.5 -153.5t-250.5 -39q-72 8 -112 48t-58 84t-17 82z" />
<glyph unicode="&#x4dd;" horiz-adv-x="1828" d="M622 1375q6 37 27.5 68.5t53.5 56t72 38t81 13.5q86 0 136 -51.5t38 -124.5q-6 -37 -28.5 -69t-55.5 -56.5t-72 -38t-82 -13.5q-84 0 -133 51.5t-37 125.5zM1099 1375q6 37 28 68.5t53.5 56t70.5 38t82 13.5q86 0 135 -51.5t37 -124.5q-6 -37 -28.5 -69t-54.5 -56.5 t-71 -38t-82 -13.5q-84 0 -134 51.5t-36 125.5zM-82 110.5q4 12.5 33 24.5q90 41 145.5 93.5t93 107.5t68.5 108.5t70 94.5q43 45 94 68.5t117 13.5h2q-2 29 -4 58.5t-9.5 55t-25 42t-47.5 16.5q-29 0 -43.5 -13.5t-22.5 -33t-10 -39t-4 -31.5q-4 -23 -39 -35t-72 -12 q-98 0 -150.5 56t-33.5 161q18 102 100 165.5t195 63.5q102 0 166.5 -47t101.5 -118.5t50.5 -155.5t13.5 -156q4 -2 7 -3t7 -3q14 80 26.5 154.5t23.5 133t17.5 96.5t8.5 46q0 4 2 4t4 2q2 0 4 2h397h2q2 0 2 -8q-4 -25 -12 -69t-18.5 -100t-21.5 -123.5t-23 -137.5q4 2 8 3 t8 3q14 55 56 136t106.5 157t149.5 130t188 54q113 0 173 -63.5t42 -165.5q-18 -104 -92 -160.5t-173 -56.5q-37 0 -67.5 12t-26.5 35q2 12 7.5 31.5t4.5 38t-11.5 33t-39.5 14.5t-50 -16.5t-37.5 -42t-30 -56.5t-25.5 -60h-8q-4 0 -8 3q70 10 121 -13.5t79 -68.5 q25 -41 35 -94.5t29.5 -108.5t57.5 -107.5t116 -93.5q20 -12 19 -24.5t-31 -42.5q-41 -41 -117 -77t-162 -36q-106 0 -163.5 35t-86 87t-36 113.5t-11.5 114.5t-12 91t-39 42q-16 -86 -29.5 -161.5t-23.5 -135.5q-12 -68 -23 -129q-2 -4 -6 -8q-2 -2 -4 -2h-395q-2 0 -4 2 q-4 4 -3 8q10 61 23 129q10 59 23.5 135t29.5 162q-33 -2 -55.5 -39t-45 -90t-51 -115.5t-75.5 -115.5t-117.5 -88t-177.5 -35q-86 0 -147.5 36t-87.5 77q-23 30 -19 42.5z" />
<glyph unicode="&#x4de;" horiz-adv-x="1269" d="M344 1811q6 37 27.5 68.5t53.5 56t72 38t81 13.5q86 0 136 -51.5t38 -124.5q-6 -37 -28.5 -69t-55.5 -56.5t-72 -38t-82 -13.5q-84 0 -133 51.5t-37 125.5zM821 1811q6 37 28 68.5t53.5 56t70.5 38t82 13.5q86 0 135 -51.5t37 -124.5q-6 -37 -28.5 -69t-54.5 -56.5 t-71 -38t-82 -13.5q-84 0 -134 51.5t-36 125.5zM-51 326q18 104 91 167.5t183 63.5q66 0 114 -21.5t50 -39.5q0 -14 -8 -45t-17 -72q-16 -86 22 -140.5t97 -54.5q63 0 113.5 32t82.5 81t42 104.5t-6.5 104.5t-63.5 80.5t-129 31.5h-53q-2 0 -4 3l-4 4q-2 2 0 8q6 43 14 82 q6 35 12 71l11 62q0 2 6 8q2 2 6 2h92q72 0 122 30t78.5 75t35 98t-8 98t-50.5 75t-93 30q-66 0 -126 -47.5t-75 -133.5q-8 -43 -11 -74.5t-9 -41.5q-6 -8 -22.5 -19.5t-40 -20.5t-53.5 -16.5t-62 -7.5q-111 0 -161 65.5t-34 168.5q18 106 90 177.5t167 116t198.5 62.5 t187.5 18q106 0 217 -20.5t195 -70.5t126 -136t13 -215q-29 -137 -120 -211t-210 -102q57 -18 106.5 -47t83.5 -69t48 -95.5t2 -124.5q-23 -129 -100.5 -218t-183 -144.5t-226.5 -79t-227 -23.5q-84 0 -180.5 18.5t-175 61.5t-124.5 114t-28 177z" />
<glyph unicode="&#x4df;" horiz-adv-x="1024" d="M198 1373q6 37 27.5 68.5t53.5 56t72 38t81 13.5q86 0 136 -51.5t38 -124.5q-6 -37 -28.5 -69t-55.5 -56.5t-72 -38t-82 -13.5q-84 0 -133 51.5t-37 125.5zM675 1373q6 37 28 68.5t53.5 56t70.5 38t82 13.5q86 0 135 -51.5t37 -124.5q-6 -37 -28.5 -69t-54.5 -56.5 t-71 -38t-82 -13.5q-84 0 -134 51.5t-36 125.5zM-31 221q14 76 75.5 131.5t148.5 55.5q51 0 95 -11.5t48 -23.5q8 -14 1 -35t-11 -49q-10 -61 14.5 -93t71.5 -32q57 0 93 36t44 79q4 18 3 42.5t-13.5 46t-37 36t-69.5 14.5h-47q-2 0 -4 2q-4 4 -2 8q4 41 12 78 q4 31 10.5 62.5t10.5 49.5q0 4 2 4.5t4 2.5q2 0 4 2h72q33 0 57 12t40.5 29.5t27 39t14.5 40.5q8 45 -10.5 80.5t-75.5 35.5q-51 0 -91 -31.5t-50 -93.5q-6 -31 -7.5 -51t-11.5 -33q-10 -12 -58 -24.5t-100 -12.5q-86 0 -129 56.5t-28 130.5q12 76 70.5 128t135 83t160.5 44 t150 13q84 0 171 -14.5t152.5 -51t101.5 -98t19 -153.5q-18 -102 -93 -153.5t-167 -72.5q45 -12 84 -32.5t65.5 -50t38 -68.5t3.5 -90q-16 -92 -76 -156.5t-142.5 -103.5t-177 -56.5t-178.5 -17.5q-66 0 -144.5 13.5t-144 44t-104.5 81.5t-27 127z" />
<glyph unicode="&#x4e4;" horiz-adv-x="1439" d="M16 1813q6 37 27.5 68.5t53.5 56t72 38t81 13.5q86 0 136 -51.5t38 -124.5q-6 -37 -28.5 -69t-55.5 -56.5t-72 -38t-82 -13.5q-84 0 -133 51.5t-37 125.5zM493 1813q6 37 28 68.5t53.5 56t70.5 38t82 13.5q86 0 135 -51.5t37 -124.5q-6 -37 -28.5 -69t-54.5 -56.5 t-71 -38t-82 -13.5q-84 0 -134 51.5t-36 125.5zM-10 10q43 244 73.5 422t52 301t35 200t20.5 118t10 56l3 15q8 92 -8 133t-37.5 58.5t-36 23.5t-4.5 27q14 25 47 51.5t76 48t91 35.5t94 14q59 0 111 -18t87 -58t48.5 -101.5t-3.5 -149.5l-71 -416l-50 -172l566 856l6 6l4 4 h4h377q4 0 6 -2q4 -4 4 -8l-250 -1444q-2 -4 -6 -8q-2 -2 -6 -2h-426q-4 0 -6 2q-4 4 0 8l112 582l56 196q-55 -78 -128 -184t-146.5 -215.5t-143.5 -210t-121 -168.5q-4 -4 -6 -5l-6 -3q-4 -2 -6 -2h-416q-2 0 -4 2q-4 4 -2 8z" />
<glyph unicode="&#x4e5;" d="M-53 1368q6 37 27.5 68.5t53.5 56t72 38t81 13.5q86 0 136 -51.5t38 -124.5q-6 -37 -28.5 -69t-55.5 -56.5t-72 -38t-82 -13.5q-84 0 -133 51.5t-37 125.5zM424 1368q6 37 28 68.5t53.5 56t70.5 38t82 13.5q86 0 135 -51.5t37 -124.5q-6 -37 -28.5 -69t-54.5 -56.5 t-71 -38t-82 -13.5q-84 0 -134 51.5t-36 125.5zM63.5 904q-8.5 5 -0.5 20q12 25 41 50t66 46.5t80 35t86 13.5q61 0 113.5 -21.5t86 -61.5t48 -98.5t2.5 -129.5q-4 -27 -12.5 -72t-18.5 -100.5t-20.5 -113.5t-20.5 -112q-12 -76 11.5 -102.5t62.5 -11t79 69t58 139.5 q16 88 31.5 185t31.5 183q16 98 35 195q0 4 6 10q2 2 5 2h411q2 0 4 -2t2 -8q-31 -133 -53 -252q-23 -102 -41 -202.5t-29 -153.5q-14 -82 -13 -132.5t11.5 -81t24.5 -44t26.5 -21.5t17.5 -13t-1 -20q-12 -25 -41 -50t-65.5 -46.5t-79.5 -35t-86 -13.5q-106 0 -171 62.5 t-67 172.5q-88 -131 -189.5 -183t-183.5 -52q-57 0 -104 23.5t-78 68.5t-42 106.5t3 139.5q10 63 22.5 134t32.5 185q14 82 12.5 132.5t-14 81t-29 44t-29.5 21.5t-21.5 13z" />
<glyph unicode="&#x4e6;" horiz-adv-x="1460" d="M475 1809q6 37 27.5 68.5t53.5 56t72 38t81 13.5q86 0 136 -51.5t38 -124.5q-6 -37 -28.5 -69t-55.5 -56.5t-72 -38t-82 -13.5q-84 0 -133 51.5t-37 125.5zM952 1809q6 37 28 68.5t53.5 56t70.5 38t82 13.5q86 0 135 -51.5t37 -124.5q-6 -37 -28.5 -69t-54.5 -56.5 t-71 -38t-82 -13.5q-84 0 -134 51.5t-36 125.5zM17.5 433q-25.5 140 0.5 298q27 156 103 297t187.5 248.5t252.5 170t303 62.5t283 -62.5t194.5 -170t98 -248.5t-1.5 -297q-29 -158 -101.5 -298t-183.5 -246.5t-253 -168t-308 -61.5q-162 0 -282 61.5t-193.5 168t-99 246.5z M465 547q0 -96 17.5 -176t54 -132.5t94.5 -52.5q59 0 114.5 51.5t101.5 130t78.5 175t49.5 188.5q16 90 16 187.5t-17.5 177.5t-54 132t-94.5 52q-59 0 -113.5 -52t-100.5 -132t-79.5 -177.5t-50.5 -187.5q-16 -88 -16 -184z" />
<glyph unicode="&#x4e7;" horiz-adv-x="1187" d="M301 1366q6 37 27.5 68.5t53.5 56t72 38t81 13.5q86 0 136 -51.5t38 -124.5q-6 -37 -28.5 -69t-55.5 -56.5t-72 -38t-82 -13.5q-84 0 -133 51.5t-37 125.5zM778 1366q6 37 28 68.5t53.5 56t70.5 38t82 13.5q86 0 135 -51.5t37 -124.5q-6 -37 -28.5 -69t-54.5 -56.5 t-71 -38t-82 -13.5q-84 0 -134 51.5t-36 125.5zM20 510q20 115 81 216t151 177t202.5 120t235.5 44t221.5 -44t162 -120t89 -177t4.5 -216q-20 -117 -80.5 -218.5t-149.5 -176t-202.5 -118.5t-238.5 -44q-123 0 -220.5 44t-161 118.5t-89 176t-5.5 218.5zM412 386 q0 -58 12 -103t38.5 -72t72.5 -27q45 0 82.5 26t65.5 70t48.5 103t32.5 127q12 66 12 125t-12 103t-40 71t-73 27t-82 -27t-65.5 -71t-48 -103.5t-31.5 -124.5q-12 -66 -12 -124z" />
<glyph unicode="&#x4ec;" horiz-adv-x="1304" d="M305 1809q6 37 27.5 68.5t53.5 56t72 38t81 13.5q86 0 136 -51.5t38 -124.5q-6 -37 -28.5 -69t-55.5 -56.5t-72 -38t-82 -13.5q-84 0 -133 51.5t-37 125.5zM782 1809q6 37 28 68.5t53.5 56t70.5 38t82 13.5q86 0 135 -51.5t37 -124.5q-6 -37 -28.5 -69t-54.5 -56.5 t-71 -38t-82 -13.5q-84 0 -134 51.5t-36 125.5zM-49 330q6 41 28.5 82t56.5 74.5t80 55t101 21.5q68 0 111 -21.5t34 -52.5q-16 -49 -21 -99t5 -89t39 -63.5t80 -24.5q55 0 107.5 31.5t96.5 86t75.5 127t46.5 154.5h-324q-4 0 -6 2q-6 4 -4 9l39 223q0 4 6 8q2 2 6 2h326 q16 80 10 152.5t-31 126t-68 85t-98 31.5q-51 0 -88 -24.5t-61.5 -63.5t-36.5 -89t-15 -99q-2 -31 -52 -52.5t-118 -21.5q-55 0 -94 21.5t-61.5 55.5t-29.5 75t-1 82q14 82 66.5 151.5t134.5 119.5t186.5 77.5t224.5 25.5q160 0 282 -63.5t196.5 -170t102.5 -244.5t1 -292 q-29 -158 -106.5 -300t-191.5 -249.5t-257 -171t-299 -63.5q-121 -2 -217 25.5t-158.5 78t-90 119t-13.5 152.5z" />
<glyph unicode="&#x4ed;" horiz-adv-x="1083" d="M188 1373q6 37 27.5 68.5t53.5 56t72 38t81 13.5q86 0 136 -51.5t38 -124.5q-6 -37 -28.5 -69t-55.5 -56.5t-72 -38t-82 -13.5q-84 0 -133 51.5t-37 125.5zM665 1373q6 37 28 68.5t53.5 56t70.5 38t82 13.5q86 0 135 -51.5t37 -124.5q-6 -37 -28.5 -69t-54.5 -56.5 t-71 -38t-82 -13.5q-84 0 -134 51.5t-36 125.5zM-27 238q6 37 25.5 72.5t49.5 63t69 44t86 16.5q25 0 48 -3t42.5 -10t30 -18.5t6.5 -27.5q-14 -45 -14.5 -76t10.5 -51q16 -35 42.5 -47.5t61.5 -12.5q31 0 60.5 9.5t56 33t49 63.5t37.5 99h-254q-2 0 -4 2q-4 4 -2 8 q6 45 14 84q6 35 11 68t10 51q0 4 2 4t4 2q2 0 4 2h254q14 121 -25 174.5t-117 53.5q-31 -4 -58.5 -16.5t-49.5 -41.5q-35 -45 -41 -129q-2 -16 -16.5 -27.5t-36 -18.5t-46 -10t-49.5 -3q-47 0 -80.5 16.5t-54 44t-28 63.5t-0.5 73q16 80 71.5 133t129 84.5t155.5 46 t149 16.5h3h2q131 0 235.5 -50t169 -133t82.5 -191.5t-18 -225.5q-29 -115 -93.5 -210t-154.5 -162.5t-198.5 -104.5t-225.5 -35q-68 2 -144.5 17.5t-139 47t-98.5 84t-22 128.5z" />
<glyph unicode="&#x4f0;" horiz-adv-x="1329" d="M12 1809q6 37 27.5 68.5t53.5 56t72 38t81 13.5q86 0 136 -51.5t38 -124.5q-6 -37 -28.5 -69t-55.5 -56.5t-72 -38t-82 -13.5q-84 0 -133 51.5t-37 125.5zM489 1809q6 37 28 68.5t53.5 56t70.5 38t82 13.5q86 0 135 -51.5t37 -124.5q-6 -37 -28.5 -69t-54.5 -56.5 t-71 -38t-82 -13.5q-84 0 -134 51.5t-36 125.5zM86 250q12 111 90 171t189 60q33 0 63.5 -9t53 -24.5t34.5 -33t6 -31.5q-31 -55 -39 -98t1.5 -74t32 -47.5t52.5 -16.5q74 0 118 60.5t70.5 143.5t39 168t18.5 134q-61 -68 -135 -102.5t-147.5 -40.5t-140 17.5t-116 72.5 t-74 124t-12.5 173l13 102q12 90 8 146.5t-17.5 89.5t-32 49t-33.5 24.5t-24.5 14.5t-1.5 23q12 25 43 53t71 51t88 38t95 15q68 0 125.5 -23.5t95 -68.5t55 -107.5t7.5 -142.5l-33 -231q-10 -68 12.5 -102.5t57.5 -34.5t73.5 31.5t61.5 95.5q12 39 26.5 124.5t26.5 178.5 q14 104 29 227q0 2 6 8q2 2 6 2h451q2 0 4 -2q4 -4 4 -8q-39 -217 -78 -433t-80 -384q-37 -152 -101.5 -274.5t-153.5 -212t-199.5 -140.5t-239.5 -61q-109 -8 -199 5t-154.5 50t-96 99.5t-19.5 150.5z" />
<glyph unicode="&#x4f1;" horiz-adv-x="1218" d="M-17 1368q6 37 27.5 68.5t53.5 56t72 38t81 13.5q86 0 136 -51.5t38 -124.5q-6 -37 -28.5 -69t-55.5 -56.5t-72 -38t-82 -13.5q-84 0 -133 51.5t-37 125.5zM460 1368q6 37 28 68.5t53.5 56t70.5 38t82 13.5q86 0 135 -51.5t37 -124.5q-6 -37 -28.5 -69t-54.5 -56.5 t-71 -38t-82 -13.5q-84 0 -134 51.5t-36 125.5zM43 -180q-12 76 1 97.5t30 16.5q18 -4 35.5 -28.5t50.5 -54t85 -53t138 -23.5q61 0 113.5 22.5t92.5 58t66.5 81t36.5 92.5q8 47 16.5 99t18.5 105q-43 -66 -91 -111.5t-97.5 -73.5t-96.5 -40t-88 -12q-57 0 -104 23.5 t-78 68.5t-42 106.5t3 139.5q6 33 10 58.5t9.5 55t12.5 68.5t17 96q14 82 12.5 132.5t-14 81t-29 44t-29.5 21.5t-21.5 13t-0.5 20q12 25 40 50t66 46.5t81 35t86 13.5q61 0 112.5 -21.5t85 -61.5t47 -98.5t0.5 -129.5q-10 -53 -26.5 -151.5t-34.5 -205.5 q-14 -78 11.5 -104.5t64.5 -9t80 74t59 146.5q18 111 34.5 204t29.5 160q14 80 26 146q0 2 6 8q2 2 4 2h396q2 0 4 -2t2 -8l-55 -332q-12 -68 -24.5 -141.5t-25 -144t-23.5 -135t-20 -115.5q-18 -133 -72.5 -245t-140.5 -193t-201.5 -126t-256.5 -45q-113 0 -190 33t-125 78 t-70.5 92t-26.5 76z" />
<glyph unicode="&#x4f2;" horiz-adv-x="1329" d="M103 1733q-4 6 4 14q63 53 111 101.5t88 99.5t72 107.5t62 127.5q4 8 13 4q78 -20 137 -61t98 -100q8 -6 2 -17q-92 -133 -215 -226t-291 -149q-14 -4 -16 -2q-25 23 -39 47.5t-26 53.5zM592 1733q-4 6 4 14q63 53 112.5 101.5t89.5 99.5t71.5 107.5t62.5 127.5q4 8 12 4 q78 -20 137.5 -61t98.5 -100q8 -6 2 -17q-92 -133 -215 -226t-291 -149q-14 -4 -16 -2q-25 23 -40.5 47.5t-27.5 53.5zM86 250q12 111 90 171t189 60q33 0 63.5 -9t53 -24.5t34.5 -33t6 -31.5q-31 -55 -39 -98t1.5 -74t32 -47.5t52.5 -16.5q74 0 118 60.5t70.5 143.5t39 168 t18.5 134q-61 -68 -135 -102.5t-147.5 -40.5t-140 17.5t-116 72.5t-74 124t-12.5 173l13 102q12 90 8 146.5t-17.5 89.5t-32 49t-33.5 24.5t-24.5 14.5t-1.5 23q12 25 43 53t71 51t88 38t95 15q68 0 125.5 -23.5t95 -68.5t55 -107.5t7.5 -142.5l-33 -231 q-10 -68 12.5 -102.5t57.5 -34.5t73.5 31.5t61.5 95.5q12 39 26.5 124.5t26.5 178.5q14 104 29 227q0 2 6 8q2 2 6 2h451q2 0 4 -2q4 -4 4 -8q-39 -217 -78 -433t-80 -384q-37 -152 -101.5 -274.5t-153.5 -212t-199.5 -140.5t-239.5 -61q-109 -8 -199 5t-154.5 50t-96 99.5 t-19.5 150.5z" />
<glyph unicode="&#x4f3;" horiz-adv-x="1218" d="M76 1292q-4 6 4 14q63 53 111 101.5t88 99.5t72 107.5t62 127.5q4 8 13 4q78 -20 137 -61t98 -100q8 -6 2 -17q-92 -133 -215 -226t-291 -149q-14 -4 -16 -2q-25 23 -39 47.5t-26 53.5zM565 1292q-4 6 4 14q63 53 112.5 101.5t89.5 99.5t71.5 107.5t62.5 127.5q4 8 12 4 q78 -20 137.5 -61t98.5 -100q8 -6 2 -17q-92 -133 -215 -226t-291 -149q-14 -4 -16 -2q-25 23 -40.5 47.5t-27.5 53.5zM43 -180q-12 76 1 97.5t30 16.5q18 -4 35.5 -28.5t50.5 -54t85 -53t138 -23.5q61 0 113.5 22.5t92.5 58t66.5 81t36.5 92.5q8 47 16.5 99t18.5 105 q-43 -66 -91 -111.5t-97.5 -73.5t-96.5 -40t-88 -12q-57 0 -104 23.5t-78 68.5t-42 106.5t3 139.5q6 33 10 58.5t9.5 55t12.5 68.5t17 96q14 82 12.5 132.5t-14 81t-29 44t-29.5 21.5t-21.5 13t-0.5 20q12 25 40 50t66 46.5t81 35t86 13.5q61 0 112.5 -21.5t85 -61.5 t47 -98.5t0.5 -129.5q-10 -53 -26.5 -151.5t-34.5 -205.5q-14 -78 11.5 -104.5t64.5 -9t80 74t59 146.5q18 111 34.5 204t29.5 160q14 80 26 146q0 2 6 8q2 2 4 2h396q2 0 4 -2t2 -8l-55 -332q-12 -68 -24.5 -141.5t-25 -144t-23.5 -135t-20 -115.5q-18 -133 -72.5 -245 t-140.5 -193t-201.5 -126t-256.5 -45q-113 0 -190 33t-125 78t-70.5 92t-26.5 76z" />
<glyph unicode="&#x4f4;" horiz-adv-x="1454" d="M14 1809q6 37 27.5 68.5t53.5 56t72 38t81 13.5q86 0 136 -51.5t38 -124.5q-6 -37 -28.5 -69t-55.5 -56.5t-72 -38t-82 -13.5q-84 0 -133 51.5t-37 125.5zM491 1809q6 37 28 68.5t53.5 56t70.5 38t82 13.5q86 0 135 -51.5t37 -124.5q-6 -37 -28.5 -69t-54.5 -56.5 t-71 -38t-82 -13.5q-84 0 -134 51.5t-36 125.5zM98 1323q-8 6 0 23q14 25 45 53t73 51t90 38t95 15q68 0 124.5 -23.5t94 -68.5t53 -107.5t1.5 -142.5l-53 -297q-10 -53 4 -83.5t42.5 -41t64.5 -1t71 37t63.5 70.5t38.5 100l90 502q0 4 6 10l5 4h438l4 -4q4 -4 4 -8 q-4 -35 -27 -156q-10 -53 -23 -128.5t-31.5 -183.5t-42 -249t-54.5 -323q-16 -115 -2 -167.5t35.5 -74t39 -27.5t5.5 -26q-12 -27 -47 -54.5t-79 -50t-94.5 -37t-95.5 -14.5q-61 0 -112.5 19.5t-87 60.5t-49 104.5t3.5 153.5l61 348q-57 -88 -136 -142t-163 -73.5t-165 -7.5 t-139.5 58t-87 124t-7.5 187l36 208q14 90 12.5 146.5t-15 89.5t-32 49t-34 24.5t-23.5 14.5z" />
<glyph unicode="&#x4f5;" horiz-adv-x="1226" d="M-53 1368q6 37 27.5 68.5t53.5 56t72 38t81 13.5q86 0 136 -51.5t38 -124.5q-6 -37 -28.5 -69t-55.5 -56.5t-72 -38t-82 -13.5q-84 0 -133 51.5t-37 125.5zM424 1368q6 37 28 68.5t53.5 56t70.5 38t82 13.5q86 0 135 -51.5t37 -124.5q-6 -37 -28.5 -69t-54.5 -56.5 t-71 -38t-82 -13.5q-84 0 -134 51.5t-36 125.5zM63.5 904q-8.5 5 -0.5 20q12 25 41 50t66 46.5t80 35t86 13.5q61 0 112.5 -21.5t85 -61.5t48 -98.5t2.5 -129.5q-4 -27 -5 -30l-2 -6q-1 -3 -4.5 -19.5t-11.5 -67.5q-14 -78 5.5 -109.5t52 -23.5t65.5 53t47 123 q10 66 21.5 128t19.5 109q8 55 19 103q0 4 6 10q2 2 6 2h409q2 0 5 -2q2 -2 2 -8q-31 -133 -54 -252q-23 -102 -41 -202.5t-28 -153.5q-14 -82 -13.5 -132.5t11 -81t25 -44t26.5 -21.5t18 -13t-2 -20q-12 -25 -39.5 -50t-64.5 -46.5t-80 -35t-86 -13.5q-125 0 -191.5 83 t-42.5 228q4 25 10.5 59.5t14.5 80.5q-66 -76 -146.5 -103t-152.5 -27q-135 0 -200.5 88.5t-37.5 247.5q14 82 12.5 132.5t-14 81t-29 44t-29.5 21.5t-21.5 13z" />
<glyph unicode="&#x4f8;" horiz-adv-x="1867" d="M41 1809q6 37 27.5 68.5t53.5 56t72 38t81 13.5q86 0 136 -51.5t38 -124.5q-6 -37 -28.5 -69t-55.5 -56.5t-72 -38t-82 -13.5q-84 0 -133 51.5t-37 125.5zM518 1809q6 37 28 68.5t53.5 56t70.5 38t82 13.5q86 0 135 -51.5t37 -124.5q-6 -37 -28.5 -69t-54.5 -56.5 t-71 -38t-82 -13.5q-84 0 -134 51.5t-36 125.5zM28.5 333.5q-12.5 102.5 4.5 201.5l160 917q0 4 4 8q2 2 6 2h436q2 0 4 -2q4 -4 4 -8l-84 -469q190 29 322.5 -3t211.5 -103.5t106.5 -173t8.5 -209.5q-20 -119 -76.5 -218.5t-144.5 -170t-206.5 -110.5t-264.5 -40 q-164 0 -266 54t-157.5 138t-68 186.5zM459 338q2 -37 14 -66.5t37 -49t65 -19.5q35 0 66 22.5t56.5 59.5t43 81t23.5 87q29 162 -32.5 242.5t-209.5 52.5l-59 -336q-6 -37 -4 -74zM1217 266q0 2 9 54.5t23.5 135.5t34 189.5t37.5 216.5q45 260 104 588q0 2 7 8q2 2 6 2h438 q2 0 4 -2q4 -4 2 -8q-43 -248 -80 -457q-16 -90 -30.5 -178t-27.5 -165t-23.5 -134t-14.5 -84q-14 -82 -13 -134t10 -84t23.5 -49.5t25.5 -26.5t16.5 -16t-1.5 -22q-12 -25 -44.5 -50t-74.5 -46.5t-89.5 -35t-90.5 -13.5q-61 0 -113 21.5t-87 61.5t-49 98t-2 130z" />
<glyph unicode="&#x4f9;" horiz-adv-x="1624" d="M921 1368q6 37 27.5 68.5t53.5 56t72 38t81 13.5q86 0 136 -51.5t38 -124.5q-6 -37 -28.5 -69t-55.5 -56.5t-72 -38t-82 -13.5q-84 0 -133 51.5t-37 125.5zM1398 1368q6 37 28 68.5t53.5 56t70.5 38t82 13.5q86 0 135 -51.5t37 -124.5q-6 -37 -28.5 -69t-54.5 -56.5 t-71 -38t-82 -13.5q-84 0 -134 51.5t-36 125.5zM38 250q-9 78 3 149q6 35 16.5 94.5t22.5 129t24.5 140.5t22.5 128t16 93l7 36q0 2 6 8q2 2 4 2h395q2 0 4 -2t2 -10q-4 -29 -10 -66q-4 -31 -12.5 -71.5t-16.5 -87.5q37 6 80 10t86 4q113 0 203 -57q45 88 98 149.5t109.5 99 t111 54t101.5 16.5q57 0 104 -23.5t78 -68.5t43 -107.5t-2 -138.5q-6 -33 -11 -64.5t-11.5 -69.5t-14.5 -83t-18 -102q-14 -82 -12.5 -132.5t14 -81t29 -44t29.5 -21.5t20.5 -13t-0.5 -20q-12 -25 -41 -50t-66 -46.5t-80 -35t-86 -13.5q-61 0 -112.5 21.5t-85 61.5t-48 98.5 t-2.5 129.5q4 27 12.5 72t18.5 100.5t20.5 113.5t20.5 112q10 61 -1 90.5t-34.5 29.5t-52.5 -27.5t-53 -78.5q39 -53 55 -122t0 -153q-18 -98 -71.5 -181t-130.5 -142.5t-172 -92t-197 -32.5q-141 0 -228.5 43t-132.5 108.5t-54 143.5zM438 297q-2 -29 4.5 -52.5t20.5 -37.5 t41 -14q31 0 53.5 19t38.5 50t26.5 71t16.5 81q16 90 -12.5 143t-96.5 53q-20 0 -41 -4q-12 -70 -23 -134t-22 -116q-4 -30 -6 -59z" />
<glyph unicode="&#x2000;" horiz-adv-x="1097" />
<glyph unicode="&#x2001;" horiz-adv-x="2195" />
<glyph unicode="&#x2002;" horiz-adv-x="1097" />
<glyph unicode="&#x2003;" horiz-adv-x="2195" />
<glyph unicode="&#x2004;" horiz-adv-x="731" />
<glyph unicode="&#x2005;" horiz-adv-x="548" />
<glyph unicode="&#x2006;" horiz-adv-x="364" />
<glyph unicode="&#x2007;" horiz-adv-x="364" />
<glyph unicode="&#x2008;" horiz-adv-x="274" />
<glyph unicode="&#x2009;" horiz-adv-x="438" />
<glyph unicode="&#x200a;" horiz-adv-x="120" />
<glyph unicode="&#x2010;" horiz-adv-x="753" d="M45 426q-2 2 0 4l31 176l4 4q6 6 10 6h608q6 0 7 -4v-4l-31 -180q0 -2 -2 -4t-8 -2q-84 -2 -189.5 -1t-200.5 1h-221q-8 0 -8 4z" />
<glyph unicode="&#x2011;" horiz-adv-x="753" d="M45 426q-2 2 0 4l31 176l4 4q6 6 10 6h608q6 0 7 -4v-4l-31 -180q0 -2 -2 -4t-8 -2q-84 -2 -189.5 -1t-200.5 1h-221q-8 0 -8 4z" />
<glyph unicode="&#x2012;" horiz-adv-x="753" d="M45 426q-2 2 0 4l31 176l4 4q6 6 10 6h608q6 0 7 -4v-4l-31 -180q0 -2 -2 -4t-8 -2q-84 -2 -189.5 -1t-200.5 1h-221q-8 0 -8 4z" />
<glyph unicode="&#x2013;" horiz-adv-x="1024" d="M43 410q-2 2 0 4l31 176l4 4q6 6 10 6h875q6 0 6 -4v-4l-31 -180q0 -2 -2 -4t-8 -2h-102h-130h-144h-146h-355q-8 0 -8 4z" />
<glyph unicode="&#x2014;" horiz-adv-x="1665" d="M43 410q-2 2 0 4l31 176l4 4q6 6 10 6h1516q6 0 6 -4v-4l-31 -180q0 -2 -2 -4t-8 -2h-128h-202h-248h-264h-676q-8 0 -8 4z" />
<glyph unicode="&#x2018;" horiz-adv-x="421" d="M14 1133q14 76 50 133t79 97t85 64.5t67 32.5q31 10 50.5 13.5t28.5 1.5t11 -7.5t0 -11.5q-2 -20 -39 -47q-66 -53 -77 -79.5t16 -37.5q49 -23 73.5 -67.5t14.5 -104.5q-6 -37 -25.5 -69.5t-49.5 -57t-64.5 -39t-71.5 -14.5q-74 0 -117 54.5t-31 138.5z" />
<glyph unicode="&#x2019;" horiz-adv-x="421" d="M33 963q2 12 13 23t28 24q66 53 77 79.5t-16 36.5q-49 23 -73.5 68t-14.5 104q6 37 25.5 70t48.5 57.5t64.5 39t72.5 14.5t66.5 -14.5t50 -40t29 -61.5t2.5 -77q-14 -76 -50.5 -133t-79.5 -97t-84.5 -64.5t-66.5 -33.5q-31 -10 -50.5 -13t-28.5 -1t-12 7.5t-1 11.5z" />
<glyph unicode="&#x201a;" horiz-adv-x="419" d="M33 -172q2 12 13 23.5t28 23.5q66 53 77 80t-16 37q-49 23 -73.5 67.5t-14.5 104.5q6 37 25.5 69.5t48.5 57t64.5 39t72.5 14.5t66.5 -14.5t50 -40t29 -61t2.5 -76.5q-14 -76 -50.5 -133.5t-79.5 -97.5t-84.5 -64.5t-66.5 -32.5q-31 -10 -50.5 -13.5t-28.5 -1t-12 7.5 t-1 11z" />
<glyph unicode="&#x201c;" horiz-adv-x="811" d="M14 1133q14 76 50 133t79 97t85 64.5t67 32.5q31 10 50.5 13.5t28.5 1.5t11 -7.5t0 -11.5q-2 -20 -39 -47q-66 -53 -77 -79.5t16 -37.5q49 -23 73.5 -67.5t14.5 -104.5q-6 -37 -25.5 -69.5t-49.5 -57t-64.5 -39t-71.5 -14.5q-74 0 -117 54.5t-31 138.5zM403 1133 q14 76 50 133t79 97t85 64.5t67 32.5q63 20 78.5 14t13.5 -18t-13 -23.5t-28 -23.5q-66 -53 -77 -79.5t16 -37.5q49 -23 73.5 -67.5t14.5 -104.5q-6 -37 -25.5 -69.5t-48.5 -57t-64.5 -39t-72.5 -14.5t-66.5 14.5t-50 40t-29 61.5t-2.5 77z" />
<glyph unicode="&#x201d;" horiz-adv-x="811" d="M33 963q2 12 13 23t28 24q66 53 77 79.5t-16 36.5q-49 23 -73.5 68t-14.5 104q6 37 25.5 70t48.5 57.5t64.5 39t72.5 14.5t66.5 -14.5t50 -40t29 -61.5t2.5 -77q-14 -76 -50.5 -133t-79.5 -97t-84.5 -64.5t-66.5 -33.5q-31 -10 -50.5 -13t-28.5 -1t-12 7.5t-1 11.5z M424 951q-2 5 0 12q2 20 39 47q66 53 77 79.5t-16 36.5q-49 23 -73.5 68t-14.5 104q6 37 25.5 70t49.5 57.5t64.5 39t71.5 14.5q74 0 118 -54.5t30 -138.5q-14 -76 -50 -133t-79 -97t-85 -64.5t-67 -33.5q-31 -10 -50.5 -13t-28.5 -1t-11 7z" />
<glyph unicode="&#x201e;" horiz-adv-x="811" d="M33 -182q2 12 13 23.5t28 23.5q66 53 77 79.5t-16 37.5q-49 23 -73.5 67.5t-14.5 104.5q6 37 25.5 69.5t48.5 57t64.5 39t72.5 14.5t66.5 -14.5t50 -40t29 -61.5t2.5 -77q-14 -76 -50.5 -133t-79.5 -97t-84.5 -64.5t-66.5 -32.5q-31 -10 -50.5 -13.5t-28.5 -1.5t-12 7.5 t-1 11.5zM424 -182q2 20 39 47q66 53 77 79.5t-16 37.5q-49 23 -73.5 67.5t-14.5 104.5q6 37 25.5 69.5t49.5 57t64.5 39t71.5 14.5q74 0 118 -54.5t30 -138.5q-14 -76 -50 -133t-79 -97t-85 -64.5t-67 -32.5q-31 -10 -50.5 -13.5t-28.5 -1.5t-11 7.5t0 11.5z" />
<glyph unicode="&#x2022;" horiz-adv-x="692" d="M39 510q12 63 46 119.5t82 97.5t108.5 65.5t123.5 24.5t114.5 -24.5t85.5 -65.5t48.5 -97.5t1.5 -119.5q-10 -63 -44 -118.5t-83 -97.5t-108.5 -65.5t-122.5 -23.5t-114.5 23.5t-85.5 65.5t-48 97.5t-4 118.5z" />
<glyph unicode="&#x2026;" horiz-adv-x="1507" d="M31 164q6 41 28.5 78t54 64.5t71.5 43t81 15.5q84 0 132 -58.5t34 -142.5q-8 -41 -30.5 -78t-54.5 -64.5t-71.5 -43t-80.5 -15.5t-75 15.5t-56.5 43t-31.5 64.5t-1 78zM553 164q6 41 28.5 78t54.5 64.5t72 43t80 15.5q84 0 132.5 -58.5t33.5 -142.5q-8 -41 -30.5 -78 t-54 -64.5t-71.5 -43t-81 -15.5t-75 15.5t-56.5 43t-31.5 64.5t-1 78zM1075 164q6 41 28.5 78t54.5 64.5t72 43t81 15.5q84 0 132 -58.5t34 -142.5q-8 -41 -31 -78t-54.5 -64.5t-71.5 -43t-81 -15.5t-75 15.5t-56.5 43t-31.5 64.5t-1 78z" />
<glyph unicode="&#x202f;" horiz-adv-x="438" />
<glyph unicode="&#x205f;" horiz-adv-x="548" />
<glyph unicode="&#x20ac;" horiz-adv-x="1155" d="M-18 348l20 125l2 2q4 4 8 4q23 0 43.5 -1t42.5 -3q0 20 6 39q2 10 3.5 18.5t5.5 18.5q-23 -2 -44.5 -3t-43.5 -1q-8 0 -9 4v4l23 125q-2 0 0 2q0 4 8 4q51 0 111 -6q39 82 102.5 153.5t143 124t175 83t199.5 30.5h2h4h36q17 0 36 -4q63 -6 128 -24.5t115 -52.5t76.5 -83 t14.5 -116q-6 -37 -25.5 -72t-49.5 -62.5t-68.5 -44t-85.5 -16.5q-25 0 -49.5 3t-43 10t-30 17.5t-7.5 26.5q12 45 13.5 76t-6.5 53q-14 29 -38 41.5t-50 16.5h-19h-18q-8 0 -19 -4q-37 -10 -74.5 -45t-70.5 -115q47 2 88 3t70 3q35 2 63 4q4 0 8 -4q2 -2 2 -4l-22 -121 q0 -4 -2 -6q-4 -4 -11 -4q-27 2 -63 4q-31 2 -73 4t-93 4q0 -4 -2 -9t-2 -9q0 -6 -1 -13.5t-1 -13.5q-4 -12 -5 -23.5t-5 -23.5q49 2 91 4t75 4q37 2 69 4q8 0 8 -4v-4l-22 -121q0 -4 -2 -6q-4 -4 -8 -4q-27 2 -60 4q-29 2 -68.5 4t-86.5 4q2 -80 27.5 -114.5t60.5 -44.5 q6 -4 14 -5h18h17q31 4 58.5 16.5t49.5 41.5q35 43 43 129q2 14 16.5 25.5t36 19.5t46 11t49.5 3q47 0 81 -17.5t54 -45t26.5 -62.5t0.5 -71q-12 -68 -57.5 -117t-107 -83t-132 -52.5t-135.5 -24.5q-16 -4 -35 -4h-35h-2h-2h-2q-104 0 -189.5 30.5t-148 83t-100 123 t-48.5 152.5l-53 -4q-27 -2 -55 -2q-4 0 -8 4q-2 2 -2 4z" />
<glyph unicode="&#x2122;" horiz-adv-x="1132" d="M27 940v2l20 115v2h2l4 2h463q2 0 4 -2v-2l-20 -117l-2 -2q-25 -4 -64 -6t-84 -4l-53 -303q0 -2 -2 -4h-2h-168h-2v4q8 49 16 102q8 45 16.5 97.5t18.5 103.5q-45 2 -84 4t-59 6q-4 0 -4 2zM465 625q23 115 41 209q8 39 15 77.5t14 69.5l10 51q4 20 4 25q0 2 2 2h203 q2 0 2 -1t2 -1q0 -2 2 -2l55 -162h2l113 162l2 2l4 2h203l2 -2q0 -4 -4 -24.5t-9.5 -51.5t-11.5 -70l-12 -77q-14 -94 -33 -209v-2l-2 -2h-168h-2q-2 0 -2 6q4 27 10 59q4 29 11.5 65.5t15.5 79.5q2 4 4 11.5t4 13.5q2 8 4 14q0 4 -6 4t-6 -4l-21 -43l-125 -198 q-2 -8 -12 -8h-14q-10 0 -12 8l-56 196l-4 45q-2 4 -8 4t-4 -4q0 -2 -1 -18t-1 -25q-8 -41 -14.5 -76.5t-10.5 -64.5q-6 -33 -10 -59q0 -2 -2 -4v-2h-2h-168l-2 2q-2 0 -2 2z" />
<glyph unicode="&#xe000;" horiz-adv-x="1065" d="M0 1065h1065v-1065h-1065v1065z" />
</font>
</defs>
</svg>
